<mxfile host="app.diagrams.net" modified="2023-12-22T04:15:36.902Z" agent="Mozilla/5.0 (Windows NT 10.0; Win64; x64) AppleWebKit/537.36 (KHTML, like Gecko) Chrome/120.0.0.0 Safari/537.36 Edg/120.0.0.0" etag="clZoY2Q5VKGeNp0Ojp_Y" version="22.1.11" type="github">
  <diagram name="페이지-1" id="50MavGLhgSR_UAx0IcnP">
    <mxGraphModel dx="1573" dy="1172" grid="0" gridSize="10" guides="1" tooltips="1" connect="1" arrows="1" fold="1" page="0" pageScale="1" pageWidth="827" pageHeight="1169" math="0" shadow="0">
      <root>
        <mxCell id="0" />
        <mxCell id="1" parent="0" />
        <mxCell id="TLwpCwCnEkrLmzgMQMTA-143" value="" style="rounded=0;whiteSpace=wrap;html=1;fontSize=16;fillColor=none;" vertex="1" parent="1">
          <mxGeometry x="-243" y="2170" width="1086" height="291" as="geometry" />
        </mxCell>
        <mxCell id="TLwpCwCnEkrLmzgMQMTA-112" value="" style="rounded=0;whiteSpace=wrap;html=1;fontSize=16;fillColor=none;" vertex="1" parent="1">
          <mxGeometry x="-237" y="1787" width="1086" height="291" as="geometry" />
        </mxCell>
        <mxCell id="TLwpCwCnEkrLmzgMQMTA-81" value="" style="rounded=0;whiteSpace=wrap;html=1;fontSize=16;fillColor=none;" vertex="1" parent="1">
          <mxGeometry x="-256" y="1369" width="1086" height="291" as="geometry" />
        </mxCell>
        <mxCell id="KUXI76Em8l5ijPM1_RXj-83" value="" style="rounded=0;whiteSpace=wrap;html=1;fontSize=16;fillColor=none;" parent="1" vertex="1">
          <mxGeometry x="-256" y="378" width="1086" height="534" as="geometry" />
        </mxCell>
        <mxCell id="KUXI76Em8l5ijPM1_RXj-82" value="" style="rounded=0;whiteSpace=wrap;html=1;fontSize=16;fillColor=none;" parent="1" vertex="1">
          <mxGeometry x="-256" y="-169" width="1086" height="534" as="geometry" />
        </mxCell>
        <mxCell id="KUXI76Em8l5ijPM1_RXj-1" value="" style="endArrow=none;html=1;rounded=0;fontSize=12;startSize=8;endSize=8;edgeStyle=none;curved=1;" parent="1" edge="1">
          <mxGeometry width="50" height="50" relative="1" as="geometry">
            <mxPoint x="-132" y="83" as="sourcePoint" />
            <mxPoint x="80" y="80" as="targetPoint" />
          </mxGeometry>
        </mxCell>
        <mxCell id="KUXI76Em8l5ijPM1_RXj-2" value="" style="endArrow=none;html=1;rounded=0;fontSize=12;startSize=8;endSize=8;edgeStyle=none;curved=1;" parent="1" edge="1">
          <mxGeometry width="50" height="50" relative="1" as="geometry">
            <mxPoint x="156" y="82" as="sourcePoint" />
            <mxPoint x="368" y="79" as="targetPoint" />
          </mxGeometry>
        </mxCell>
        <mxCell id="KUXI76Em8l5ijPM1_RXj-3" value="" style="endArrow=none;html=1;rounded=0;fontSize=12;startSize=8;endSize=8;edgeStyle=none;curved=1;" parent="1" edge="1">
          <mxGeometry width="50" height="50" relative="1" as="geometry">
            <mxPoint x="435" y="78" as="sourcePoint" />
            <mxPoint x="647" y="75" as="targetPoint" />
          </mxGeometry>
        </mxCell>
        <mxCell id="KUXI76Em8l5ijPM1_RXj-4" value="" style="endArrow=none;html=1;rounded=0;fontSize=12;startSize=8;endSize=8;edgeStyle=none;curved=1;" parent="1" edge="1">
          <mxGeometry width="50" height="50" relative="1" as="geometry">
            <mxPoint x="-139" y="324" as="sourcePoint" />
            <mxPoint x="73" y="321" as="targetPoint" />
          </mxGeometry>
        </mxCell>
        <mxCell id="KUXI76Em8l5ijPM1_RXj-5" value="" style="endArrow=none;html=1;rounded=0;fontSize=12;startSize=8;endSize=8;edgeStyle=none;curved=1;" parent="1" edge="1">
          <mxGeometry width="50" height="50" relative="1" as="geometry">
            <mxPoint x="174" y="317" as="sourcePoint" />
            <mxPoint x="386" y="314" as="targetPoint" />
          </mxGeometry>
        </mxCell>
        <mxCell id="KUXI76Em8l5ijPM1_RXj-6" value="in" style="text;html=1;align=center;verticalAlign=middle;resizable=0;points=[];autosize=1;strokeColor=none;fillColor=none;fontSize=16;" parent="1" vertex="1">
          <mxGeometry x="-123" y="-134" width="30" height="31" as="geometry" />
        </mxCell>
        <mxCell id="KUXI76Em8l5ijPM1_RXj-7" value="out" style="text;html=1;align=center;verticalAlign=middle;resizable=0;points=[];autosize=1;strokeColor=none;fillColor=none;fontSize=16;" parent="1" vertex="1">
          <mxGeometry x="28" y="-134" width="40" height="31" as="geometry" />
        </mxCell>
        <mxCell id="KUXI76Em8l5ijPM1_RXj-8" value="out" style="text;html=1;align=center;verticalAlign=middle;resizable=0;points=[];autosize=1;strokeColor=none;fillColor=none;fontSize=16;" parent="1" vertex="1">
          <mxGeometry x="311" y="-134" width="40" height="31" as="geometry" />
        </mxCell>
        <mxCell id="KUXI76Em8l5ijPM1_RXj-9" value="in" style="text;html=1;align=center;verticalAlign=middle;resizable=0;points=[];autosize=1;strokeColor=none;fillColor=none;fontSize=16;" parent="1" vertex="1">
          <mxGeometry x="160" y="-134" width="30" height="31" as="geometry" />
        </mxCell>
        <mxCell id="KUXI76Em8l5ijPM1_RXj-10" value="out" style="text;html=1;align=center;verticalAlign=middle;resizable=0;points=[];autosize=1;strokeColor=none;fillColor=none;fontSize=16;" parent="1" vertex="1">
          <mxGeometry x="603" y="-134" width="40" height="31" as="geometry" />
        </mxCell>
        <mxCell id="KUXI76Em8l5ijPM1_RXj-11" value="in" style="text;html=1;align=center;verticalAlign=middle;resizable=0;points=[];autosize=1;strokeColor=none;fillColor=none;fontSize=16;" parent="1" vertex="1">
          <mxGeometry x="452" y="-134" width="30" height="31" as="geometry" />
        </mxCell>
        <mxCell id="KUXI76Em8l5ijPM1_RXj-12" value="in" style="text;html=1;align=center;verticalAlign=middle;resizable=0;points=[];autosize=1;strokeColor=none;fillColor=none;fontSize=16;" parent="1" vertex="1">
          <mxGeometry x="-123" y="144" width="30" height="31" as="geometry" />
        </mxCell>
        <mxCell id="KUXI76Em8l5ijPM1_RXj-13" value="out" style="text;html=1;align=center;verticalAlign=middle;resizable=0;points=[];autosize=1;strokeColor=none;fillColor=none;fontSize=16;" parent="1" vertex="1">
          <mxGeometry x="28" y="144" width="40" height="31" as="geometry" />
        </mxCell>
        <mxCell id="KUXI76Em8l5ijPM1_RXj-14" value="in" style="text;html=1;align=center;verticalAlign=middle;resizable=0;points=[];autosize=1;strokeColor=none;fillColor=none;fontSize=16;" parent="1" vertex="1">
          <mxGeometry x="190" y="144" width="30" height="31" as="geometry" />
        </mxCell>
        <mxCell id="KUXI76Em8l5ijPM1_RXj-15" value="out" style="text;html=1;align=center;verticalAlign=middle;resizable=0;points=[];autosize=1;strokeColor=none;fillColor=none;fontSize=16;" parent="1" vertex="1">
          <mxGeometry x="341" y="144" width="40" height="31" as="geometry" />
        </mxCell>
        <mxCell id="KUXI76Em8l5ijPM1_RXj-16" value="" style="endArrow=classic;html=1;rounded=0;fontSize=12;startSize=8;endSize=8;edgeStyle=none;curved=1;strokeColor=#0066CC;" parent="1" edge="1">
          <mxGeometry width="50" height="50" relative="1" as="geometry">
            <mxPoint x="-247" as="sourcePoint" />
            <mxPoint x="-172" as="targetPoint" />
          </mxGeometry>
        </mxCell>
        <mxCell id="KUXI76Em8l5ijPM1_RXj-17" value="" style="endArrow=classic;html=1;rounded=0;fontSize=12;startSize=8;endSize=8;edgeStyle=none;curved=1;strokeColor=#0066CC;" parent="1" edge="1">
          <mxGeometry width="50" height="50" relative="1" as="geometry">
            <mxPoint x="135" y="-47" as="sourcePoint" />
            <mxPoint x="210" y="-47" as="targetPoint" />
          </mxGeometry>
        </mxCell>
        <mxCell id="KUXI76Em8l5ijPM1_RXj-18" value="" style="endArrow=classic;html=1;rounded=0;fontSize=12;startSize=8;endSize=8;edgeStyle=none;curved=1;strokeColor=#0066CC;" parent="1" edge="1">
          <mxGeometry width="50" height="50" relative="1" as="geometry">
            <mxPoint x="423" y="-46" as="sourcePoint" />
            <mxPoint x="498" y="-46" as="targetPoint" />
          </mxGeometry>
        </mxCell>
        <mxCell id="KUXI76Em8l5ijPM1_RXj-19" value="" style="endArrow=classic;html=1;rounded=0;fontSize=12;startSize=8;endSize=8;edgeStyle=none;curved=1;strokeColor=#0066CC;" parent="1" edge="1">
          <mxGeometry width="50" height="50" relative="1" as="geometry">
            <mxPoint x="582" y="-45" as="sourcePoint" />
            <mxPoint x="657" y="-45" as="targetPoint" />
          </mxGeometry>
        </mxCell>
        <mxCell id="KUXI76Em8l5ijPM1_RXj-20" value="" style="endArrow=classic;html=1;rounded=0;fontSize=12;startSize=8;endSize=8;edgeStyle=none;curved=1;strokeColor=#0066CC;" parent="1" edge="1">
          <mxGeometry width="50" height="50" relative="1" as="geometry">
            <mxPoint x="10.5" y="216" as="sourcePoint" />
            <mxPoint x="85.5" y="216" as="targetPoint" />
          </mxGeometry>
        </mxCell>
        <mxCell id="KUXI76Em8l5ijPM1_RXj-21" value="" style="endArrow=classic;html=1;rounded=0;fontSize=12;startSize=8;endSize=8;edgeStyle=none;curved=1;strokeColor=#0066CC;" parent="1" edge="1">
          <mxGeometry width="50" height="50" relative="1" as="geometry">
            <mxPoint x="421" y="245" as="sourcePoint" />
            <mxPoint x="496" y="245" as="targetPoint" />
          </mxGeometry>
        </mxCell>
        <mxCell id="KUXI76Em8l5ijPM1_RXj-22" value="0" style="text;html=1;align=center;verticalAlign=middle;resizable=0;points=[];autosize=1;strokeColor=none;fillColor=none;fontSize=16;" parent="1" vertex="1">
          <mxGeometry x="-45" y="99" width="27" height="31" as="geometry" />
        </mxCell>
        <mxCell id="KUXI76Em8l5ijPM1_RXj-23" value="-1" style="text;html=1;align=center;verticalAlign=middle;resizable=0;points=[];autosize=1;strokeColor=none;fillColor=none;fontSize=16;" parent="1" vertex="1">
          <mxGeometry x="232.5" y="97" width="32" height="31" as="geometry" />
        </mxCell>
        <mxCell id="KUXI76Em8l5ijPM1_RXj-24" value="-2" style="text;html=1;align=center;verticalAlign=middle;resizable=0;points=[];autosize=1;strokeColor=none;fillColor=none;fontSize=16;" parent="1" vertex="1">
          <mxGeometry x="529.5" y="99" width="32" height="31" as="geometry" />
        </mxCell>
        <mxCell id="KUXI76Em8l5ijPM1_RXj-25" value="-3" style="text;html=1;align=center;verticalAlign=middle;resizable=0;points=[];autosize=1;strokeColor=none;fillColor=none;fontSize=16;" parent="1" vertex="1">
          <mxGeometry x="-40.75" y="332" width="32" height="31" as="geometry" />
        </mxCell>
        <mxCell id="KUXI76Em8l5ijPM1_RXj-26" value="-4" style="text;html=1;align=center;verticalAlign=middle;resizable=0;points=[];autosize=1;strokeColor=none;fillColor=none;fontSize=16;" parent="1" vertex="1">
          <mxGeometry x="260" y="332" width="32" height="31" as="geometry" />
        </mxCell>
        <mxCell id="KUXI76Em8l5ijPM1_RXj-27" value="" style="endArrow=none;html=1;rounded=0;fontSize=12;startSize=8;endSize=8;edgeStyle=none;curved=1;" parent="1" edge="1">
          <mxGeometry width="50" height="50" relative="1" as="geometry">
            <mxPoint x="-146" y="629" as="sourcePoint" />
            <mxPoint x="66" y="626" as="targetPoint" />
          </mxGeometry>
        </mxCell>
        <mxCell id="KUXI76Em8l5ijPM1_RXj-28" value="" style="endArrow=none;html=1;rounded=0;fontSize=12;startSize=8;endSize=8;edgeStyle=none;curved=1;" parent="1" edge="1">
          <mxGeometry width="50" height="50" relative="1" as="geometry">
            <mxPoint x="142" y="628" as="sourcePoint" />
            <mxPoint x="354" y="625" as="targetPoint" />
          </mxGeometry>
        </mxCell>
        <mxCell id="KUXI76Em8l5ijPM1_RXj-29" value="" style="endArrow=none;html=1;rounded=0;fontSize=12;startSize=8;endSize=8;edgeStyle=none;curved=1;" parent="1" edge="1">
          <mxGeometry width="50" height="50" relative="1" as="geometry">
            <mxPoint x="421" y="624" as="sourcePoint" />
            <mxPoint x="633" y="621" as="targetPoint" />
          </mxGeometry>
        </mxCell>
        <mxCell id="KUXI76Em8l5ijPM1_RXj-30" value="" style="endArrow=none;html=1;rounded=0;fontSize=12;startSize=8;endSize=8;edgeStyle=none;curved=1;" parent="1" edge="1">
          <mxGeometry width="50" height="50" relative="1" as="geometry">
            <mxPoint x="-153" y="870" as="sourcePoint" />
            <mxPoint x="59" y="867" as="targetPoint" />
          </mxGeometry>
        </mxCell>
        <mxCell id="KUXI76Em8l5ijPM1_RXj-31" value="" style="endArrow=none;html=1;rounded=0;fontSize=12;startSize=8;endSize=8;edgeStyle=none;curved=1;" parent="1" edge="1">
          <mxGeometry width="50" height="50" relative="1" as="geometry">
            <mxPoint x="160" y="863" as="sourcePoint" />
            <mxPoint x="372" y="860" as="targetPoint" />
          </mxGeometry>
        </mxCell>
        <mxCell id="KUXI76Em8l5ijPM1_RXj-32" value="in" style="text;html=1;align=center;verticalAlign=middle;resizable=0;points=[];autosize=1;strokeColor=none;fillColor=none;fontSize=16;" parent="1" vertex="1">
          <mxGeometry x="-137" y="412" width="30" height="31" as="geometry" />
        </mxCell>
        <mxCell id="KUXI76Em8l5ijPM1_RXj-33" value="out" style="text;html=1;align=center;verticalAlign=middle;resizable=0;points=[];autosize=1;strokeColor=none;fillColor=none;fontSize=16;" parent="1" vertex="1">
          <mxGeometry x="14" y="412" width="40" height="31" as="geometry" />
        </mxCell>
        <mxCell id="KUXI76Em8l5ijPM1_RXj-34" value="out" style="text;html=1;align=center;verticalAlign=middle;resizable=0;points=[];autosize=1;strokeColor=none;fillColor=none;fontSize=16;" parent="1" vertex="1">
          <mxGeometry x="297" y="412" width="40" height="31" as="geometry" />
        </mxCell>
        <mxCell id="KUXI76Em8l5ijPM1_RXj-35" value="in" style="text;html=1;align=center;verticalAlign=middle;resizable=0;points=[];autosize=1;strokeColor=none;fillColor=none;fontSize=16;" parent="1" vertex="1">
          <mxGeometry x="146" y="412" width="30" height="31" as="geometry" />
        </mxCell>
        <mxCell id="KUXI76Em8l5ijPM1_RXj-36" value="out" style="text;html=1;align=center;verticalAlign=middle;resizable=0;points=[];autosize=1;strokeColor=none;fillColor=none;fontSize=16;" parent="1" vertex="1">
          <mxGeometry x="589" y="412" width="40" height="31" as="geometry" />
        </mxCell>
        <mxCell id="KUXI76Em8l5ijPM1_RXj-37" value="in" style="text;html=1;align=center;verticalAlign=middle;resizable=0;points=[];autosize=1;strokeColor=none;fillColor=none;fontSize=16;" parent="1" vertex="1">
          <mxGeometry x="438" y="412" width="30" height="31" as="geometry" />
        </mxCell>
        <mxCell id="KUXI76Em8l5ijPM1_RXj-38" value="in" style="text;html=1;align=center;verticalAlign=middle;resizable=0;points=[];autosize=1;strokeColor=none;fillColor=none;fontSize=16;" parent="1" vertex="1">
          <mxGeometry x="-137" y="690" width="30" height="31" as="geometry" />
        </mxCell>
        <mxCell id="KUXI76Em8l5ijPM1_RXj-39" value="out" style="text;html=1;align=center;verticalAlign=middle;resizable=0;points=[];autosize=1;strokeColor=none;fillColor=none;fontSize=16;" parent="1" vertex="1">
          <mxGeometry x="14" y="690" width="40" height="31" as="geometry" />
        </mxCell>
        <mxCell id="KUXI76Em8l5ijPM1_RXj-40" value="in" style="text;html=1;align=center;verticalAlign=middle;resizable=0;points=[];autosize=1;strokeColor=none;fillColor=none;fontSize=16;" parent="1" vertex="1">
          <mxGeometry x="176" y="690" width="30" height="31" as="geometry" />
        </mxCell>
        <mxCell id="KUXI76Em8l5ijPM1_RXj-41" value="out" style="text;html=1;align=center;verticalAlign=middle;resizable=0;points=[];autosize=1;strokeColor=none;fillColor=none;fontSize=16;" parent="1" vertex="1">
          <mxGeometry x="327" y="690" width="40" height="31" as="geometry" />
        </mxCell>
        <mxCell id="KUXI76Em8l5ijPM1_RXj-42" value="" style="endArrow=classic;html=1;rounded=0;fontSize=12;startSize=8;endSize=8;edgeStyle=none;curved=1;strokeColor=#0066CC;" parent="1" edge="1">
          <mxGeometry width="50" height="50" relative="1" as="geometry">
            <mxPoint x="137" y="548" as="sourcePoint" />
            <mxPoint x="75" y="548" as="targetPoint" />
          </mxGeometry>
        </mxCell>
        <mxCell id="KUXI76Em8l5ijPM1_RXj-43" value="" style="endArrow=classic;html=1;rounded=0;fontSize=12;startSize=8;endSize=8;edgeStyle=none;curved=1;strokeColor=#0066CC;" parent="1" edge="1">
          <mxGeometry width="50" height="50" relative="1" as="geometry">
            <mxPoint x="341" y="503" as="sourcePoint" />
            <mxPoint x="267" y="503" as="targetPoint" />
          </mxGeometry>
        </mxCell>
        <mxCell id="KUXI76Em8l5ijPM1_RXj-44" value="" style="endArrow=classic;html=1;rounded=0;fontSize=12;startSize=8;endSize=8;edgeStyle=none;curved=1;strokeColor=#0066CC;" parent="1" edge="1">
          <mxGeometry width="50" height="50" relative="1" as="geometry">
            <mxPoint x="486.5" y="502" as="sourcePoint" />
            <mxPoint x="419.5" y="502" as="targetPoint" />
          </mxGeometry>
        </mxCell>
        <mxCell id="KUXI76Em8l5ijPM1_RXj-45" value="" style="endArrow=classic;html=1;rounded=0;fontSize=12;startSize=8;endSize=8;edgeStyle=none;curved=1;strokeColor=#0066CC;" parent="1" edge="1">
          <mxGeometry width="50" height="50" relative="1" as="geometry">
            <mxPoint x="643" y="501" as="sourcePoint" />
            <mxPoint x="571" y="501" as="targetPoint" />
          </mxGeometry>
        </mxCell>
        <mxCell id="KUXI76Em8l5ijPM1_RXj-46" value="" style="endArrow=classic;html=1;rounded=0;fontSize=12;startSize=8;endSize=8;edgeStyle=none;curved=1;strokeColor=#0066CC;" parent="1" edge="1">
          <mxGeometry width="50" height="50" relative="1" as="geometry">
            <mxPoint x="-85.5" y="762" as="sourcePoint" />
            <mxPoint x="-165" y="764" as="targetPoint" />
          </mxGeometry>
        </mxCell>
        <mxCell id="KUXI76Em8l5ijPM1_RXj-47" value="" style="endArrow=classic;html=1;rounded=0;fontSize=12;startSize=8;endSize=8;edgeStyle=none;curved=1;strokeColor=#0066CC;" parent="1" edge="1">
          <mxGeometry width="50" height="50" relative="1" as="geometry">
            <mxPoint x="154" y="789" as="sourcePoint" />
            <mxPoint x="74" y="789" as="targetPoint" />
          </mxGeometry>
        </mxCell>
        <mxCell id="KUXI76Em8l5ijPM1_RXj-48" value="0" style="text;html=1;align=center;verticalAlign=middle;resizable=0;points=[];autosize=1;strokeColor=none;fillColor=none;fontSize=16;" parent="1" vertex="1">
          <mxGeometry x="-59" y="645" width="27" height="31" as="geometry" />
        </mxCell>
        <mxCell id="KUXI76Em8l5ijPM1_RXj-49" value="1" style="text;html=1;align=center;verticalAlign=middle;resizable=0;points=[];autosize=1;strokeColor=none;fillColor=none;fontSize=16;" parent="1" vertex="1">
          <mxGeometry x="216" y="645" width="27" height="31" as="geometry" />
        </mxCell>
        <mxCell id="KUXI76Em8l5ijPM1_RXj-50" value="2" style="text;html=1;align=center;verticalAlign=middle;resizable=0;points=[];autosize=1;strokeColor=none;fillColor=none;fontSize=16;" parent="1" vertex="1">
          <mxGeometry x="510" y="642" width="27" height="31" as="geometry" />
        </mxCell>
        <mxCell id="KUXI76Em8l5ijPM1_RXj-51" value="3" style="text;html=1;align=center;verticalAlign=middle;resizable=0;points=[];autosize=1;strokeColor=none;fillColor=none;fontSize=16;" parent="1" vertex="1">
          <mxGeometry x="-71" y="878" width="27" height="31" as="geometry" />
        </mxCell>
        <mxCell id="KUXI76Em8l5ijPM1_RXj-52" value="4" style="text;html=1;align=center;verticalAlign=middle;resizable=0;points=[];autosize=1;strokeColor=none;fillColor=none;fontSize=16;" parent="1" vertex="1">
          <mxGeometry x="253.25" y="875" width="27" height="31" as="geometry" />
        </mxCell>
        <mxCell id="KUXI76Em8l5ijPM1_RXj-54" value="" style="rounded=1;whiteSpace=wrap;html=1;fontSize=16;fillColor=none;strokeColor=#FF0000;" parent="1" vertex="1">
          <mxGeometry x="-139" y="-81" width="228.5" height="60" as="geometry" />
        </mxCell>
        <mxCell id="KUXI76Em8l5ijPM1_RXj-55" value="" style="rounded=1;whiteSpace=wrap;html=1;fontSize=16;fillColor=none;strokeColor=#FF0000;" parent="1" vertex="1">
          <mxGeometry x="131" y="-81" width="235" height="60" as="geometry" />
        </mxCell>
        <mxCell id="KUXI76Em8l5ijPM1_RXj-56" value="" style="rounded=1;whiteSpace=wrap;html=1;fontSize=16;fillColor=none;strokeColor=#FF0000;" parent="1" vertex="1">
          <mxGeometry x="429.25" y="-74" width="228.5" height="60" as="geometry" />
        </mxCell>
        <mxCell id="KUXI76Em8l5ijPM1_RXj-57" value="" style="rounded=1;whiteSpace=wrap;html=1;fontSize=16;fillColor=none;strokeColor=#FF0000;" parent="1" vertex="1">
          <mxGeometry x="-139" y="183" width="228.5" height="60" as="geometry" />
        </mxCell>
        <mxCell id="KUXI76Em8l5ijPM1_RXj-58" value="" style="rounded=1;whiteSpace=wrap;html=1;fontSize=16;fillColor=none;strokeColor=#FF0000;" parent="1" vertex="1">
          <mxGeometry x="159.75" y="183" width="228.5" height="60" as="geometry" />
        </mxCell>
        <mxCell id="KUXI76Em8l5ijPM1_RXj-59" value="" style="endArrow=classic;html=1;rounded=0;fontSize=12;startSize=8;endSize=8;edgeStyle=none;curved=1;exitX=1;exitY=1;exitDx=0;exitDy=0;entryX=0.094;entryY=0.129;entryDx=0;entryDy=0;entryPerimeter=0;strokeColor=#009900;" parent="1" source="KUXI76Em8l5ijPM1_RXj-54" target="KUXI76Em8l5ijPM1_RXj-23" edge="1">
          <mxGeometry width="50" height="50" relative="1" as="geometry">
            <mxPoint x="91.5" y="14" as="sourcePoint" />
            <mxPoint x="166.5" y="14" as="targetPoint" />
          </mxGeometry>
        </mxCell>
        <mxCell id="KUXI76Em8l5ijPM1_RXj-60" value="" style="endArrow=classic;html=1;rounded=0;fontSize=12;startSize=8;endSize=8;edgeStyle=none;curved=1;exitX=1;exitY=1;exitDx=0;exitDy=0;entryX=-0.094;entryY=0.032;entryDx=0;entryDy=0;entryPerimeter=0;strokeColor=#009900;" parent="1" source="KUXI76Em8l5ijPM1_RXj-55" target="KUXI76Em8l5ijPM1_RXj-24" edge="1">
          <mxGeometry width="50" height="50" relative="1" as="geometry">
            <mxPoint x="333" y="13" as="sourcePoint" />
            <mxPoint x="504" y="135" as="targetPoint" />
          </mxGeometry>
        </mxCell>
        <mxCell id="KUXI76Em8l5ijPM1_RXj-62" value="" style="endArrow=classic;html=1;rounded=0;fontSize=12;startSize=8;endSize=8;edgeStyle=none;curved=1;exitX=1;exitY=1;exitDx=0;exitDy=0;strokeColor=#009900;" parent="1" source="KUXI76Em8l5ijPM1_RXj-56" edge="1">
          <mxGeometry width="50" height="50" relative="1" as="geometry">
            <mxPoint x="701" y="25" as="sourcePoint" />
            <mxPoint x="798" y="95" as="targetPoint" />
          </mxGeometry>
        </mxCell>
        <mxCell id="KUXI76Em8l5ijPM1_RXj-63" value="" style="endArrow=classic;html=1;rounded=0;fontSize=12;startSize=8;endSize=8;edgeStyle=none;curved=1;entryX=0.063;entryY=0.097;entryDx=0;entryDy=0;entryPerimeter=0;strokeColor=#009900;" parent="1" target="KUXI76Em8l5ijPM1_RXj-25" edge="1">
          <mxGeometry width="50" height="50" relative="1" as="geometry">
            <mxPoint x="-223" y="206" as="sourcePoint" />
            <mxPoint x="-112" y="309" as="targetPoint" />
          </mxGeometry>
        </mxCell>
        <mxCell id="KUXI76Em8l5ijPM1_RXj-64" value="" style="endArrow=classic;html=1;rounded=0;fontSize=12;startSize=8;endSize=8;edgeStyle=none;curved=1;entryX=0.094;entryY=0.226;entryDx=0;entryDy=0;entryPerimeter=0;exitX=1;exitY=1;exitDx=0;exitDy=0;strokeColor=#009900;" parent="1" source="KUXI76Em8l5ijPM1_RXj-57" target="KUXI76Em8l5ijPM1_RXj-26" edge="1">
          <mxGeometry width="50" height="50" relative="1" as="geometry">
            <mxPoint x="74" y="275" as="sourcePoint" />
            <mxPoint x="252" y="404" as="targetPoint" />
          </mxGeometry>
        </mxCell>
        <mxCell id="KUXI76Em8l5ijPM1_RXj-65" value="" style="endArrow=classic;html=1;rounded=0;fontSize=12;startSize=8;endSize=8;edgeStyle=none;curved=1;exitX=1;exitY=1;exitDx=0;exitDy=0;strokeColor=#009900;" parent="1" source="KUXI76Em8l5ijPM1_RXj-58" edge="1">
          <mxGeometry width="50" height="50" relative="1" as="geometry">
            <mxPoint x="405" y="264" as="sourcePoint" />
            <mxPoint x="529" y="346" as="targetPoint" />
          </mxGeometry>
        </mxCell>
        <mxCell id="KUXI76Em8l5ijPM1_RXj-66" value="" style="endArrow=classic;html=1;rounded=0;fontSize=12;startSize=8;endSize=8;edgeStyle=none;curved=1;entryX=0.111;entryY=0.161;entryDx=0;entryDy=0;entryPerimeter=0;strokeColor=#009900;" parent="1" target="KUXI76Em8l5ijPM1_RXj-22" edge="1">
          <mxGeometry width="50" height="50" relative="1" as="geometry">
            <mxPoint x="-187" y="-25" as="sourcePoint" />
            <mxPoint x="-113" y="51" as="targetPoint" />
          </mxGeometry>
        </mxCell>
        <mxCell id="KUXI76Em8l5ijPM1_RXj-67" value="" style="rounded=1;whiteSpace=wrap;html=1;fontSize=16;fillColor=none;strokeColor=#FF0000;" parent="1" vertex="1">
          <mxGeometry x="-159.75" y="465" width="228.5" height="60" as="geometry" />
        </mxCell>
        <mxCell id="KUXI76Em8l5ijPM1_RXj-68" value="" style="rounded=1;whiteSpace=wrap;html=1;fontSize=16;fillColor=none;strokeColor=#FF0000;" parent="1" vertex="1">
          <mxGeometry x="112.5" y="465" width="228.5" height="60" as="geometry" />
        </mxCell>
        <mxCell id="KUXI76Em8l5ijPM1_RXj-69" value="" style="rounded=1;whiteSpace=wrap;html=1;fontSize=16;fillColor=none;strokeColor=#FF0000;" parent="1" vertex="1">
          <mxGeometry x="400.5" y="465" width="228.5" height="60" as="geometry" />
        </mxCell>
        <mxCell id="KUXI76Em8l5ijPM1_RXj-70" value="" style="rounded=1;whiteSpace=wrap;html=1;fontSize=16;fillColor=none;strokeColor=#FF0000;" parent="1" vertex="1">
          <mxGeometry x="-174.5" y="735" width="228.5" height="60" as="geometry" />
        </mxCell>
        <mxCell id="KUXI76Em8l5ijPM1_RXj-71" value="" style="rounded=1;whiteSpace=wrap;html=1;fontSize=16;fillColor=none;strokeColor=#FF0000;" parent="1" vertex="1">
          <mxGeometry x="152.5" y="735" width="228.5" height="60" as="geometry" />
        </mxCell>
        <mxCell id="KUXI76Em8l5ijPM1_RXj-72" value="" style="endArrow=classic;html=1;rounded=0;fontSize=12;startSize=8;endSize=8;edgeStyle=none;curved=1;exitX=1;exitY=1;exitDx=0;exitDy=0;strokeColor=#009900;entryX=0;entryY=-0.032;entryDx=0;entryDy=0;entryPerimeter=0;" parent="1" source="KUXI76Em8l5ijPM1_RXj-67" target="KUXI76Em8l5ijPM1_RXj-49" edge="1">
          <mxGeometry width="50" height="50" relative="1" as="geometry">
            <mxPoint x="408" y="629" as="sourcePoint" />
            <mxPoint x="549" y="732" as="targetPoint" />
          </mxGeometry>
        </mxCell>
        <mxCell id="KUXI76Em8l5ijPM1_RXj-73" value="" style="endArrow=classic;html=1;rounded=0;fontSize=12;startSize=8;endSize=8;edgeStyle=none;curved=1;exitX=1;exitY=1;exitDx=0;exitDy=0;strokeColor=#009900;entryX=-0.037;entryY=0.097;entryDx=0;entryDy=0;entryPerimeter=0;" parent="1" source="KUXI76Em8l5ijPM1_RXj-68" target="KUXI76Em8l5ijPM1_RXj-50" edge="1">
          <mxGeometry width="50" height="50" relative="1" as="geometry">
            <mxPoint x="311" y="540" as="sourcePoint" />
            <mxPoint x="490" y="659" as="targetPoint" />
          </mxGeometry>
        </mxCell>
        <mxCell id="KUXI76Em8l5ijPM1_RXj-74" value="" style="endArrow=classic;html=1;rounded=0;fontSize=12;startSize=8;endSize=8;edgeStyle=none;curved=1;exitX=1;exitY=1;exitDx=0;exitDy=0;strokeColor=#009900;" parent="1" source="KUXI76Em8l5ijPM1_RXj-69" edge="1">
          <mxGeometry width="50" height="50" relative="1" as="geometry">
            <mxPoint x="625" y="559" as="sourcePoint" />
            <mxPoint x="774" y="646" as="targetPoint" />
          </mxGeometry>
        </mxCell>
        <mxCell id="KUXI76Em8l5ijPM1_RXj-75" value="" style="endArrow=classic;html=1;rounded=0;fontSize=12;startSize=8;endSize=8;edgeStyle=none;curved=1;strokeColor=#009900;entryX=0.074;entryY=-0.032;entryDx=0;entryDy=0;entryPerimeter=0;" parent="1" target="KUXI76Em8l5ijPM1_RXj-51" edge="1">
          <mxGeometry width="50" height="50" relative="1" as="geometry">
            <mxPoint x="-227" y="779" as="sourcePoint" />
            <mxPoint x="-131" y="865" as="targetPoint" />
          </mxGeometry>
        </mxCell>
        <mxCell id="KUXI76Em8l5ijPM1_RXj-76" value="" style="endArrow=classic;html=1;rounded=0;fontSize=12;startSize=8;endSize=8;edgeStyle=none;curved=1;strokeColor=#009900;entryX=0.074;entryY=0.065;entryDx=0;entryDy=0;entryPerimeter=0;exitX=0.974;exitY=1.05;exitDx=0;exitDy=0;exitPerimeter=0;" parent="1" source="KUXI76Em8l5ijPM1_RXj-70" target="KUXI76Em8l5ijPM1_RXj-52" edge="1">
          <mxGeometry width="50" height="50" relative="1" as="geometry">
            <mxPoint x="23" y="834" as="sourcePoint" />
            <mxPoint x="193" y="932" as="targetPoint" />
          </mxGeometry>
        </mxCell>
        <mxCell id="KUXI76Em8l5ijPM1_RXj-77" value="" style="endArrow=classic;html=1;rounded=0;fontSize=12;startSize=8;endSize=8;edgeStyle=none;curved=1;strokeColor=#009900;exitX=1;exitY=1;exitDx=0;exitDy=0;" parent="1" source="KUXI76Em8l5ijPM1_RXj-71" edge="1">
          <mxGeometry width="50" height="50" relative="1" as="geometry">
            <mxPoint x="388.25" y="821" as="sourcePoint" />
            <mxPoint x="496" y="882" as="targetPoint" />
          </mxGeometry>
        </mxCell>
        <mxCell id="KUXI76Em8l5ijPM1_RXj-79" value="" style="endArrow=classic;html=1;rounded=0;fontSize=12;startSize=8;endSize=8;edgeStyle=none;curved=1;strokeColor=#009900;entryX=0;entryY=0.032;entryDx=0;entryDy=0;entryPerimeter=0;" parent="1" target="KUXI76Em8l5ijPM1_RXj-48" edge="1">
          <mxGeometry width="50" height="50" relative="1" as="geometry">
            <mxPoint x="-211" y="543" as="sourcePoint" />
            <mxPoint x="-129" y="606" as="targetPoint" />
          </mxGeometry>
        </mxCell>
        <mxCell id="KUXI76Em8l5ijPM1_RXj-84" value="flow : true" style="text;html=1;align=center;verticalAlign=middle;resizable=0;points=[];autosize=1;strokeColor=none;fillColor=none;fontSize=16;" parent="1" vertex="1">
          <mxGeometry x="-261.5" y="-206" width="87" height="31" as="geometry" />
        </mxCell>
        <mxCell id="KUXI76Em8l5ijPM1_RXj-85" value="count가 minus 되는 상황&lt;br&gt;in-&amp;gt;out으로" style="text;html=1;align=center;verticalAlign=middle;resizable=0;points=[];autosize=1;strokeColor=none;fillColor=none;fontSize=16;" parent="1" vertex="1">
          <mxGeometry x="-264" y="-161" width="193" height="50" as="geometry" />
        </mxCell>
        <mxCell id="KUXI76Em8l5ijPM1_RXj-86" value="count가 plus 되는 상황&lt;br&gt;out-&amp;gt;in으로" style="text;html=1;align=center;verticalAlign=middle;resizable=0;points=[];autosize=1;strokeColor=none;fillColor=none;fontSize=16;" parent="1" vertex="1">
          <mxGeometry x="-257" y="378" width="180" height="50" as="geometry" />
        </mxCell>
        <mxCell id="KUXI76Em8l5ijPM1_RXj-87" value="count_minus_signal :" style="text;html=1;align=center;verticalAlign=middle;resizable=0;points=[];autosize=1;strokeColor=none;fillColor=none;fontSize=16;" parent="1" vertex="1">
          <mxGeometry x="-200" y="99" width="168" height="31" as="geometry" />
        </mxCell>
        <mxCell id="KUXI76Em8l5ijPM1_RXj-91" value="count_plus_signal :" style="text;html=1;align=center;verticalAlign=middle;resizable=0;points=[];autosize=1;strokeColor=none;fillColor=none;fontSize=16;" parent="1" vertex="1">
          <mxGeometry x="-208" y="645" width="155" height="31" as="geometry" />
        </mxCell>
        <mxCell id="KUXI76Em8l5ijPM1_RXj-92" value="1stage" style="text;html=1;align=center;verticalAlign=middle;resizable=0;points=[];autosize=1;strokeColor=none;fillColor=none;fontSize=16;" parent="1" vertex="1">
          <mxGeometry x="-59" y="-161" width="66" height="31" as="geometry" />
        </mxCell>
        <mxCell id="KUXI76Em8l5ijPM1_RXj-93" value="2stage" style="text;html=1;align=center;verticalAlign=middle;resizable=0;points=[];autosize=1;strokeColor=none;fillColor=none;fontSize=16;" parent="1" vertex="1">
          <mxGeometry x="218" y="-161" width="66" height="31" as="geometry" />
        </mxCell>
        <mxCell id="KUXI76Em8l5ijPM1_RXj-94" value="3stage" style="text;html=1;align=center;verticalAlign=middle;resizable=0;points=[];autosize=1;strokeColor=none;fillColor=none;fontSize=16;" parent="1" vertex="1">
          <mxGeometry x="523" y="-165" width="66" height="31" as="geometry" />
        </mxCell>
        <mxCell id="KUXI76Em8l5ijPM1_RXj-95" value="4stage" style="text;html=1;align=center;verticalAlign=middle;resizable=0;points=[];autosize=1;strokeColor=none;fillColor=none;fontSize=16;" parent="1" vertex="1">
          <mxGeometry x="-64.5" y="125" width="66" height="31" as="geometry" />
        </mxCell>
        <mxCell id="KUXI76Em8l5ijPM1_RXj-96" value="5stage" style="text;html=1;align=center;verticalAlign=middle;resizable=0;points=[];autosize=1;strokeColor=none;fillColor=none;fontSize=16;" parent="1" vertex="1">
          <mxGeometry x="248" y="123" width="66" height="31" as="geometry" />
        </mxCell>
        <mxCell id="KUXI76Em8l5ijPM1_RXj-97" value="4stage" style="text;html=1;align=center;verticalAlign=middle;resizable=0;points=[];autosize=1;strokeColor=none;fillColor=none;fontSize=16;" parent="1" vertex="1">
          <mxGeometry x="-78.5" y="690" width="66" height="31" as="geometry" />
        </mxCell>
        <mxCell id="KUXI76Em8l5ijPM1_RXj-98" value="5stage" style="text;html=1;align=center;verticalAlign=middle;resizable=0;points=[];autosize=1;strokeColor=none;fillColor=none;fontSize=16;" parent="1" vertex="1">
          <mxGeometry x="243" y="690" width="66" height="31" as="geometry" />
        </mxCell>
        <mxCell id="KUXI76Em8l5ijPM1_RXj-99" value="1stage" style="text;html=1;align=center;verticalAlign=middle;resizable=0;points=[];autosize=1;strokeColor=none;fillColor=none;fontSize=16;" parent="1" vertex="1">
          <mxGeometry x="-77" y="412" width="66" height="31" as="geometry" />
        </mxCell>
        <mxCell id="KUXI76Em8l5ijPM1_RXj-100" value="2stage" style="text;html=1;align=center;verticalAlign=middle;resizable=0;points=[];autosize=1;strokeColor=none;fillColor=none;fontSize=16;" parent="1" vertex="1">
          <mxGeometry x="206" y="408" width="66" height="31" as="geometry" />
        </mxCell>
        <mxCell id="KUXI76Em8l5ijPM1_RXj-101" value="3stage" style="text;html=1;align=center;verticalAlign=middle;resizable=0;points=[];autosize=1;strokeColor=none;fillColor=none;fontSize=16;" parent="1" vertex="1">
          <mxGeometry x="498" y="412" width="66" height="31" as="geometry" />
        </mxCell>
        <mxCell id="KUXI76Em8l5ijPM1_RXj-104" value="" style="endArrow=classic;html=1;rounded=0;fontSize=12;startSize=8;endSize=8;edgeStyle=none;curved=1;strokeColor=#FF8000;" parent="1" edge="1">
          <mxGeometry width="50" height="50" relative="1" as="geometry">
            <mxPoint x="506" y="38" as="sourcePoint" />
            <mxPoint x="591" y="38" as="targetPoint" />
          </mxGeometry>
        </mxCell>
        <mxCell id="KUXI76Em8l5ijPM1_RXj-105" value="" style="endArrow=classic;html=1;rounded=0;fontSize=12;startSize=8;endSize=8;edgeStyle=none;curved=1;strokeColor=#FF8000;" parent="1" edge="1">
          <mxGeometry width="50" height="50" relative="1" as="geometry">
            <mxPoint x="-67.25" y="287" as="sourcePoint" />
            <mxPoint x="17.75" y="287" as="targetPoint" />
          </mxGeometry>
        </mxCell>
        <mxCell id="KUXI76Em8l5ijPM1_RXj-106" value="" style="endArrow=classic;html=1;rounded=0;fontSize=12;startSize=8;endSize=8;edgeStyle=none;curved=1;strokeColor=#FF8000;" parent="1" edge="1">
          <mxGeometry width="50" height="50" relative="1" as="geometry">
            <mxPoint x="571" y="574" as="sourcePoint" />
            <mxPoint x="487" y="574" as="targetPoint" />
          </mxGeometry>
        </mxCell>
        <mxCell id="KUXI76Em8l5ijPM1_RXj-107" value="" style="endArrow=classic;html=1;rounded=0;fontSize=12;startSize=8;endSize=8;edgeStyle=none;curved=1;strokeColor=#FF8000;" parent="1" edge="1">
          <mxGeometry width="50" height="50" relative="1" as="geometry">
            <mxPoint x="-15" y="833" as="sourcePoint" />
            <mxPoint x="-99" y="833" as="targetPoint" />
          </mxGeometry>
        </mxCell>
        <mxCell id="KUXI76Em8l5ijPM1_RXj-108" value="bottom_signal : true" style="text;html=1;align=center;verticalAlign=middle;resizable=0;points=[];autosize=1;strokeColor=none;fillColor=none;fontSize=16;" parent="1" vertex="1">
          <mxGeometry x="460" y="6" width="159" height="31" as="geometry" />
        </mxCell>
        <mxCell id="KUXI76Em8l5ijPM1_RXj-109" value="bottom_signal : false" style="text;html=1;align=center;verticalAlign=middle;resizable=0;points=[];autosize=1;strokeColor=none;fillColor=none;fontSize=16;" parent="1" vertex="1">
          <mxGeometry x="-113.5" y="18" width="165" height="31" as="geometry" />
        </mxCell>
        <mxCell id="KUXI76Em8l5ijPM1_RXj-110" value="bottom_signal : true" style="text;html=1;align=center;verticalAlign=middle;resizable=0;points=[];autosize=1;strokeColor=none;fillColor=none;fontSize=16;" parent="1" vertex="1">
          <mxGeometry x="444" y="543" width="159" height="31" as="geometry" />
        </mxCell>
        <mxCell id="LOUUTar-mrUaCr4SPNHm-1" value="" style="endArrow=classic;html=1;rounded=0;fontSize=12;startSize=8;endSize=8;edgeStyle=none;curved=1;strokeColor=#FF0000;exitX=0.5;exitY=1;exitDx=0;exitDy=0;entryX=0.531;entryY=0.065;entryDx=0;entryDy=0;entryPerimeter=0;" parent="1" source="KUXI76Em8l5ijPM1_RXj-55" target="KUXI76Em8l5ijPM1_RXj-23" edge="1">
          <mxGeometry width="50" height="50" relative="1" as="geometry">
            <mxPoint x="-364" y="9" as="sourcePoint" />
            <mxPoint x="-346" y="136" as="targetPoint" />
          </mxGeometry>
        </mxCell>
        <mxCell id="LOUUTar-mrUaCr4SPNHm-2" value="" style="endArrow=classic;html=1;rounded=0;fontSize=12;startSize=8;endSize=8;edgeStyle=none;curved=1;strokeColor=#FF0000;exitX=0.5;exitY=1;exitDx=0;exitDy=0;" parent="1" source="KUXI76Em8l5ijPM1_RXj-56" target="KUXI76Em8l5ijPM1_RXj-24" edge="1">
          <mxGeometry width="50" height="50" relative="1" as="geometry">
            <mxPoint x="259" y="-11" as="sourcePoint" />
            <mxPoint x="259" y="109" as="targetPoint" />
          </mxGeometry>
        </mxCell>
        <mxCell id="LOUUTar-mrUaCr4SPNHm-3" value="" style="endArrow=classic;html=1;rounded=0;fontSize=12;startSize=8;endSize=8;edgeStyle=none;curved=1;strokeColor=#FF0000;exitX=0.5;exitY=1;exitDx=0;exitDy=0;entryX=0.531;entryY=0.065;entryDx=0;entryDy=0;entryPerimeter=0;" parent="1" source="KUXI76Em8l5ijPM1_RXj-57" target="KUXI76Em8l5ijPM1_RXj-25" edge="1">
          <mxGeometry width="50" height="50" relative="1" as="geometry">
            <mxPoint x="-339" y="211" as="sourcePoint" />
            <mxPoint x="-338" y="324" as="targetPoint" />
          </mxGeometry>
        </mxCell>
        <mxCell id="LOUUTar-mrUaCr4SPNHm-4" value="" style="endArrow=classic;html=1;rounded=0;fontSize=12;startSize=8;endSize=8;edgeStyle=none;curved=1;strokeColor=#FF0000;exitX=0.5;exitY=1;exitDx=0;exitDy=0;" parent="1" source="KUXI76Em8l5ijPM1_RXj-58" target="KUXI76Em8l5ijPM1_RXj-26" edge="1">
          <mxGeometry width="50" height="50" relative="1" as="geometry">
            <mxPoint x="-15" y="253" as="sourcePoint" />
            <mxPoint x="-14" y="344" as="targetPoint" />
          </mxGeometry>
        </mxCell>
        <mxCell id="LOUUTar-mrUaCr4SPNHm-5" value="" style="endArrow=classic;html=1;rounded=0;fontSize=12;startSize=8;endSize=8;edgeStyle=none;curved=1;strokeColor=#FF0000;exitX=0.5;exitY=1;exitDx=0;exitDy=0;entryX=0.444;entryY=0.032;entryDx=0;entryDy=0;entryPerimeter=0;" parent="1" source="KUXI76Em8l5ijPM1_RXj-68" target="KUXI76Em8l5ijPM1_RXj-49" edge="1">
          <mxGeometry width="50" height="50" relative="1" as="geometry">
            <mxPoint x="928" y="513" as="sourcePoint" />
            <mxPoint x="286" y="342" as="targetPoint" />
          </mxGeometry>
        </mxCell>
        <mxCell id="LOUUTar-mrUaCr4SPNHm-6" value="" style="endArrow=classic;html=1;rounded=0;fontSize=12;startSize=8;endSize=8;edgeStyle=none;curved=1;strokeColor=#FF0000;exitX=0.5;exitY=1;exitDx=0;exitDy=0;entryX=0.333;entryY=0.032;entryDx=0;entryDy=0;entryPerimeter=0;" parent="1" source="KUXI76Em8l5ijPM1_RXj-69" target="KUXI76Em8l5ijPM1_RXj-50" edge="1">
          <mxGeometry width="50" height="50" relative="1" as="geometry">
            <mxPoint x="237" y="535" as="sourcePoint" />
            <mxPoint x="238" y="656" as="targetPoint" />
          </mxGeometry>
        </mxCell>
        <mxCell id="LOUUTar-mrUaCr4SPNHm-7" value="" style="endArrow=classic;html=1;rounded=0;fontSize=12;startSize=8;endSize=8;edgeStyle=none;curved=1;strokeColor=#FF0000;exitX=0.5;exitY=1;exitDx=0;exitDy=0;entryX=0.37;entryY=0.065;entryDx=0;entryDy=0;entryPerimeter=0;" parent="1" source="KUXI76Em8l5ijPM1_RXj-70" target="KUXI76Em8l5ijPM1_RXj-51" edge="1">
          <mxGeometry width="50" height="50" relative="1" as="geometry">
            <mxPoint x="525" y="535" as="sourcePoint" />
            <mxPoint x="529" y="653" as="targetPoint" />
          </mxGeometry>
        </mxCell>
        <mxCell id="LOUUTar-mrUaCr4SPNHm-8" value="" style="endArrow=classic;html=1;rounded=0;fontSize=12;startSize=8;endSize=8;edgeStyle=none;curved=1;strokeColor=#FF0000;exitX=0.5;exitY=1;exitDx=0;exitDy=0;" parent="1" source="KUXI76Em8l5ijPM1_RXj-71" target="KUXI76Em8l5ijPM1_RXj-52" edge="1">
          <mxGeometry width="50" height="50" relative="1" as="geometry">
            <mxPoint x="-50" y="805" as="sourcePoint" />
            <mxPoint x="-51" y="890" as="targetPoint" />
          </mxGeometry>
        </mxCell>
        <mxCell id="TLwpCwCnEkrLmzgMQMTA-3" value="into 상황" style="text;html=1;align=center;verticalAlign=middle;resizable=0;points=[];autosize=1;strokeColor=none;fillColor=none;" vertex="1" parent="1">
          <mxGeometry x="-250" y="1020" width="65" height="26" as="geometry" />
        </mxCell>
        <mxCell id="TLwpCwCnEkrLmzgMQMTA-69" value="" style="group" vertex="1" connectable="0" parent="1">
          <mxGeometry x="-235" y="1540" width="541" height="107" as="geometry" />
        </mxCell>
        <mxCell id="TLwpCwCnEkrLmzgMQMTA-70" value="" style="group" vertex="1" connectable="0" parent="TLwpCwCnEkrLmzgMQMTA-69">
          <mxGeometry width="541" height="107" as="geometry" />
        </mxCell>
        <mxCell id="TLwpCwCnEkrLmzgMQMTA-71" value="" style="group" vertex="1" connectable="0" parent="TLwpCwCnEkrLmzgMQMTA-70">
          <mxGeometry width="541" height="107" as="geometry" />
        </mxCell>
        <mxCell id="TLwpCwCnEkrLmzgMQMTA-72" value="" style="whiteSpace=wrap;html=1;" vertex="1" parent="TLwpCwCnEkrLmzgMQMTA-71">
          <mxGeometry width="541" height="107" as="geometry" />
        </mxCell>
        <mxCell id="TLwpCwCnEkrLmzgMQMTA-73" value="&lt;font style=&quot;font-size: 23px;&quot;&gt;set&lt;/font&gt;" style="text;html=1;align=center;verticalAlign=middle;resizable=0;points=[];autosize=1;strokeColor=none;fillColor=none;" vertex="1" parent="TLwpCwCnEkrLmzgMQMTA-71">
          <mxGeometry x="447" y="9" width="49" height="40" as="geometry" />
        </mxCell>
        <mxCell id="TLwpCwCnEkrLmzgMQMTA-74" value="&lt;font style=&quot;font-size: 23px;&quot;&gt;finish&lt;/font&gt;" style="text;html=1;align=center;verticalAlign=middle;resizable=0;points=[];autosize=1;strokeColor=none;fillColor=none;" vertex="1" parent="TLwpCwCnEkrLmzgMQMTA-71">
          <mxGeometry x="302" y="9" width="72" height="40" as="geometry" />
        </mxCell>
        <mxCell id="TLwpCwCnEkrLmzgMQMTA-75" value="&lt;font style=&quot;font-size: 23px;&quot;&gt;0&lt;/font&gt;" style="text;html=1;align=center;verticalAlign=middle;resizable=0;points=[];autosize=1;strokeColor=none;fillColor=none;" vertex="1" parent="TLwpCwCnEkrLmzgMQMTA-71">
          <mxGeometry x="456" y="63" width="31" height="40" as="geometry" />
        </mxCell>
        <mxCell id="TLwpCwCnEkrLmzgMQMTA-76" value="&lt;font style=&quot;font-size: 23px;&quot;&gt;0&lt;/font&gt;" style="text;html=1;align=center;verticalAlign=middle;resizable=0;points=[];autosize=1;strokeColor=none;fillColor=none;" vertex="1" parent="TLwpCwCnEkrLmzgMQMTA-71">
          <mxGeometry x="322.5" y="63" width="31" height="40" as="geometry" />
        </mxCell>
        <mxCell id="TLwpCwCnEkrLmzgMQMTA-77" value="" style="endArrow=none;html=1;rounded=0;exitX=0.75;exitY=1;exitDx=0;exitDy=0;entryX=0.75;entryY=0;entryDx=0;entryDy=0;" edge="1" parent="TLwpCwCnEkrLmzgMQMTA-71" source="TLwpCwCnEkrLmzgMQMTA-72" target="TLwpCwCnEkrLmzgMQMTA-72">
          <mxGeometry width="50" height="50" relative="1" as="geometry">
            <mxPoint x="472.09466437177286" y="76.68333333333334" as="sourcePoint" />
            <mxPoint x="518.6523235800345" y="-12.483333333333334" as="targetPoint" />
          </mxGeometry>
        </mxCell>
        <mxCell id="TLwpCwCnEkrLmzgMQMTA-78" value="" style="endArrow=none;html=1;rounded=0;exitX=0.5;exitY=1;exitDx=0;exitDy=0;entryX=0.5;entryY=0;entryDx=0;entryDy=0;" edge="1" parent="TLwpCwCnEkrLmzgMQMTA-71" source="TLwpCwCnEkrLmzgMQMTA-72" target="TLwpCwCnEkrLmzgMQMTA-72">
          <mxGeometry width="50" height="50" relative="1" as="geometry">
            <mxPoint x="415.2943201376936" y="124.83333333333334" as="sourcePoint" />
            <mxPoint x="415.2943201376936" y="17.833333333333336" as="targetPoint" />
          </mxGeometry>
        </mxCell>
        <mxCell id="TLwpCwCnEkrLmzgMQMTA-79" value="" style="endArrow=none;html=1;rounded=0;exitX=0.25;exitY=1;exitDx=0;exitDy=0;entryX=0.25;entryY=0;entryDx=0;entryDy=0;" edge="1" parent="TLwpCwCnEkrLmzgMQMTA-71" source="TLwpCwCnEkrLmzgMQMTA-72" target="TLwpCwCnEkrLmzgMQMTA-72">
          <mxGeometry width="50" height="50" relative="1" as="geometry">
            <mxPoint x="280.27710843373495" y="124.83333333333334" as="sourcePoint" />
            <mxPoint x="280.27710843373495" y="17.833333333333336" as="targetPoint" />
          </mxGeometry>
        </mxCell>
        <mxCell id="TLwpCwCnEkrLmzgMQMTA-80" value="" style="endArrow=none;html=1;rounded=0;exitX=0;exitY=0.5;exitDx=0;exitDy=0;entryX=1;entryY=0.5;entryDx=0;entryDy=0;" edge="1" parent="TLwpCwCnEkrLmzgMQMTA-71" source="TLwpCwCnEkrLmzgMQMTA-72" target="TLwpCwCnEkrLmzgMQMTA-72">
          <mxGeometry width="50" height="50" relative="1" as="geometry">
            <mxPoint x="472.09466437177286" y="43" as="sourcePoint" />
            <mxPoint x="518.6523235800345" y="-7" as="targetPoint" />
          </mxGeometry>
        </mxCell>
        <mxCell id="TLwpCwCnEkrLmzgMQMTA-83" value="" style="group" vertex="1" connectable="0" parent="1">
          <mxGeometry x="303" y="1540" width="521" height="107" as="geometry" />
        </mxCell>
        <mxCell id="TLwpCwCnEkrLmzgMQMTA-55" value="" style="whiteSpace=wrap;html=1;" vertex="1" parent="TLwpCwCnEkrLmzgMQMTA-83">
          <mxGeometry x="3" width="516.0000000000001" height="107" as="geometry" />
        </mxCell>
        <mxCell id="TLwpCwCnEkrLmzgMQMTA-56" value="&lt;font style=&quot;font-size: 23px;&quot;&gt;sensor_into&lt;/font&gt;" style="text;html=1;align=center;verticalAlign=middle;resizable=0;points=[];autosize=1;strokeColor=none;fillColor=none;" vertex="1" parent="TLwpCwCnEkrLmzgMQMTA-83">
          <mxGeometry x="384" y="8" width="137" height="40" as="geometry" />
        </mxCell>
        <mxCell id="TLwpCwCnEkrLmzgMQMTA-57" value="&lt;font style=&quot;font-size: 23px;&quot;&gt;sensor_out&lt;/font&gt;" style="text;html=1;align=center;verticalAlign=middle;resizable=0;points=[];autosize=1;strokeColor=none;fillColor=none;" vertex="1" parent="TLwpCwCnEkrLmzgMQMTA-83">
          <mxGeometry x="258" y="8" width="132" height="40" as="geometry" />
        </mxCell>
        <mxCell id="TLwpCwCnEkrLmzgMQMTA-58" value="&lt;font style=&quot;font-size: 23px;&quot;&gt;vector_into&lt;/font&gt;" style="text;html=1;align=center;verticalAlign=middle;resizable=0;points=[];autosize=1;strokeColor=none;fillColor=none;" vertex="1" parent="TLwpCwCnEkrLmzgMQMTA-83">
          <mxGeometry x="130" y="8" width="131" height="40" as="geometry" />
        </mxCell>
        <mxCell id="TLwpCwCnEkrLmzgMQMTA-59" value="&lt;font style=&quot;font-size: 23px;&quot;&gt;vector_out&lt;/font&gt;" style="text;html=1;align=center;verticalAlign=middle;resizable=0;points=[];autosize=1;strokeColor=none;fillColor=none;" vertex="1" parent="TLwpCwCnEkrLmzgMQMTA-83">
          <mxGeometry y="8" width="125" height="40" as="geometry" />
        </mxCell>
        <mxCell id="TLwpCwCnEkrLmzgMQMTA-60" value="&lt;font style=&quot;font-size: 23px;&quot;&gt;1&lt;/font&gt;" style="text;html=1;align=center;verticalAlign=middle;resizable=0;points=[];autosize=1;strokeColor=none;fillColor=none;" vertex="1" parent="TLwpCwCnEkrLmzgMQMTA-83">
          <mxGeometry x="437" y="63" width="31" height="40" as="geometry" />
        </mxCell>
        <mxCell id="TLwpCwCnEkrLmzgMQMTA-61" value="&lt;font style=&quot;font-size: 23px;&quot;&gt;0&lt;/font&gt;" style="text;html=1;align=center;verticalAlign=middle;resizable=0;points=[];autosize=1;strokeColor=none;fillColor=none;" vertex="1" parent="TLwpCwCnEkrLmzgMQMTA-83">
          <mxGeometry x="308.5" y="63" width="31" height="40" as="geometry" />
        </mxCell>
        <mxCell id="TLwpCwCnEkrLmzgMQMTA-62" value="&lt;font style=&quot;font-size: 23px;&quot;&gt;0&lt;/font&gt;" style="text;html=1;align=center;verticalAlign=middle;resizable=0;points=[];autosize=1;strokeColor=none;fillColor=none;" vertex="1" parent="TLwpCwCnEkrLmzgMQMTA-83">
          <mxGeometry x="180" y="63" width="31" height="40" as="geometry" />
        </mxCell>
        <mxCell id="TLwpCwCnEkrLmzgMQMTA-63" value="&lt;font style=&quot;font-size: 23px;&quot;&gt;0&lt;/font&gt;" style="text;html=1;align=center;verticalAlign=middle;resizable=0;points=[];autosize=1;strokeColor=none;fillColor=none;" vertex="1" parent="TLwpCwCnEkrLmzgMQMTA-83">
          <mxGeometry x="47" y="63" width="31" height="40" as="geometry" />
        </mxCell>
        <mxCell id="TLwpCwCnEkrLmzgMQMTA-65" value="" style="endArrow=none;html=1;rounded=0;exitX=0.75;exitY=1;exitDx=0;exitDy=0;entryX=0.75;entryY=0;entryDx=0;entryDy=0;" edge="1" parent="TLwpCwCnEkrLmzgMQMTA-83" source="TLwpCwCnEkrLmzgMQMTA-55" target="TLwpCwCnEkrLmzgMQMTA-55">
          <mxGeometry width="50" height="50" relative="1" as="geometry">
            <mxPoint x="751.7788296041308" y="1556.6833333333334" as="sourcePoint" />
            <mxPoint x="796.1850258175559" y="1467.5166666666664" as="targetPoint" />
          </mxGeometry>
        </mxCell>
        <mxCell id="TLwpCwCnEkrLmzgMQMTA-64" value="" style="endArrow=none;html=1;rounded=0;exitX=0;exitY=0.5;exitDx=0;exitDy=0;entryX=1;entryY=0.5;entryDx=0;entryDy=0;" edge="1" parent="TLwpCwCnEkrLmzgMQMTA-83" source="TLwpCwCnEkrLmzgMQMTA-55" target="TLwpCwCnEkrLmzgMQMTA-55">
          <mxGeometry width="50" height="50" relative="1" as="geometry">
            <mxPoint x="1053.7788296041308" y="3002" as="sourcePoint" />
            <mxPoint x="1098.185025817556" y="2952" as="targetPoint" />
          </mxGeometry>
        </mxCell>
        <mxCell id="TLwpCwCnEkrLmzgMQMTA-66" value="" style="endArrow=none;html=1;rounded=0;exitX=0.5;exitY=1;exitDx=0;exitDy=0;entryX=0.5;entryY=0;entryDx=0;entryDy=0;" edge="1" parent="TLwpCwCnEkrLmzgMQMTA-83" source="TLwpCwCnEkrLmzgMQMTA-55" target="TLwpCwCnEkrLmzgMQMTA-55">
          <mxGeometry width="50" height="50" relative="1" as="geometry">
            <mxPoint x="999.6032702237521" y="3083.833333333333" as="sourcePoint" />
            <mxPoint x="999.6032702237521" y="2976.833333333333" as="targetPoint" />
          </mxGeometry>
        </mxCell>
        <mxCell id="TLwpCwCnEkrLmzgMQMTA-67" value="" style="endArrow=none;html=1;rounded=0;exitX=0.25;exitY=1;exitDx=0;exitDy=0;entryX=0.25;entryY=0;entryDx=0;entryDy=0;" edge="1" parent="TLwpCwCnEkrLmzgMQMTA-83" source="TLwpCwCnEkrLmzgMQMTA-55" target="TLwpCwCnEkrLmzgMQMTA-55">
          <mxGeometry width="50" height="50" relative="1" as="geometry">
            <mxPoint x="870.8253012048193" y="3083.833333333333" as="sourcePoint" />
            <mxPoint x="870.8253012048193" y="2976.833333333333" as="targetPoint" />
          </mxGeometry>
        </mxCell>
        <mxCell id="TLwpCwCnEkrLmzgMQMTA-84" value="" style="rounded=1;whiteSpace=wrap;html=1;fontSize=16;fillColor=none;strokeColor=#FF0000;" vertex="1" parent="1">
          <mxGeometry x="17.25" y="1417" width="228.5" height="60" as="geometry" />
        </mxCell>
        <mxCell id="TLwpCwCnEkrLmzgMQMTA-86" value="" style="group" vertex="1" connectable="0" parent="1">
          <mxGeometry x="-225" y="1960" width="541" height="107" as="geometry" />
        </mxCell>
        <mxCell id="TLwpCwCnEkrLmzgMQMTA-87" value="" style="group" vertex="1" connectable="0" parent="TLwpCwCnEkrLmzgMQMTA-86">
          <mxGeometry width="541" height="107" as="geometry" />
        </mxCell>
        <mxCell id="TLwpCwCnEkrLmzgMQMTA-88" value="" style="group" vertex="1" connectable="0" parent="TLwpCwCnEkrLmzgMQMTA-87">
          <mxGeometry width="541" height="107" as="geometry" />
        </mxCell>
        <mxCell id="TLwpCwCnEkrLmzgMQMTA-89" value="" style="whiteSpace=wrap;html=1;" vertex="1" parent="TLwpCwCnEkrLmzgMQMTA-88">
          <mxGeometry width="541" height="107" as="geometry" />
        </mxCell>
        <mxCell id="TLwpCwCnEkrLmzgMQMTA-90" value="&lt;font style=&quot;font-size: 23px;&quot;&gt;set&lt;/font&gt;" style="text;html=1;align=center;verticalAlign=middle;resizable=0;points=[];autosize=1;strokeColor=none;fillColor=none;" vertex="1" parent="TLwpCwCnEkrLmzgMQMTA-88">
          <mxGeometry x="447" y="9" width="49" height="40" as="geometry" />
        </mxCell>
        <mxCell id="TLwpCwCnEkrLmzgMQMTA-91" value="&lt;font style=&quot;font-size: 23px;&quot;&gt;finish&lt;/font&gt;" style="text;html=1;align=center;verticalAlign=middle;resizable=0;points=[];autosize=1;strokeColor=none;fillColor=none;" vertex="1" parent="TLwpCwCnEkrLmzgMQMTA-88">
          <mxGeometry x="302" y="9" width="72" height="40" as="geometry" />
        </mxCell>
        <mxCell id="TLwpCwCnEkrLmzgMQMTA-92" value="&lt;font style=&quot;font-size: 23px;&quot;&gt;0&lt;/font&gt;" style="text;html=1;align=center;verticalAlign=middle;resizable=0;points=[];autosize=1;strokeColor=none;fillColor=none;" vertex="1" parent="TLwpCwCnEkrLmzgMQMTA-88">
          <mxGeometry x="456" y="63" width="31" height="40" as="geometry" />
        </mxCell>
        <mxCell id="TLwpCwCnEkrLmzgMQMTA-93" value="&lt;font style=&quot;font-size: 23px;&quot;&gt;0&lt;/font&gt;" style="text;html=1;align=center;verticalAlign=middle;resizable=0;points=[];autosize=1;strokeColor=none;fillColor=none;" vertex="1" parent="TLwpCwCnEkrLmzgMQMTA-88">
          <mxGeometry x="322.5" y="63" width="31" height="40" as="geometry" />
        </mxCell>
        <mxCell id="TLwpCwCnEkrLmzgMQMTA-94" value="" style="endArrow=none;html=1;rounded=0;exitX=0.75;exitY=1;exitDx=0;exitDy=0;entryX=0.75;entryY=0;entryDx=0;entryDy=0;" edge="1" parent="TLwpCwCnEkrLmzgMQMTA-88" source="TLwpCwCnEkrLmzgMQMTA-89" target="TLwpCwCnEkrLmzgMQMTA-89">
          <mxGeometry width="50" height="50" relative="1" as="geometry">
            <mxPoint x="472.09466437177286" y="76.68333333333334" as="sourcePoint" />
            <mxPoint x="518.6523235800345" y="-12.483333333333334" as="targetPoint" />
          </mxGeometry>
        </mxCell>
        <mxCell id="TLwpCwCnEkrLmzgMQMTA-95" value="" style="endArrow=none;html=1;rounded=0;exitX=0.5;exitY=1;exitDx=0;exitDy=0;entryX=0.5;entryY=0;entryDx=0;entryDy=0;" edge="1" parent="TLwpCwCnEkrLmzgMQMTA-88" source="TLwpCwCnEkrLmzgMQMTA-89" target="TLwpCwCnEkrLmzgMQMTA-89">
          <mxGeometry width="50" height="50" relative="1" as="geometry">
            <mxPoint x="415.2943201376936" y="124.83333333333334" as="sourcePoint" />
            <mxPoint x="415.2943201376936" y="17.833333333333336" as="targetPoint" />
          </mxGeometry>
        </mxCell>
        <mxCell id="TLwpCwCnEkrLmzgMQMTA-96" value="" style="endArrow=none;html=1;rounded=0;exitX=0.25;exitY=1;exitDx=0;exitDy=0;entryX=0.25;entryY=0;entryDx=0;entryDy=0;" edge="1" parent="TLwpCwCnEkrLmzgMQMTA-88" source="TLwpCwCnEkrLmzgMQMTA-89" target="TLwpCwCnEkrLmzgMQMTA-89">
          <mxGeometry width="50" height="50" relative="1" as="geometry">
            <mxPoint x="280.27710843373495" y="124.83333333333334" as="sourcePoint" />
            <mxPoint x="280.27710843373495" y="17.833333333333336" as="targetPoint" />
          </mxGeometry>
        </mxCell>
        <mxCell id="TLwpCwCnEkrLmzgMQMTA-97" value="" style="endArrow=none;html=1;rounded=0;exitX=0;exitY=0.5;exitDx=0;exitDy=0;entryX=1;entryY=0.5;entryDx=0;entryDy=0;" edge="1" parent="TLwpCwCnEkrLmzgMQMTA-88" source="TLwpCwCnEkrLmzgMQMTA-89" target="TLwpCwCnEkrLmzgMQMTA-89">
          <mxGeometry width="50" height="50" relative="1" as="geometry">
            <mxPoint x="472.09466437177286" y="43" as="sourcePoint" />
            <mxPoint x="518.6523235800345" y="-7" as="targetPoint" />
          </mxGeometry>
        </mxCell>
        <mxCell id="TLwpCwCnEkrLmzgMQMTA-113" value="" style="rounded=1;whiteSpace=wrap;html=1;fontSize=16;fillColor=none;strokeColor=#FF0000;" vertex="1" parent="1">
          <mxGeometry x="24.25" y="1834" width="228.5" height="60" as="geometry" />
        </mxCell>
        <mxCell id="TLwpCwCnEkrLmzgMQMTA-99" value="" style="whiteSpace=wrap;html=1;" vertex="1" parent="1">
          <mxGeometry x="316" y="1960" width="516.0000000000001" height="107" as="geometry" />
        </mxCell>
        <mxCell id="TLwpCwCnEkrLmzgMQMTA-100" value="&lt;font style=&quot;font-size: 23px;&quot;&gt;sensor_into&lt;/font&gt;" style="text;html=1;align=center;verticalAlign=middle;resizable=0;points=[];autosize=1;strokeColor=none;fillColor=none;" vertex="1" parent="1">
          <mxGeometry x="697" y="1968" width="137" height="40" as="geometry" />
        </mxCell>
        <mxCell id="TLwpCwCnEkrLmzgMQMTA-101" value="&lt;font style=&quot;font-size: 23px;&quot;&gt;sensor_out&lt;/font&gt;" style="text;html=1;align=center;verticalAlign=middle;resizable=0;points=[];autosize=1;strokeColor=none;fillColor=none;" vertex="1" parent="1">
          <mxGeometry x="571" y="1968" width="132" height="40" as="geometry" />
        </mxCell>
        <mxCell id="TLwpCwCnEkrLmzgMQMTA-102" value="&lt;font style=&quot;font-size: 23px;&quot;&gt;vector_into&lt;/font&gt;" style="text;html=1;align=center;verticalAlign=middle;resizable=0;points=[];autosize=1;strokeColor=none;fillColor=none;" vertex="1" parent="1">
          <mxGeometry x="443" y="1968" width="131" height="40" as="geometry" />
        </mxCell>
        <mxCell id="TLwpCwCnEkrLmzgMQMTA-103" value="&lt;font style=&quot;font-size: 23px;&quot;&gt;vector_out&lt;/font&gt;" style="text;html=1;align=center;verticalAlign=middle;resizable=0;points=[];autosize=1;strokeColor=none;fillColor=none;" vertex="1" parent="1">
          <mxGeometry x="313" y="1968" width="125" height="40" as="geometry" />
        </mxCell>
        <mxCell id="TLwpCwCnEkrLmzgMQMTA-104" value="&lt;font style=&quot;font-size: 23px;&quot;&gt;1&lt;/font&gt;" style="text;html=1;align=center;verticalAlign=middle;resizable=0;points=[];autosize=1;strokeColor=none;fillColor=none;" vertex="1" parent="1">
          <mxGeometry x="750" y="2023" width="31" height="40" as="geometry" />
        </mxCell>
        <mxCell id="TLwpCwCnEkrLmzgMQMTA-105" value="&lt;font style=&quot;font-size: 23px;&quot;&gt;0&lt;/font&gt;" style="text;html=1;align=center;verticalAlign=middle;resizable=0;points=[];autosize=1;strokeColor=none;fillColor=none;" vertex="1" parent="1">
          <mxGeometry x="621.5" y="2023" width="31" height="40" as="geometry" />
        </mxCell>
        <mxCell id="TLwpCwCnEkrLmzgMQMTA-106" value="&lt;font style=&quot;font-size: 23px;&quot;&gt;1&lt;/font&gt;" style="text;html=1;align=center;verticalAlign=middle;resizable=0;points=[];autosize=1;strokeColor=none;fillColor=none;" vertex="1" parent="1">
          <mxGeometry x="493" y="2023" width="31" height="40" as="geometry" />
        </mxCell>
        <mxCell id="TLwpCwCnEkrLmzgMQMTA-107" value="&lt;font style=&quot;font-size: 23px;&quot;&gt;0&lt;/font&gt;" style="text;html=1;align=center;verticalAlign=middle;resizable=0;points=[];autosize=1;strokeColor=none;fillColor=none;" vertex="1" parent="1">
          <mxGeometry x="360" y="2023" width="31" height="40" as="geometry" />
        </mxCell>
        <mxCell id="TLwpCwCnEkrLmzgMQMTA-108" value="" style="endArrow=none;html=1;rounded=0;exitX=0.75;exitY=1;exitDx=0;exitDy=0;entryX=0.75;entryY=0;entryDx=0;entryDy=0;" edge="1" parent="1" source="TLwpCwCnEkrLmzgMQMTA-99" target="TLwpCwCnEkrLmzgMQMTA-99">
          <mxGeometry width="50" height="50" relative="1" as="geometry">
            <mxPoint x="1064.7788296041308" y="3516.6833333333334" as="sourcePoint" />
            <mxPoint x="1109.185025817556" y="3427.5166666666664" as="targetPoint" />
          </mxGeometry>
        </mxCell>
        <mxCell id="TLwpCwCnEkrLmzgMQMTA-109" value="" style="endArrow=none;html=1;rounded=0;exitX=0;exitY=0.5;exitDx=0;exitDy=0;entryX=1;entryY=0.5;entryDx=0;entryDy=0;" edge="1" parent="1" source="TLwpCwCnEkrLmzgMQMTA-99" target="TLwpCwCnEkrLmzgMQMTA-99">
          <mxGeometry width="50" height="50" relative="1" as="geometry">
            <mxPoint x="1366.7788296041308" y="4962" as="sourcePoint" />
            <mxPoint x="1411.185025817556" y="4912" as="targetPoint" />
          </mxGeometry>
        </mxCell>
        <mxCell id="TLwpCwCnEkrLmzgMQMTA-110" value="" style="endArrow=none;html=1;rounded=0;exitX=0.5;exitY=1;exitDx=0;exitDy=0;entryX=0.5;entryY=0;entryDx=0;entryDy=0;" edge="1" parent="1" source="TLwpCwCnEkrLmzgMQMTA-99" target="TLwpCwCnEkrLmzgMQMTA-99">
          <mxGeometry width="50" height="50" relative="1" as="geometry">
            <mxPoint x="1312.6032702237521" y="5043.833333333333" as="sourcePoint" />
            <mxPoint x="1312.6032702237521" y="4936.833333333333" as="targetPoint" />
          </mxGeometry>
        </mxCell>
        <mxCell id="TLwpCwCnEkrLmzgMQMTA-111" value="" style="endArrow=none;html=1;rounded=0;exitX=0.25;exitY=1;exitDx=0;exitDy=0;entryX=0.25;entryY=0;entryDx=0;entryDy=0;" edge="1" parent="1" source="TLwpCwCnEkrLmzgMQMTA-99" target="TLwpCwCnEkrLmzgMQMTA-99">
          <mxGeometry width="50" height="50" relative="1" as="geometry">
            <mxPoint x="1183.8253012048194" y="5043.833333333333" as="sourcePoint" />
            <mxPoint x="1183.8253012048194" y="4936.833333333333" as="targetPoint" />
          </mxGeometry>
        </mxCell>
        <mxCell id="TLwpCwCnEkrLmzgMQMTA-114" value="" style="group" vertex="1" connectable="0" parent="1">
          <mxGeometry x="316" y="2337.5" width="518" height="107" as="geometry" />
        </mxCell>
        <mxCell id="TLwpCwCnEkrLmzgMQMTA-115" value="" style="group" vertex="1" connectable="0" parent="TLwpCwCnEkrLmzgMQMTA-114">
          <mxGeometry width="518" height="107" as="geometry" />
        </mxCell>
        <mxCell id="TLwpCwCnEkrLmzgMQMTA-116" value="" style="group" vertex="1" connectable="0" parent="TLwpCwCnEkrLmzgMQMTA-115">
          <mxGeometry x="-3" width="521" height="107" as="geometry" />
        </mxCell>
        <mxCell id="TLwpCwCnEkrLmzgMQMTA-117" value="" style="whiteSpace=wrap;html=1;" vertex="1" parent="TLwpCwCnEkrLmzgMQMTA-116">
          <mxGeometry x="3" width="516.0000000000001" height="107" as="geometry" />
        </mxCell>
        <mxCell id="TLwpCwCnEkrLmzgMQMTA-118" value="&lt;font style=&quot;font-size: 23px;&quot;&gt;sensor_into&lt;/font&gt;" style="text;html=1;align=center;verticalAlign=middle;resizable=0;points=[];autosize=1;strokeColor=none;fillColor=none;" vertex="1" parent="TLwpCwCnEkrLmzgMQMTA-116">
          <mxGeometry x="384" y="8" width="137" height="40" as="geometry" />
        </mxCell>
        <mxCell id="TLwpCwCnEkrLmzgMQMTA-119" value="&lt;font style=&quot;font-size: 23px;&quot;&gt;sensor_out&lt;/font&gt;" style="text;html=1;align=center;verticalAlign=middle;resizable=0;points=[];autosize=1;strokeColor=none;fillColor=none;" vertex="1" parent="TLwpCwCnEkrLmzgMQMTA-116">
          <mxGeometry x="258" y="8" width="132" height="40" as="geometry" />
        </mxCell>
        <mxCell id="TLwpCwCnEkrLmzgMQMTA-120" value="&lt;font style=&quot;font-size: 23px;&quot;&gt;vector_into&lt;/font&gt;" style="text;html=1;align=center;verticalAlign=middle;resizable=0;points=[];autosize=1;strokeColor=none;fillColor=none;" vertex="1" parent="TLwpCwCnEkrLmzgMQMTA-116">
          <mxGeometry x="130" y="8" width="131" height="40" as="geometry" />
        </mxCell>
        <mxCell id="TLwpCwCnEkrLmzgMQMTA-121" value="&lt;font style=&quot;font-size: 23px;&quot;&gt;vector_out&lt;/font&gt;" style="text;html=1;align=center;verticalAlign=middle;resizable=0;points=[];autosize=1;strokeColor=none;fillColor=none;" vertex="1" parent="TLwpCwCnEkrLmzgMQMTA-116">
          <mxGeometry y="8" width="125" height="40" as="geometry" />
        </mxCell>
        <mxCell id="TLwpCwCnEkrLmzgMQMTA-122" value="&lt;font style=&quot;font-size: 23px;&quot;&gt;1&lt;/font&gt;" style="text;html=1;align=center;verticalAlign=middle;resizable=0;points=[];autosize=1;strokeColor=none;fillColor=none;" vertex="1" parent="TLwpCwCnEkrLmzgMQMTA-116">
          <mxGeometry x="437" y="63" width="31" height="40" as="geometry" />
        </mxCell>
        <mxCell id="TLwpCwCnEkrLmzgMQMTA-123" value="&lt;font style=&quot;font-size: 23px;&quot;&gt;1&lt;/font&gt;" style="text;html=1;align=center;verticalAlign=middle;resizable=0;points=[];autosize=1;strokeColor=none;fillColor=none;" vertex="1" parent="TLwpCwCnEkrLmzgMQMTA-116">
          <mxGeometry x="308.5" y="63" width="31" height="40" as="geometry" />
        </mxCell>
        <mxCell id="TLwpCwCnEkrLmzgMQMTA-124" value="&lt;font style=&quot;font-size: 23px;&quot;&gt;1&lt;/font&gt;" style="text;html=1;align=center;verticalAlign=middle;resizable=0;points=[];autosize=1;strokeColor=none;fillColor=none;" vertex="1" parent="TLwpCwCnEkrLmzgMQMTA-116">
          <mxGeometry x="180" y="63" width="31" height="40" as="geometry" />
        </mxCell>
        <mxCell id="TLwpCwCnEkrLmzgMQMTA-125" value="&lt;font style=&quot;font-size: 23px;&quot;&gt;0&lt;/font&gt;" style="text;html=1;align=center;verticalAlign=middle;resizable=0;points=[];autosize=1;strokeColor=none;fillColor=none;" vertex="1" parent="TLwpCwCnEkrLmzgMQMTA-116">
          <mxGeometry x="47" y="63" width="31" height="40" as="geometry" />
        </mxCell>
        <mxCell id="TLwpCwCnEkrLmzgMQMTA-126" value="" style="endArrow=none;html=1;rounded=0;exitX=0;exitY=0.5;exitDx=0;exitDy=0;entryX=1;entryY=0.5;entryDx=0;entryDy=0;" edge="1" parent="TLwpCwCnEkrLmzgMQMTA-116" source="TLwpCwCnEkrLmzgMQMTA-117" target="TLwpCwCnEkrLmzgMQMTA-117">
          <mxGeometry width="50" height="50" relative="1" as="geometry">
            <mxPoint x="450.27882960413086" y="43" as="sourcePoint" />
            <mxPoint x="494.685025817556" y="-7" as="targetPoint" />
          </mxGeometry>
        </mxCell>
        <mxCell id="TLwpCwCnEkrLmzgMQMTA-127" value="" style="endArrow=none;html=1;rounded=0;exitX=0.75;exitY=1;exitDx=0;exitDy=0;entryX=0.75;entryY=0;entryDx=0;entryDy=0;" edge="1" parent="TLwpCwCnEkrLmzgMQMTA-116" source="TLwpCwCnEkrLmzgMQMTA-117" target="TLwpCwCnEkrLmzgMQMTA-117">
          <mxGeometry width="50" height="50" relative="1" as="geometry">
            <mxPoint x="450.27882960413086" y="76.68333333333334" as="sourcePoint" />
            <mxPoint x="494.685025817556" y="-12.483333333333334" as="targetPoint" />
          </mxGeometry>
        </mxCell>
        <mxCell id="TLwpCwCnEkrLmzgMQMTA-128" value="" style="endArrow=none;html=1;rounded=0;exitX=0.5;exitY=1;exitDx=0;exitDy=0;entryX=0.5;entryY=0;entryDx=0;entryDy=0;" edge="1" parent="TLwpCwCnEkrLmzgMQMTA-116" source="TLwpCwCnEkrLmzgMQMTA-117" target="TLwpCwCnEkrLmzgMQMTA-117">
          <mxGeometry width="50" height="50" relative="1" as="geometry">
            <mxPoint x="396.1032702237522" y="124.83333333333334" as="sourcePoint" />
            <mxPoint x="396.1032702237522" y="17.833333333333336" as="targetPoint" />
          </mxGeometry>
        </mxCell>
        <mxCell id="TLwpCwCnEkrLmzgMQMTA-129" value="" style="endArrow=none;html=1;rounded=0;exitX=0.25;exitY=1;exitDx=0;exitDy=0;entryX=0.25;entryY=0;entryDx=0;entryDy=0;" edge="1" parent="TLwpCwCnEkrLmzgMQMTA-116" source="TLwpCwCnEkrLmzgMQMTA-117" target="TLwpCwCnEkrLmzgMQMTA-117">
          <mxGeometry width="50" height="50" relative="1" as="geometry">
            <mxPoint x="267.3253012048193" y="124.83333333333334" as="sourcePoint" />
            <mxPoint x="267.3253012048193" y="17.833333333333336" as="targetPoint" />
          </mxGeometry>
        </mxCell>
        <mxCell id="TLwpCwCnEkrLmzgMQMTA-130" value="" style="group" vertex="1" connectable="0" parent="1">
          <mxGeometry x="-225" y="2338" width="547" height="114" as="geometry" />
        </mxCell>
        <mxCell id="TLwpCwCnEkrLmzgMQMTA-131" value="" style="group" vertex="1" connectable="0" parent="TLwpCwCnEkrLmzgMQMTA-130">
          <mxGeometry width="547" height="114" as="geometry" />
        </mxCell>
        <mxCell id="TLwpCwCnEkrLmzgMQMTA-132" value="" style="group" vertex="1" connectable="0" parent="TLwpCwCnEkrLmzgMQMTA-131">
          <mxGeometry width="547" height="114" as="geometry" />
        </mxCell>
        <mxCell id="TLwpCwCnEkrLmzgMQMTA-133" value="" style="whiteSpace=wrap;html=1;" vertex="1" parent="TLwpCwCnEkrLmzgMQMTA-132">
          <mxGeometry width="541" height="107" as="geometry" />
        </mxCell>
        <mxCell id="TLwpCwCnEkrLmzgMQMTA-134" value="&lt;font style=&quot;font-size: 23px;&quot;&gt;set&lt;/font&gt;" style="text;html=1;align=center;verticalAlign=middle;resizable=0;points=[];autosize=1;strokeColor=none;fillColor=none;" vertex="1" parent="TLwpCwCnEkrLmzgMQMTA-132">
          <mxGeometry x="447" y="9" width="49" height="40" as="geometry" />
        </mxCell>
        <mxCell id="TLwpCwCnEkrLmzgMQMTA-135" value="&lt;font style=&quot;font-size: 23px;&quot;&gt;finish&lt;/font&gt;" style="text;html=1;align=center;verticalAlign=middle;resizable=0;points=[];autosize=1;strokeColor=none;fillColor=none;" vertex="1" parent="TLwpCwCnEkrLmzgMQMTA-132">
          <mxGeometry x="302" y="9" width="72" height="40" as="geometry" />
        </mxCell>
        <mxCell id="TLwpCwCnEkrLmzgMQMTA-136" value="&lt;font style=&quot;font-size: 23px;&quot;&gt;0&lt;/font&gt;" style="text;html=1;align=center;verticalAlign=middle;resizable=0;points=[];autosize=1;strokeColor=none;fillColor=none;" vertex="1" parent="TLwpCwCnEkrLmzgMQMTA-132">
          <mxGeometry x="456" y="63" width="31" height="40" as="geometry" />
        </mxCell>
        <mxCell id="TLwpCwCnEkrLmzgMQMTA-137" value="&lt;font style=&quot;font-size: 23px;&quot;&gt;0&lt;/font&gt;" style="text;html=1;align=center;verticalAlign=middle;resizable=0;points=[];autosize=1;strokeColor=none;fillColor=none;" vertex="1" parent="TLwpCwCnEkrLmzgMQMTA-132">
          <mxGeometry x="322.5" y="63" width="31" height="40" as="geometry" />
        </mxCell>
        <mxCell id="TLwpCwCnEkrLmzgMQMTA-138" value="" style="endArrow=none;html=1;rounded=0;exitX=0.75;exitY=1;exitDx=0;exitDy=0;entryX=0.75;entryY=0;entryDx=0;entryDy=0;" edge="1" parent="TLwpCwCnEkrLmzgMQMTA-132" source="TLwpCwCnEkrLmzgMQMTA-133" target="TLwpCwCnEkrLmzgMQMTA-133">
          <mxGeometry width="50" height="50" relative="1" as="geometry">
            <mxPoint x="472.09466437177286" y="76.68333333333334" as="sourcePoint" />
            <mxPoint x="518.6523235800345" y="-12.483333333333334" as="targetPoint" />
          </mxGeometry>
        </mxCell>
        <mxCell id="TLwpCwCnEkrLmzgMQMTA-139" value="" style="endArrow=none;html=1;rounded=0;exitX=0.5;exitY=1;exitDx=0;exitDy=0;entryX=0.5;entryY=0;entryDx=0;entryDy=0;" edge="1" parent="TLwpCwCnEkrLmzgMQMTA-132" source="TLwpCwCnEkrLmzgMQMTA-133" target="TLwpCwCnEkrLmzgMQMTA-133">
          <mxGeometry width="50" height="50" relative="1" as="geometry">
            <mxPoint x="415.2943201376936" y="124.83333333333334" as="sourcePoint" />
            <mxPoint x="415.2943201376936" y="17.833333333333336" as="targetPoint" />
          </mxGeometry>
        </mxCell>
        <mxCell id="TLwpCwCnEkrLmzgMQMTA-140" value="" style="endArrow=none;html=1;rounded=0;exitX=0.25;exitY=1;exitDx=0;exitDy=0;entryX=0.25;entryY=0;entryDx=0;entryDy=0;" edge="1" parent="TLwpCwCnEkrLmzgMQMTA-132" source="TLwpCwCnEkrLmzgMQMTA-133" target="TLwpCwCnEkrLmzgMQMTA-133">
          <mxGeometry width="50" height="50" relative="1" as="geometry">
            <mxPoint x="280.27710843373495" y="124.83333333333334" as="sourcePoint" />
            <mxPoint x="280.27710843373495" y="17.833333333333336" as="targetPoint" />
          </mxGeometry>
        </mxCell>
        <mxCell id="TLwpCwCnEkrLmzgMQMTA-141" value="" style="endArrow=none;html=1;rounded=0;exitX=0;exitY=0.5;exitDx=0;exitDy=0;entryX=1;entryY=0.5;entryDx=0;entryDy=0;" edge="1" parent="TLwpCwCnEkrLmzgMQMTA-132" source="TLwpCwCnEkrLmzgMQMTA-133" target="TLwpCwCnEkrLmzgMQMTA-133">
          <mxGeometry width="50" height="50" relative="1" as="geometry">
            <mxPoint x="472.09466437177286" y="43" as="sourcePoint" />
            <mxPoint x="518.6523235800345" y="-7" as="targetPoint" />
          </mxGeometry>
        </mxCell>
        <mxCell id="TLwpCwCnEkrLmzgMQMTA-363" value="" style="rounded=0;whiteSpace=wrap;html=1;fillColor=none;strokeColor=#FF0000;" vertex="1" parent="TLwpCwCnEkrLmzgMQMTA-132">
          <mxGeometry x="399" y="46" width="148" height="68" as="geometry" />
        </mxCell>
        <mxCell id="TLwpCwCnEkrLmzgMQMTA-142" value="" style="rounded=1;whiteSpace=wrap;html=1;fontSize=16;fillColor=none;strokeColor=#FF0000;" vertex="1" parent="1">
          <mxGeometry x="32" y="2231" width="228.5" height="60" as="geometry" />
        </mxCell>
        <mxCell id="TLwpCwCnEkrLmzgMQMTA-144" value="" style="group" vertex="1" connectable="0" parent="1">
          <mxGeometry x="-258" y="984" width="1086" height="291" as="geometry" />
        </mxCell>
        <mxCell id="TLwpCwCnEkrLmzgMQMTA-2" value="" style="rounded=0;whiteSpace=wrap;html=1;fontSize=16;fillColor=none;" vertex="1" parent="TLwpCwCnEkrLmzgMQMTA-144">
          <mxGeometry y="-2" width="1086" height="291" as="geometry" />
        </mxCell>
        <mxCell id="TLwpCwCnEkrLmzgMQMTA-11" value="" style="group" vertex="1" connectable="0" parent="TLwpCwCnEkrLmzgMQMTA-144">
          <mxGeometry x="557.5" y="165.5" width="518" height="107" as="geometry" />
        </mxCell>
        <mxCell id="TLwpCwCnEkrLmzgMQMTA-12" value="" style="group" vertex="1" connectable="0" parent="TLwpCwCnEkrLmzgMQMTA-11">
          <mxGeometry width="518" height="107" as="geometry" />
        </mxCell>
        <mxCell id="TLwpCwCnEkrLmzgMQMTA-53" value="" style="group" vertex="1" connectable="0" parent="TLwpCwCnEkrLmzgMQMTA-12">
          <mxGeometry x="-3" width="521" height="107" as="geometry" />
        </mxCell>
        <mxCell id="TLwpCwCnEkrLmzgMQMTA-13" value="" style="whiteSpace=wrap;html=1;" vertex="1" parent="TLwpCwCnEkrLmzgMQMTA-53">
          <mxGeometry x="3" width="516.0000000000001" height="107" as="geometry" />
        </mxCell>
        <mxCell id="TLwpCwCnEkrLmzgMQMTA-18" value="&lt;font style=&quot;font-size: 23px;&quot;&gt;sensor_into&lt;/font&gt;" style="text;html=1;align=center;verticalAlign=middle;resizable=0;points=[];autosize=1;strokeColor=none;fillColor=none;" vertex="1" parent="TLwpCwCnEkrLmzgMQMTA-53">
          <mxGeometry x="384" y="8" width="137" height="40" as="geometry" />
        </mxCell>
        <mxCell id="TLwpCwCnEkrLmzgMQMTA-19" value="&lt;font style=&quot;font-size: 23px;&quot;&gt;sensor_out&lt;/font&gt;" style="text;html=1;align=center;verticalAlign=middle;resizable=0;points=[];autosize=1;strokeColor=none;fillColor=none;" vertex="1" parent="TLwpCwCnEkrLmzgMQMTA-53">
          <mxGeometry x="258" y="8" width="132" height="40" as="geometry" />
        </mxCell>
        <mxCell id="TLwpCwCnEkrLmzgMQMTA-20" value="&lt;font style=&quot;font-size: 23px;&quot;&gt;vector_into&lt;/font&gt;" style="text;html=1;align=center;verticalAlign=middle;resizable=0;points=[];autosize=1;strokeColor=none;fillColor=none;" vertex="1" parent="TLwpCwCnEkrLmzgMQMTA-53">
          <mxGeometry x="130" y="8" width="131" height="40" as="geometry" />
        </mxCell>
        <mxCell id="TLwpCwCnEkrLmzgMQMTA-21" value="&lt;font style=&quot;font-size: 23px;&quot;&gt;vector_out&lt;/font&gt;" style="text;html=1;align=center;verticalAlign=middle;resizable=0;points=[];autosize=1;strokeColor=none;fillColor=none;" vertex="1" parent="TLwpCwCnEkrLmzgMQMTA-53">
          <mxGeometry y="8" width="125" height="40" as="geometry" />
        </mxCell>
        <mxCell id="TLwpCwCnEkrLmzgMQMTA-22" value="&lt;font style=&quot;font-size: 23px;&quot;&gt;0&lt;/font&gt;" style="text;html=1;align=center;verticalAlign=middle;resizable=0;points=[];autosize=1;strokeColor=none;fillColor=none;" vertex="1" parent="TLwpCwCnEkrLmzgMQMTA-53">
          <mxGeometry x="437" y="63" width="31" height="40" as="geometry" />
        </mxCell>
        <mxCell id="TLwpCwCnEkrLmzgMQMTA-23" value="&lt;font style=&quot;font-size: 23px;&quot;&gt;0&lt;/font&gt;" style="text;html=1;align=center;verticalAlign=middle;resizable=0;points=[];autosize=1;strokeColor=none;fillColor=none;" vertex="1" parent="TLwpCwCnEkrLmzgMQMTA-53">
          <mxGeometry x="308.5" y="63" width="31" height="40" as="geometry" />
        </mxCell>
        <mxCell id="TLwpCwCnEkrLmzgMQMTA-24" value="&lt;font style=&quot;font-size: 23px;&quot;&gt;0&lt;/font&gt;" style="text;html=1;align=center;verticalAlign=middle;resizable=0;points=[];autosize=1;strokeColor=none;fillColor=none;" vertex="1" parent="TLwpCwCnEkrLmzgMQMTA-53">
          <mxGeometry x="180" y="63" width="31" height="40" as="geometry" />
        </mxCell>
        <mxCell id="TLwpCwCnEkrLmzgMQMTA-25" value="&lt;font style=&quot;font-size: 23px;&quot;&gt;0&lt;/font&gt;" style="text;html=1;align=center;verticalAlign=middle;resizable=0;points=[];autosize=1;strokeColor=none;fillColor=none;" vertex="1" parent="TLwpCwCnEkrLmzgMQMTA-53">
          <mxGeometry x="47" y="63" width="31" height="40" as="geometry" />
        </mxCell>
        <mxCell id="TLwpCwCnEkrLmzgMQMTA-14" value="" style="endArrow=none;html=1;rounded=0;exitX=0;exitY=0.5;exitDx=0;exitDy=0;entryX=1;entryY=0.5;entryDx=0;entryDy=0;" edge="1" parent="TLwpCwCnEkrLmzgMQMTA-53" source="TLwpCwCnEkrLmzgMQMTA-13" target="TLwpCwCnEkrLmzgMQMTA-13">
          <mxGeometry width="50" height="50" relative="1" as="geometry">
            <mxPoint x="450.27882960413086" y="43" as="sourcePoint" />
            <mxPoint x="494.685025817556" y="-7" as="targetPoint" />
          </mxGeometry>
        </mxCell>
        <mxCell id="TLwpCwCnEkrLmzgMQMTA-15" value="" style="endArrow=none;html=1;rounded=0;exitX=0.75;exitY=1;exitDx=0;exitDy=0;entryX=0.75;entryY=0;entryDx=0;entryDy=0;" edge="1" parent="TLwpCwCnEkrLmzgMQMTA-53" source="TLwpCwCnEkrLmzgMQMTA-13" target="TLwpCwCnEkrLmzgMQMTA-13">
          <mxGeometry width="50" height="50" relative="1" as="geometry">
            <mxPoint x="450.27882960413086" y="76.68333333333334" as="sourcePoint" />
            <mxPoint x="494.685025817556" y="-12.483333333333334" as="targetPoint" />
          </mxGeometry>
        </mxCell>
        <mxCell id="TLwpCwCnEkrLmzgMQMTA-16" value="" style="endArrow=none;html=1;rounded=0;exitX=0.5;exitY=1;exitDx=0;exitDy=0;entryX=0.5;entryY=0;entryDx=0;entryDy=0;" edge="1" parent="TLwpCwCnEkrLmzgMQMTA-53" source="TLwpCwCnEkrLmzgMQMTA-13" target="TLwpCwCnEkrLmzgMQMTA-13">
          <mxGeometry width="50" height="50" relative="1" as="geometry">
            <mxPoint x="396.1032702237522" y="124.83333333333334" as="sourcePoint" />
            <mxPoint x="396.1032702237522" y="17.833333333333336" as="targetPoint" />
          </mxGeometry>
        </mxCell>
        <mxCell id="TLwpCwCnEkrLmzgMQMTA-17" value="" style="endArrow=none;html=1;rounded=0;exitX=0.25;exitY=1;exitDx=0;exitDy=0;entryX=0.25;entryY=0;entryDx=0;entryDy=0;" edge="1" parent="TLwpCwCnEkrLmzgMQMTA-53" source="TLwpCwCnEkrLmzgMQMTA-13" target="TLwpCwCnEkrLmzgMQMTA-13">
          <mxGeometry width="50" height="50" relative="1" as="geometry">
            <mxPoint x="267.3253012048193" y="124.83333333333334" as="sourcePoint" />
            <mxPoint x="267.3253012048193" y="17.833333333333336" as="targetPoint" />
          </mxGeometry>
        </mxCell>
        <mxCell id="TLwpCwCnEkrLmzgMQMTA-1" value="" style="rounded=1;whiteSpace=wrap;html=1;fontSize=16;fillColor=none;strokeColor=#FF0000;" vertex="1" parent="TLwpCwCnEkrLmzgMQMTA-144">
          <mxGeometry x="262" y="42" width="228.5" height="60" as="geometry" />
        </mxCell>
        <mxCell id="TLwpCwCnEkrLmzgMQMTA-8" value="" style="group" vertex="1" connectable="0" parent="TLwpCwCnEkrLmzgMQMTA-144">
          <mxGeometry x="16.5" y="166" width="541" height="107" as="geometry" />
        </mxCell>
        <mxCell id="TLwpCwCnEkrLmzgMQMTA-10" value="" style="group" vertex="1" connectable="0" parent="TLwpCwCnEkrLmzgMQMTA-8">
          <mxGeometry width="541" height="107" as="geometry" />
        </mxCell>
        <mxCell id="TLwpCwCnEkrLmzgMQMTA-68" value="" style="group" vertex="1" connectable="0" parent="TLwpCwCnEkrLmzgMQMTA-10">
          <mxGeometry width="541" height="107" as="geometry" />
        </mxCell>
        <mxCell id="TLwpCwCnEkrLmzgMQMTA-4" value="" style="whiteSpace=wrap;html=1;" vertex="1" parent="TLwpCwCnEkrLmzgMQMTA-68">
          <mxGeometry width="541" height="107" as="geometry" />
        </mxCell>
        <mxCell id="TLwpCwCnEkrLmzgMQMTA-26" value="&lt;font style=&quot;font-size: 23px;&quot;&gt;set&lt;/font&gt;" style="text;html=1;align=center;verticalAlign=middle;resizable=0;points=[];autosize=1;strokeColor=none;fillColor=none;" vertex="1" parent="TLwpCwCnEkrLmzgMQMTA-68">
          <mxGeometry x="447" y="9" width="49" height="40" as="geometry" />
        </mxCell>
        <mxCell id="TLwpCwCnEkrLmzgMQMTA-27" value="&lt;font style=&quot;font-size: 23px;&quot;&gt;finish&lt;/font&gt;" style="text;html=1;align=center;verticalAlign=middle;resizable=0;points=[];autosize=1;strokeColor=none;fillColor=none;" vertex="1" parent="TLwpCwCnEkrLmzgMQMTA-68">
          <mxGeometry x="302" y="9" width="72" height="40" as="geometry" />
        </mxCell>
        <mxCell id="TLwpCwCnEkrLmzgMQMTA-28" value="&lt;font style=&quot;font-size: 23px;&quot;&gt;0&lt;/font&gt;" style="text;html=1;align=center;verticalAlign=middle;resizable=0;points=[];autosize=1;strokeColor=none;fillColor=none;" vertex="1" parent="TLwpCwCnEkrLmzgMQMTA-68">
          <mxGeometry x="456" y="63" width="31" height="40" as="geometry" />
        </mxCell>
        <mxCell id="TLwpCwCnEkrLmzgMQMTA-29" value="&lt;font style=&quot;font-size: 23px;&quot;&gt;0&lt;/font&gt;" style="text;html=1;align=center;verticalAlign=middle;resizable=0;points=[];autosize=1;strokeColor=none;fillColor=none;" vertex="1" parent="TLwpCwCnEkrLmzgMQMTA-68">
          <mxGeometry x="322.5" y="63" width="31" height="40" as="geometry" />
        </mxCell>
        <mxCell id="TLwpCwCnEkrLmzgMQMTA-5" value="" style="endArrow=none;html=1;rounded=0;exitX=0.75;exitY=1;exitDx=0;exitDy=0;entryX=0.75;entryY=0;entryDx=0;entryDy=0;" edge="1" parent="TLwpCwCnEkrLmzgMQMTA-68" source="TLwpCwCnEkrLmzgMQMTA-4" target="TLwpCwCnEkrLmzgMQMTA-4">
          <mxGeometry width="50" height="50" relative="1" as="geometry">
            <mxPoint x="472.09466437177286" y="76.68333333333334" as="sourcePoint" />
            <mxPoint x="518.6523235800345" y="-12.483333333333334" as="targetPoint" />
          </mxGeometry>
        </mxCell>
        <mxCell id="TLwpCwCnEkrLmzgMQMTA-6" value="" style="endArrow=none;html=1;rounded=0;exitX=0.5;exitY=1;exitDx=0;exitDy=0;entryX=0.5;entryY=0;entryDx=0;entryDy=0;" edge="1" parent="TLwpCwCnEkrLmzgMQMTA-68" source="TLwpCwCnEkrLmzgMQMTA-4" target="TLwpCwCnEkrLmzgMQMTA-4">
          <mxGeometry width="50" height="50" relative="1" as="geometry">
            <mxPoint x="415.2943201376936" y="124.83333333333334" as="sourcePoint" />
            <mxPoint x="415.2943201376936" y="17.833333333333336" as="targetPoint" />
          </mxGeometry>
        </mxCell>
        <mxCell id="TLwpCwCnEkrLmzgMQMTA-7" value="" style="endArrow=none;html=1;rounded=0;exitX=0.25;exitY=1;exitDx=0;exitDy=0;entryX=0.25;entryY=0;entryDx=0;entryDy=0;" edge="1" parent="TLwpCwCnEkrLmzgMQMTA-68" source="TLwpCwCnEkrLmzgMQMTA-4" target="TLwpCwCnEkrLmzgMQMTA-4">
          <mxGeometry width="50" height="50" relative="1" as="geometry">
            <mxPoint x="280.27710843373495" y="124.83333333333334" as="sourcePoint" />
            <mxPoint x="280.27710843373495" y="17.833333333333336" as="targetPoint" />
          </mxGeometry>
        </mxCell>
        <mxCell id="TLwpCwCnEkrLmzgMQMTA-9" value="" style="endArrow=none;html=1;rounded=0;exitX=0;exitY=0.5;exitDx=0;exitDy=0;entryX=1;entryY=0.5;entryDx=0;entryDy=0;" edge="1" parent="TLwpCwCnEkrLmzgMQMTA-68" source="TLwpCwCnEkrLmzgMQMTA-4" target="TLwpCwCnEkrLmzgMQMTA-4">
          <mxGeometry width="50" height="50" relative="1" as="geometry">
            <mxPoint x="472.09466437177286" y="43" as="sourcePoint" />
            <mxPoint x="518.6523235800345" y="-7" as="targetPoint" />
          </mxGeometry>
        </mxCell>
        <mxCell id="TLwpCwCnEkrLmzgMQMTA-276" value="&lt;font style=&quot;font-size: 20px;&quot;&gt;count : 0&lt;/font&gt;" style="text;html=1;align=center;verticalAlign=middle;resizable=0;points=[];autosize=1;strokeColor=none;fillColor=none;" vertex="1" parent="TLwpCwCnEkrLmzgMQMTA-144">
          <mxGeometry x="949" y="20" width="95" height="36" as="geometry" />
        </mxCell>
        <mxCell id="TLwpCwCnEkrLmzgMQMTA-284" value="" style="rounded=1;whiteSpace=wrap;html=1;fontSize=16;fillColor=none;strokeColor=#FF0000;" vertex="1" parent="TLwpCwCnEkrLmzgMQMTA-144">
          <mxGeometry x="565" y="42" width="228.5" height="60" as="geometry" />
        </mxCell>
        <mxCell id="TLwpCwCnEkrLmzgMQMTA-285" value="&lt;font style=&quot;font-size: 23px;&quot;&gt;into&lt;/font&gt;" style="text;html=1;align=center;verticalAlign=middle;resizable=0;points=[];autosize=1;strokeColor=none;fillColor=none;" vertex="1" parent="TLwpCwCnEkrLmzgMQMTA-144">
          <mxGeometry x="351" width="55" height="40" as="geometry" />
        </mxCell>
        <mxCell id="TLwpCwCnEkrLmzgMQMTA-286" value="&lt;font style=&quot;font-size: 23px;&quot;&gt;out&lt;/font&gt;" style="text;html=1;align=center;verticalAlign=middle;resizable=0;points=[];autosize=1;strokeColor=none;fillColor=none;" vertex="1" parent="TLwpCwCnEkrLmzgMQMTA-144">
          <mxGeometry x="649" y="2" width="50" height="40" as="geometry" />
        </mxCell>
        <mxCell id="TLwpCwCnEkrLmzgMQMTA-308" value="" style="endArrow=classic;html=1;rounded=0;" edge="1" parent="TLwpCwCnEkrLmzgMQMTA-144">
          <mxGeometry width="50" height="50" relative="1" as="geometry">
            <mxPoint x="101" y="71.5" as="sourcePoint" />
            <mxPoint x="216" y="71.5" as="targetPoint" />
          </mxGeometry>
        </mxCell>
        <mxCell id="TLwpCwCnEkrLmzgMQMTA-146" value="" style="rounded=0;whiteSpace=wrap;html=1;fontSize=16;fillColor=none;" vertex="1" parent="1">
          <mxGeometry x="-249" y="2517" width="1086" height="291" as="geometry" />
        </mxCell>
        <mxCell id="TLwpCwCnEkrLmzgMQMTA-147" value="" style="group" vertex="1" connectable="0" parent="1">
          <mxGeometry x="308.5" y="2682.5" width="518" height="107" as="geometry" />
        </mxCell>
        <mxCell id="TLwpCwCnEkrLmzgMQMTA-148" value="" style="group" vertex="1" connectable="0" parent="TLwpCwCnEkrLmzgMQMTA-147">
          <mxGeometry width="518" height="107" as="geometry" />
        </mxCell>
        <mxCell id="TLwpCwCnEkrLmzgMQMTA-149" value="" style="group" vertex="1" connectable="0" parent="TLwpCwCnEkrLmzgMQMTA-148">
          <mxGeometry x="-3" width="521" height="107" as="geometry" />
        </mxCell>
        <mxCell id="TLwpCwCnEkrLmzgMQMTA-150" value="" style="whiteSpace=wrap;html=1;" vertex="1" parent="TLwpCwCnEkrLmzgMQMTA-149">
          <mxGeometry x="3" width="516.0000000000001" height="107" as="geometry" />
        </mxCell>
        <mxCell id="TLwpCwCnEkrLmzgMQMTA-151" value="&lt;font style=&quot;font-size: 23px;&quot;&gt;sensor_into&lt;/font&gt;" style="text;html=1;align=center;verticalAlign=middle;resizable=0;points=[];autosize=1;strokeColor=none;fillColor=none;" vertex="1" parent="TLwpCwCnEkrLmzgMQMTA-149">
          <mxGeometry x="384" y="8" width="137" height="40" as="geometry" />
        </mxCell>
        <mxCell id="TLwpCwCnEkrLmzgMQMTA-152" value="&lt;font style=&quot;font-size: 23px;&quot;&gt;sensor_out&lt;/font&gt;" style="text;html=1;align=center;verticalAlign=middle;resizable=0;points=[];autosize=1;strokeColor=none;fillColor=none;" vertex="1" parent="TLwpCwCnEkrLmzgMQMTA-149">
          <mxGeometry x="258" y="8" width="132" height="40" as="geometry" />
        </mxCell>
        <mxCell id="TLwpCwCnEkrLmzgMQMTA-153" value="&lt;font style=&quot;font-size: 23px;&quot;&gt;vector_into&lt;/font&gt;" style="text;html=1;align=center;verticalAlign=middle;resizable=0;points=[];autosize=1;strokeColor=none;fillColor=none;" vertex="1" parent="TLwpCwCnEkrLmzgMQMTA-149">
          <mxGeometry x="130" y="8" width="131" height="40" as="geometry" />
        </mxCell>
        <mxCell id="TLwpCwCnEkrLmzgMQMTA-154" value="&lt;font style=&quot;font-size: 23px;&quot;&gt;vector_out&lt;/font&gt;" style="text;html=1;align=center;verticalAlign=middle;resizable=0;points=[];autosize=1;strokeColor=none;fillColor=none;" vertex="1" parent="TLwpCwCnEkrLmzgMQMTA-149">
          <mxGeometry y="8" width="125" height="40" as="geometry" />
        </mxCell>
        <mxCell id="TLwpCwCnEkrLmzgMQMTA-155" value="&lt;font style=&quot;font-size: 23px;&quot;&gt;1&lt;/font&gt;" style="text;html=1;align=center;verticalAlign=middle;resizable=0;points=[];autosize=1;strokeColor=none;fillColor=none;" vertex="1" parent="TLwpCwCnEkrLmzgMQMTA-149">
          <mxGeometry x="437" y="63" width="31" height="40" as="geometry" />
        </mxCell>
        <mxCell id="TLwpCwCnEkrLmzgMQMTA-156" value="&lt;font style=&quot;font-size: 23px;&quot;&gt;1&lt;/font&gt;" style="text;html=1;align=center;verticalAlign=middle;resizable=0;points=[];autosize=1;strokeColor=none;fillColor=none;" vertex="1" parent="TLwpCwCnEkrLmzgMQMTA-149">
          <mxGeometry x="308.5" y="63" width="31" height="40" as="geometry" />
        </mxCell>
        <mxCell id="TLwpCwCnEkrLmzgMQMTA-157" value="&lt;font style=&quot;font-size: 23px;&quot;&gt;1&lt;/font&gt;" style="text;html=1;align=center;verticalAlign=middle;resizable=0;points=[];autosize=1;strokeColor=none;fillColor=none;" vertex="1" parent="TLwpCwCnEkrLmzgMQMTA-149">
          <mxGeometry x="180" y="63" width="31" height="40" as="geometry" />
        </mxCell>
        <mxCell id="TLwpCwCnEkrLmzgMQMTA-158" value="&lt;font style=&quot;font-size: 23px;&quot;&gt;0&lt;/font&gt;" style="text;html=1;align=center;verticalAlign=middle;resizable=0;points=[];autosize=1;strokeColor=none;fillColor=none;" vertex="1" parent="TLwpCwCnEkrLmzgMQMTA-149">
          <mxGeometry x="47" y="63" width="31" height="40" as="geometry" />
        </mxCell>
        <mxCell id="TLwpCwCnEkrLmzgMQMTA-159" value="" style="endArrow=none;html=1;rounded=0;exitX=0;exitY=0.5;exitDx=0;exitDy=0;entryX=1;entryY=0.5;entryDx=0;entryDy=0;" edge="1" parent="TLwpCwCnEkrLmzgMQMTA-149" source="TLwpCwCnEkrLmzgMQMTA-150" target="TLwpCwCnEkrLmzgMQMTA-150">
          <mxGeometry width="50" height="50" relative="1" as="geometry">
            <mxPoint x="450.27882960413086" y="43" as="sourcePoint" />
            <mxPoint x="494.685025817556" y="-7" as="targetPoint" />
          </mxGeometry>
        </mxCell>
        <mxCell id="TLwpCwCnEkrLmzgMQMTA-160" value="" style="endArrow=none;html=1;rounded=0;exitX=0.75;exitY=1;exitDx=0;exitDy=0;entryX=0.75;entryY=0;entryDx=0;entryDy=0;" edge="1" parent="TLwpCwCnEkrLmzgMQMTA-149" source="TLwpCwCnEkrLmzgMQMTA-150" target="TLwpCwCnEkrLmzgMQMTA-150">
          <mxGeometry width="50" height="50" relative="1" as="geometry">
            <mxPoint x="450.27882960413086" y="76.68333333333334" as="sourcePoint" />
            <mxPoint x="494.685025817556" y="-12.483333333333334" as="targetPoint" />
          </mxGeometry>
        </mxCell>
        <mxCell id="TLwpCwCnEkrLmzgMQMTA-161" value="" style="endArrow=none;html=1;rounded=0;exitX=0.5;exitY=1;exitDx=0;exitDy=0;entryX=0.5;entryY=0;entryDx=0;entryDy=0;" edge="1" parent="TLwpCwCnEkrLmzgMQMTA-149" source="TLwpCwCnEkrLmzgMQMTA-150" target="TLwpCwCnEkrLmzgMQMTA-150">
          <mxGeometry width="50" height="50" relative="1" as="geometry">
            <mxPoint x="396.1032702237522" y="124.83333333333334" as="sourcePoint" />
            <mxPoint x="396.1032702237522" y="17.833333333333336" as="targetPoint" />
          </mxGeometry>
        </mxCell>
        <mxCell id="TLwpCwCnEkrLmzgMQMTA-162" value="" style="endArrow=none;html=1;rounded=0;exitX=0.25;exitY=1;exitDx=0;exitDy=0;entryX=0.25;entryY=0;entryDx=0;entryDy=0;" edge="1" parent="TLwpCwCnEkrLmzgMQMTA-149" source="TLwpCwCnEkrLmzgMQMTA-150" target="TLwpCwCnEkrLmzgMQMTA-150">
          <mxGeometry width="50" height="50" relative="1" as="geometry">
            <mxPoint x="267.3253012048193" y="124.83333333333334" as="sourcePoint" />
            <mxPoint x="267.3253012048193" y="17.833333333333336" as="targetPoint" />
          </mxGeometry>
        </mxCell>
        <mxCell id="TLwpCwCnEkrLmzgMQMTA-163" value="" style="rounded=1;whiteSpace=wrap;html=1;fontSize=16;fillColor=none;strokeColor=#FF0000;" vertex="1" parent="1">
          <mxGeometry x="28" y="2566" width="228.5" height="60" as="geometry" />
        </mxCell>
        <mxCell id="TLwpCwCnEkrLmzgMQMTA-164" value="" style="group" vertex="1" connectable="0" parent="1">
          <mxGeometry x="-232.5" y="2683" width="541" height="107" as="geometry" />
        </mxCell>
        <mxCell id="TLwpCwCnEkrLmzgMQMTA-165" value="" style="group" vertex="1" connectable="0" parent="TLwpCwCnEkrLmzgMQMTA-164">
          <mxGeometry width="541" height="107" as="geometry" />
        </mxCell>
        <mxCell id="TLwpCwCnEkrLmzgMQMTA-166" value="" style="group" vertex="1" connectable="0" parent="TLwpCwCnEkrLmzgMQMTA-165">
          <mxGeometry width="541" height="107" as="geometry" />
        </mxCell>
        <mxCell id="TLwpCwCnEkrLmzgMQMTA-167" value="" style="whiteSpace=wrap;html=1;" vertex="1" parent="TLwpCwCnEkrLmzgMQMTA-166">
          <mxGeometry width="541" height="107" as="geometry" />
        </mxCell>
        <mxCell id="TLwpCwCnEkrLmzgMQMTA-168" value="&lt;font style=&quot;font-size: 23px;&quot;&gt;set&lt;/font&gt;" style="text;html=1;align=center;verticalAlign=middle;resizable=0;points=[];autosize=1;strokeColor=none;fillColor=none;" vertex="1" parent="TLwpCwCnEkrLmzgMQMTA-166">
          <mxGeometry x="447" y="9" width="49" height="40" as="geometry" />
        </mxCell>
        <mxCell id="TLwpCwCnEkrLmzgMQMTA-169" value="&lt;font style=&quot;font-size: 23px;&quot;&gt;finish&lt;/font&gt;" style="text;html=1;align=center;verticalAlign=middle;resizable=0;points=[];autosize=1;strokeColor=none;fillColor=none;" vertex="1" parent="TLwpCwCnEkrLmzgMQMTA-166">
          <mxGeometry x="302" y="9" width="72" height="40" as="geometry" />
        </mxCell>
        <mxCell id="TLwpCwCnEkrLmzgMQMTA-170" value="&lt;font style=&quot;font-size: 23px;&quot;&gt;1&lt;/font&gt;" style="text;html=1;align=center;verticalAlign=middle;resizable=0;points=[];autosize=1;strokeColor=none;fillColor=none;" vertex="1" parent="TLwpCwCnEkrLmzgMQMTA-166">
          <mxGeometry x="456" y="63" width="31" height="40" as="geometry" />
        </mxCell>
        <mxCell id="TLwpCwCnEkrLmzgMQMTA-171" value="&lt;font style=&quot;font-size: 23px;&quot;&gt;0&lt;/font&gt;" style="text;html=1;align=center;verticalAlign=middle;resizable=0;points=[];autosize=1;strokeColor=none;fillColor=none;" vertex="1" parent="TLwpCwCnEkrLmzgMQMTA-166">
          <mxGeometry x="322.5" y="63" width="31" height="40" as="geometry" />
        </mxCell>
        <mxCell id="TLwpCwCnEkrLmzgMQMTA-172" value="" style="endArrow=none;html=1;rounded=0;exitX=0.75;exitY=1;exitDx=0;exitDy=0;entryX=0.75;entryY=0;entryDx=0;entryDy=0;" edge="1" parent="TLwpCwCnEkrLmzgMQMTA-166" source="TLwpCwCnEkrLmzgMQMTA-167" target="TLwpCwCnEkrLmzgMQMTA-167">
          <mxGeometry width="50" height="50" relative="1" as="geometry">
            <mxPoint x="472.09466437177286" y="76.68333333333334" as="sourcePoint" />
            <mxPoint x="518.6523235800345" y="-12.483333333333334" as="targetPoint" />
          </mxGeometry>
        </mxCell>
        <mxCell id="TLwpCwCnEkrLmzgMQMTA-173" value="" style="endArrow=none;html=1;rounded=0;exitX=0.5;exitY=1;exitDx=0;exitDy=0;entryX=0.5;entryY=0;entryDx=0;entryDy=0;" edge="1" parent="TLwpCwCnEkrLmzgMQMTA-166" source="TLwpCwCnEkrLmzgMQMTA-167" target="TLwpCwCnEkrLmzgMQMTA-167">
          <mxGeometry width="50" height="50" relative="1" as="geometry">
            <mxPoint x="415.2943201376936" y="124.83333333333334" as="sourcePoint" />
            <mxPoint x="415.2943201376936" y="17.833333333333336" as="targetPoint" />
          </mxGeometry>
        </mxCell>
        <mxCell id="TLwpCwCnEkrLmzgMQMTA-174" value="" style="endArrow=none;html=1;rounded=0;exitX=0.25;exitY=1;exitDx=0;exitDy=0;entryX=0.25;entryY=0;entryDx=0;entryDy=0;" edge="1" parent="TLwpCwCnEkrLmzgMQMTA-166" source="TLwpCwCnEkrLmzgMQMTA-167" target="TLwpCwCnEkrLmzgMQMTA-167">
          <mxGeometry width="50" height="50" relative="1" as="geometry">
            <mxPoint x="280.27710843373495" y="124.83333333333334" as="sourcePoint" />
            <mxPoint x="280.27710843373495" y="17.833333333333336" as="targetPoint" />
          </mxGeometry>
        </mxCell>
        <mxCell id="TLwpCwCnEkrLmzgMQMTA-175" value="" style="endArrow=none;html=1;rounded=0;exitX=0;exitY=0.5;exitDx=0;exitDy=0;entryX=1;entryY=0.5;entryDx=0;entryDy=0;" edge="1" parent="TLwpCwCnEkrLmzgMQMTA-166" source="TLwpCwCnEkrLmzgMQMTA-167" target="TLwpCwCnEkrLmzgMQMTA-167">
          <mxGeometry width="50" height="50" relative="1" as="geometry">
            <mxPoint x="472.09466437177286" y="43" as="sourcePoint" />
            <mxPoint x="518.6523235800345" y="-7" as="targetPoint" />
          </mxGeometry>
        </mxCell>
        <mxCell id="TLwpCwCnEkrLmzgMQMTA-176" value="" style="group" vertex="1" connectable="0" parent="1">
          <mxGeometry x="-248" y="3257" width="1086" height="291" as="geometry" />
        </mxCell>
        <mxCell id="TLwpCwCnEkrLmzgMQMTA-177" value="" style="rounded=0;whiteSpace=wrap;html=1;fontSize=16;fillColor=none;" vertex="1" parent="TLwpCwCnEkrLmzgMQMTA-176">
          <mxGeometry x="5" width="1086" height="291" as="geometry" />
        </mxCell>
        <mxCell id="TLwpCwCnEkrLmzgMQMTA-178" value="" style="group" vertex="1" connectable="0" parent="TLwpCwCnEkrLmzgMQMTA-176">
          <mxGeometry x="557.5" y="165.5" width="521" height="115" as="geometry" />
        </mxCell>
        <mxCell id="TLwpCwCnEkrLmzgMQMTA-179" value="" style="group" vertex="1" connectable="0" parent="TLwpCwCnEkrLmzgMQMTA-178">
          <mxGeometry width="521" height="115" as="geometry" />
        </mxCell>
        <mxCell id="TLwpCwCnEkrLmzgMQMTA-180" value="" style="group" vertex="1" connectable="0" parent="TLwpCwCnEkrLmzgMQMTA-179">
          <mxGeometry x="-3" width="524" height="115" as="geometry" />
        </mxCell>
        <mxCell id="TLwpCwCnEkrLmzgMQMTA-181" value="" style="whiteSpace=wrap;html=1;" vertex="1" parent="TLwpCwCnEkrLmzgMQMTA-180">
          <mxGeometry x="3" width="516.0000000000001" height="107" as="geometry" />
        </mxCell>
        <mxCell id="TLwpCwCnEkrLmzgMQMTA-182" value="&lt;font style=&quot;font-size: 23px;&quot;&gt;sensor_into&lt;/font&gt;" style="text;html=1;align=center;verticalAlign=middle;resizable=0;points=[];autosize=1;strokeColor=none;fillColor=none;" vertex="1" parent="TLwpCwCnEkrLmzgMQMTA-180">
          <mxGeometry x="384" y="8" width="137" height="40" as="geometry" />
        </mxCell>
        <mxCell id="TLwpCwCnEkrLmzgMQMTA-183" value="&lt;font style=&quot;font-size: 23px;&quot;&gt;sensor_out&lt;/font&gt;" style="text;html=1;align=center;verticalAlign=middle;resizable=0;points=[];autosize=1;strokeColor=none;fillColor=none;" vertex="1" parent="TLwpCwCnEkrLmzgMQMTA-180">
          <mxGeometry x="258" y="8" width="132" height="40" as="geometry" />
        </mxCell>
        <mxCell id="TLwpCwCnEkrLmzgMQMTA-184" value="&lt;font style=&quot;font-size: 23px;&quot;&gt;vector_into&lt;/font&gt;" style="text;html=1;align=center;verticalAlign=middle;resizable=0;points=[];autosize=1;strokeColor=none;fillColor=none;" vertex="1" parent="TLwpCwCnEkrLmzgMQMTA-180">
          <mxGeometry x="130" y="8" width="131" height="40" as="geometry" />
        </mxCell>
        <mxCell id="TLwpCwCnEkrLmzgMQMTA-185" value="&lt;font style=&quot;font-size: 23px;&quot;&gt;vector_out&lt;/font&gt;" style="text;html=1;align=center;verticalAlign=middle;resizable=0;points=[];autosize=1;strokeColor=none;fillColor=none;" vertex="1" parent="TLwpCwCnEkrLmzgMQMTA-180">
          <mxGeometry y="8" width="125" height="40" as="geometry" />
        </mxCell>
        <mxCell id="TLwpCwCnEkrLmzgMQMTA-186" value="&lt;font style=&quot;font-size: 23px;&quot;&gt;0&lt;/font&gt;" style="text;html=1;align=center;verticalAlign=middle;resizable=0;points=[];autosize=1;strokeColor=none;fillColor=none;" vertex="1" parent="TLwpCwCnEkrLmzgMQMTA-180">
          <mxGeometry x="437" y="63" width="31" height="40" as="geometry" />
        </mxCell>
        <mxCell id="TLwpCwCnEkrLmzgMQMTA-187" value="&lt;font style=&quot;font-size: 23px;&quot;&gt;0&lt;/font&gt;" style="text;html=1;align=center;verticalAlign=middle;resizable=0;points=[];autosize=1;strokeColor=none;fillColor=none;" vertex="1" parent="TLwpCwCnEkrLmzgMQMTA-180">
          <mxGeometry x="308.5" y="63" width="31" height="40" as="geometry" />
        </mxCell>
        <mxCell id="TLwpCwCnEkrLmzgMQMTA-188" value="&lt;font style=&quot;font-size: 23px;&quot;&gt;1&lt;/font&gt;" style="text;html=1;align=center;verticalAlign=middle;resizable=0;points=[];autosize=1;strokeColor=none;fillColor=none;" vertex="1" parent="TLwpCwCnEkrLmzgMQMTA-180">
          <mxGeometry x="180" y="63" width="31" height="40" as="geometry" />
        </mxCell>
        <mxCell id="TLwpCwCnEkrLmzgMQMTA-189" value="&lt;font style=&quot;font-size: 23px;&quot;&gt;0&lt;/font&gt;" style="text;html=1;align=center;verticalAlign=middle;resizable=0;points=[];autosize=1;strokeColor=none;fillColor=none;" vertex="1" parent="TLwpCwCnEkrLmzgMQMTA-180">
          <mxGeometry x="47" y="63" width="31" height="40" as="geometry" />
        </mxCell>
        <mxCell id="TLwpCwCnEkrLmzgMQMTA-190" value="" style="endArrow=none;html=1;rounded=0;exitX=0;exitY=0.5;exitDx=0;exitDy=0;entryX=1;entryY=0.5;entryDx=0;entryDy=0;" edge="1" parent="TLwpCwCnEkrLmzgMQMTA-180" source="TLwpCwCnEkrLmzgMQMTA-181" target="TLwpCwCnEkrLmzgMQMTA-181">
          <mxGeometry width="50" height="50" relative="1" as="geometry">
            <mxPoint x="450.27882960413086" y="43" as="sourcePoint" />
            <mxPoint x="494.685025817556" y="-7" as="targetPoint" />
          </mxGeometry>
        </mxCell>
        <mxCell id="TLwpCwCnEkrLmzgMQMTA-191" value="" style="endArrow=none;html=1;rounded=0;exitX=0.75;exitY=1;exitDx=0;exitDy=0;entryX=0.75;entryY=0;entryDx=0;entryDy=0;" edge="1" parent="TLwpCwCnEkrLmzgMQMTA-180" source="TLwpCwCnEkrLmzgMQMTA-181" target="TLwpCwCnEkrLmzgMQMTA-181">
          <mxGeometry width="50" height="50" relative="1" as="geometry">
            <mxPoint x="450.27882960413086" y="76.68333333333334" as="sourcePoint" />
            <mxPoint x="494.685025817556" y="-12.483333333333334" as="targetPoint" />
          </mxGeometry>
        </mxCell>
        <mxCell id="TLwpCwCnEkrLmzgMQMTA-192" value="" style="endArrow=none;html=1;rounded=0;exitX=0.5;exitY=1;exitDx=0;exitDy=0;entryX=0.5;entryY=0;entryDx=0;entryDy=0;" edge="1" parent="TLwpCwCnEkrLmzgMQMTA-180" source="TLwpCwCnEkrLmzgMQMTA-181" target="TLwpCwCnEkrLmzgMQMTA-181">
          <mxGeometry width="50" height="50" relative="1" as="geometry">
            <mxPoint x="396.1032702237522" y="124.83333333333334" as="sourcePoint" />
            <mxPoint x="396.1032702237522" y="17.833333333333336" as="targetPoint" />
          </mxGeometry>
        </mxCell>
        <mxCell id="TLwpCwCnEkrLmzgMQMTA-193" value="" style="endArrow=none;html=1;rounded=0;exitX=0.25;exitY=1;exitDx=0;exitDy=0;entryX=0.25;entryY=0;entryDx=0;entryDy=0;" edge="1" parent="TLwpCwCnEkrLmzgMQMTA-180" source="TLwpCwCnEkrLmzgMQMTA-181" target="TLwpCwCnEkrLmzgMQMTA-181">
          <mxGeometry width="50" height="50" relative="1" as="geometry">
            <mxPoint x="267.3253012048193" y="124.83333333333334" as="sourcePoint" />
            <mxPoint x="267.3253012048193" y="17.833333333333336" as="targetPoint" />
          </mxGeometry>
        </mxCell>
        <mxCell id="TLwpCwCnEkrLmzgMQMTA-381" value="" style="rounded=0;whiteSpace=wrap;html=1;fillColor=none;strokeColor=#FF0000;" vertex="1" parent="TLwpCwCnEkrLmzgMQMTA-180">
          <mxGeometry x="255.5" y="-6" width="268.5" height="121" as="geometry" />
        </mxCell>
        <mxCell id="TLwpCwCnEkrLmzgMQMTA-194" value="" style="rounded=1;whiteSpace=wrap;html=1;fontSize=16;fillColor=none;strokeColor=#FF0000;" vertex="1" parent="TLwpCwCnEkrLmzgMQMTA-176">
          <mxGeometry x="268" y="53" width="228.5" height="60" as="geometry" />
        </mxCell>
        <mxCell id="TLwpCwCnEkrLmzgMQMTA-195" value="" style="group" vertex="1" connectable="0" parent="TLwpCwCnEkrLmzgMQMTA-176">
          <mxGeometry x="16.5" y="166" width="546" height="114" as="geometry" />
        </mxCell>
        <mxCell id="TLwpCwCnEkrLmzgMQMTA-196" value="" style="group" vertex="1" connectable="0" parent="TLwpCwCnEkrLmzgMQMTA-195">
          <mxGeometry width="546" height="114" as="geometry" />
        </mxCell>
        <mxCell id="TLwpCwCnEkrLmzgMQMTA-197" value="" style="group" vertex="1" connectable="0" parent="TLwpCwCnEkrLmzgMQMTA-196">
          <mxGeometry width="546" height="114" as="geometry" />
        </mxCell>
        <mxCell id="TLwpCwCnEkrLmzgMQMTA-198" value="" style="whiteSpace=wrap;html=1;" vertex="1" parent="TLwpCwCnEkrLmzgMQMTA-197">
          <mxGeometry width="541" height="107" as="geometry" />
        </mxCell>
        <mxCell id="TLwpCwCnEkrLmzgMQMTA-199" value="&lt;font style=&quot;font-size: 23px;&quot;&gt;set&lt;/font&gt;" style="text;html=1;align=center;verticalAlign=middle;resizable=0;points=[];autosize=1;strokeColor=none;fillColor=none;" vertex="1" parent="TLwpCwCnEkrLmzgMQMTA-197">
          <mxGeometry x="447" y="9" width="49" height="40" as="geometry" />
        </mxCell>
        <mxCell id="TLwpCwCnEkrLmzgMQMTA-200" value="&lt;font style=&quot;font-size: 23px;&quot;&gt;finish&lt;/font&gt;" style="text;html=1;align=center;verticalAlign=middle;resizable=0;points=[];autosize=1;strokeColor=none;fillColor=none;" vertex="1" parent="TLwpCwCnEkrLmzgMQMTA-197">
          <mxGeometry x="302" y="9" width="72" height="40" as="geometry" />
        </mxCell>
        <mxCell id="TLwpCwCnEkrLmzgMQMTA-201" value="&lt;font style=&quot;font-size: 23px;&quot;&gt;1&lt;/font&gt;" style="text;html=1;align=center;verticalAlign=middle;resizable=0;points=[];autosize=1;strokeColor=none;fillColor=none;" vertex="1" parent="TLwpCwCnEkrLmzgMQMTA-197">
          <mxGeometry x="456" y="63" width="31" height="40" as="geometry" />
        </mxCell>
        <mxCell id="TLwpCwCnEkrLmzgMQMTA-202" value="&lt;font style=&quot;font-size: 23px;&quot;&gt;0&lt;/font&gt;" style="text;html=1;align=center;verticalAlign=middle;resizable=0;points=[];autosize=1;strokeColor=none;fillColor=none;" vertex="1" parent="TLwpCwCnEkrLmzgMQMTA-197">
          <mxGeometry x="322.5" y="63" width="31" height="40" as="geometry" />
        </mxCell>
        <mxCell id="TLwpCwCnEkrLmzgMQMTA-203" value="" style="endArrow=none;html=1;rounded=0;exitX=0.75;exitY=1;exitDx=0;exitDy=0;entryX=0.75;entryY=0;entryDx=0;entryDy=0;" edge="1" parent="TLwpCwCnEkrLmzgMQMTA-197" source="TLwpCwCnEkrLmzgMQMTA-198" target="TLwpCwCnEkrLmzgMQMTA-198">
          <mxGeometry width="50" height="50" relative="1" as="geometry">
            <mxPoint x="472.09466437177286" y="76.68333333333334" as="sourcePoint" />
            <mxPoint x="518.6523235800345" y="-12.483333333333334" as="targetPoint" />
          </mxGeometry>
        </mxCell>
        <mxCell id="TLwpCwCnEkrLmzgMQMTA-204" value="" style="endArrow=none;html=1;rounded=0;exitX=0.5;exitY=1;exitDx=0;exitDy=0;entryX=0.5;entryY=0;entryDx=0;entryDy=0;" edge="1" parent="TLwpCwCnEkrLmzgMQMTA-197" source="TLwpCwCnEkrLmzgMQMTA-198" target="TLwpCwCnEkrLmzgMQMTA-198">
          <mxGeometry width="50" height="50" relative="1" as="geometry">
            <mxPoint x="415.2943201376936" y="124.83333333333334" as="sourcePoint" />
            <mxPoint x="415.2943201376936" y="17.833333333333336" as="targetPoint" />
          </mxGeometry>
        </mxCell>
        <mxCell id="TLwpCwCnEkrLmzgMQMTA-205" value="" style="endArrow=none;html=1;rounded=0;exitX=0.25;exitY=1;exitDx=0;exitDy=0;entryX=0.25;entryY=0;entryDx=0;entryDy=0;" edge="1" parent="TLwpCwCnEkrLmzgMQMTA-197" source="TLwpCwCnEkrLmzgMQMTA-198" target="TLwpCwCnEkrLmzgMQMTA-198">
          <mxGeometry width="50" height="50" relative="1" as="geometry">
            <mxPoint x="280.27710843373495" y="124.83333333333334" as="sourcePoint" />
            <mxPoint x="280.27710843373495" y="17.833333333333336" as="targetPoint" />
          </mxGeometry>
        </mxCell>
        <mxCell id="TLwpCwCnEkrLmzgMQMTA-206" value="" style="endArrow=none;html=1;rounded=0;exitX=0;exitY=0.5;exitDx=0;exitDy=0;entryX=1;entryY=0.5;entryDx=0;entryDy=0;" edge="1" parent="TLwpCwCnEkrLmzgMQMTA-197" source="TLwpCwCnEkrLmzgMQMTA-198" target="TLwpCwCnEkrLmzgMQMTA-198">
          <mxGeometry width="50" height="50" relative="1" as="geometry">
            <mxPoint x="472.09466437177286" y="43" as="sourcePoint" />
            <mxPoint x="518.6523235800345" y="-7" as="targetPoint" />
          </mxGeometry>
        </mxCell>
        <mxCell id="TLwpCwCnEkrLmzgMQMTA-375" value="" style="rounded=0;whiteSpace=wrap;html=1;fillColor=none;strokeColor=#FF0000;" vertex="1" parent="TLwpCwCnEkrLmzgMQMTA-197">
          <mxGeometry x="266" y="47" width="143" height="66" as="geometry" />
        </mxCell>
        <mxCell id="TLwpCwCnEkrLmzgMQMTA-380" value="" style="rounded=0;whiteSpace=wrap;html=1;fillColor=none;strokeColor=#FF0000;" vertex="1" parent="TLwpCwCnEkrLmzgMQMTA-197">
          <mxGeometry x="400.5" y="-7" width="145.5" height="121" as="geometry" />
        </mxCell>
        <mxCell id="TLwpCwCnEkrLmzgMQMTA-273" value="into 상황" style="text;html=1;align=center;verticalAlign=middle;resizable=0;points=[];autosize=1;strokeColor=none;fillColor=none;" vertex="1" parent="TLwpCwCnEkrLmzgMQMTA-176">
          <mxGeometry x="16.5" y="19" width="65" height="26" as="geometry" />
        </mxCell>
        <mxCell id="TLwpCwCnEkrLmzgMQMTA-281" value="&lt;font style=&quot;font-size: 20px;&quot;&gt;count : 0&lt;/font&gt;" style="text;html=1;align=center;verticalAlign=middle;resizable=0;points=[];autosize=1;strokeColor=none;fillColor=none;" vertex="1" parent="TLwpCwCnEkrLmzgMQMTA-176">
          <mxGeometry x="952" y="28" width="95" height="36" as="geometry" />
        </mxCell>
        <mxCell id="TLwpCwCnEkrLmzgMQMTA-295" value="&lt;font style=&quot;font-size: 23px;&quot;&gt;into&lt;/font&gt;" style="text;html=1;align=center;verticalAlign=middle;resizable=0;points=[];autosize=1;strokeColor=none;fillColor=none;" vertex="1" parent="TLwpCwCnEkrLmzgMQMTA-176">
          <mxGeometry x="343" y="11" width="55" height="40" as="geometry" />
        </mxCell>
        <mxCell id="TLwpCwCnEkrLmzgMQMTA-296" value="&lt;font style=&quot;font-size: 23px;&quot;&gt;out&lt;/font&gt;" style="text;html=1;align=center;verticalAlign=middle;resizable=0;points=[];autosize=1;strokeColor=none;fillColor=none;" vertex="1" parent="TLwpCwCnEkrLmzgMQMTA-176">
          <mxGeometry x="641" y="13" width="50" height="40" as="geometry" />
        </mxCell>
        <mxCell id="TLwpCwCnEkrLmzgMQMTA-354" value="" style="endArrow=classic;html=1;rounded=0;" edge="1" parent="TLwpCwCnEkrLmzgMQMTA-176">
          <mxGeometry width="50" height="50" relative="1" as="geometry">
            <mxPoint x="790" y="82.5" as="sourcePoint" />
            <mxPoint x="902.5" y="82.5" as="targetPoint" />
          </mxGeometry>
        </mxCell>
        <mxCell id="TLwpCwCnEkrLmzgMQMTA-303" value="" style="rounded=1;whiteSpace=wrap;html=1;fontSize=16;fillColor=none;strokeColor=#FF0000;" vertex="1" parent="TLwpCwCnEkrLmzgMQMTA-176">
          <mxGeometry x="546" y="53" width="228.5" height="60" as="geometry" />
        </mxCell>
        <mxCell id="TLwpCwCnEkrLmzgMQMTA-207" value="" style="group" vertex="1" connectable="0" parent="1">
          <mxGeometry x="-255" y="3644" width="1086" height="291" as="geometry" />
        </mxCell>
        <mxCell id="TLwpCwCnEkrLmzgMQMTA-226" value="" style="group" vertex="1" connectable="0" parent="TLwpCwCnEkrLmzgMQMTA-207">
          <mxGeometry x="16.5" y="166" width="541" height="112" as="geometry" />
        </mxCell>
        <mxCell id="TLwpCwCnEkrLmzgMQMTA-227" value="" style="group" vertex="1" connectable="0" parent="TLwpCwCnEkrLmzgMQMTA-226">
          <mxGeometry width="541" height="112" as="geometry" />
        </mxCell>
        <mxCell id="TLwpCwCnEkrLmzgMQMTA-228" value="" style="group" vertex="1" connectable="0" parent="TLwpCwCnEkrLmzgMQMTA-227">
          <mxGeometry width="541" height="112" as="geometry" />
        </mxCell>
        <mxCell id="TLwpCwCnEkrLmzgMQMTA-229" value="" style="whiteSpace=wrap;html=1;" vertex="1" parent="TLwpCwCnEkrLmzgMQMTA-228">
          <mxGeometry width="541" height="107" as="geometry" />
        </mxCell>
        <mxCell id="TLwpCwCnEkrLmzgMQMTA-230" value="&lt;font style=&quot;font-size: 23px;&quot;&gt;set&lt;/font&gt;" style="text;html=1;align=center;verticalAlign=middle;resizable=0;points=[];autosize=1;strokeColor=none;fillColor=none;" vertex="1" parent="TLwpCwCnEkrLmzgMQMTA-228">
          <mxGeometry x="447" y="9" width="49" height="40" as="geometry" />
        </mxCell>
        <mxCell id="TLwpCwCnEkrLmzgMQMTA-231" value="&lt;font style=&quot;font-size: 23px;&quot;&gt;finish&lt;/font&gt;" style="text;html=1;align=center;verticalAlign=middle;resizable=0;points=[];autosize=1;strokeColor=none;fillColor=none;" vertex="1" parent="TLwpCwCnEkrLmzgMQMTA-228">
          <mxGeometry x="302" y="9" width="72" height="40" as="geometry" />
        </mxCell>
        <mxCell id="TLwpCwCnEkrLmzgMQMTA-232" value="&lt;font style=&quot;font-size: 23px;&quot;&gt;0&lt;/font&gt;" style="text;html=1;align=center;verticalAlign=middle;resizable=0;points=[];autosize=1;strokeColor=none;fillColor=none;" vertex="1" parent="TLwpCwCnEkrLmzgMQMTA-228">
          <mxGeometry x="456" y="63" width="31" height="40" as="geometry" />
        </mxCell>
        <mxCell id="TLwpCwCnEkrLmzgMQMTA-233" value="&lt;font style=&quot;font-size: 23px;&quot;&gt;1&lt;/font&gt;" style="text;html=1;align=center;verticalAlign=middle;resizable=0;points=[];autosize=1;strokeColor=none;fillColor=none;" vertex="1" parent="TLwpCwCnEkrLmzgMQMTA-228">
          <mxGeometry x="322.5" y="63" width="31" height="40" as="geometry" />
        </mxCell>
        <mxCell id="TLwpCwCnEkrLmzgMQMTA-234" value="" style="endArrow=none;html=1;rounded=0;exitX=0.75;exitY=1;exitDx=0;exitDy=0;entryX=0.75;entryY=0;entryDx=0;entryDy=0;" edge="1" parent="TLwpCwCnEkrLmzgMQMTA-228" source="TLwpCwCnEkrLmzgMQMTA-229" target="TLwpCwCnEkrLmzgMQMTA-229">
          <mxGeometry width="50" height="50" relative="1" as="geometry">
            <mxPoint x="472.09466437177286" y="76.68333333333334" as="sourcePoint" />
            <mxPoint x="518.6523235800345" y="-12.483333333333334" as="targetPoint" />
          </mxGeometry>
        </mxCell>
        <mxCell id="TLwpCwCnEkrLmzgMQMTA-235" value="" style="endArrow=none;html=1;rounded=0;exitX=0.5;exitY=1;exitDx=0;exitDy=0;entryX=0.5;entryY=0;entryDx=0;entryDy=0;" edge="1" parent="TLwpCwCnEkrLmzgMQMTA-228" source="TLwpCwCnEkrLmzgMQMTA-229" target="TLwpCwCnEkrLmzgMQMTA-229">
          <mxGeometry width="50" height="50" relative="1" as="geometry">
            <mxPoint x="415.2943201376936" y="124.83333333333334" as="sourcePoint" />
            <mxPoint x="415.2943201376936" y="17.833333333333336" as="targetPoint" />
          </mxGeometry>
        </mxCell>
        <mxCell id="TLwpCwCnEkrLmzgMQMTA-236" value="" style="endArrow=none;html=1;rounded=0;exitX=0.25;exitY=1;exitDx=0;exitDy=0;entryX=0.25;entryY=0;entryDx=0;entryDy=0;" edge="1" parent="TLwpCwCnEkrLmzgMQMTA-228" source="TLwpCwCnEkrLmzgMQMTA-229" target="TLwpCwCnEkrLmzgMQMTA-229">
          <mxGeometry width="50" height="50" relative="1" as="geometry">
            <mxPoint x="280.27710843373495" y="124.83333333333334" as="sourcePoint" />
            <mxPoint x="280.27710843373495" y="17.833333333333336" as="targetPoint" />
          </mxGeometry>
        </mxCell>
        <mxCell id="TLwpCwCnEkrLmzgMQMTA-237" value="" style="endArrow=none;html=1;rounded=0;exitX=0;exitY=0.5;exitDx=0;exitDy=0;entryX=1;entryY=0.5;entryDx=0;entryDy=0;" edge="1" parent="TLwpCwCnEkrLmzgMQMTA-228" source="TLwpCwCnEkrLmzgMQMTA-229" target="TLwpCwCnEkrLmzgMQMTA-229">
          <mxGeometry width="50" height="50" relative="1" as="geometry">
            <mxPoint x="472.09466437177286" y="43" as="sourcePoint" />
            <mxPoint x="518.6523235800345" y="-7" as="targetPoint" />
          </mxGeometry>
        </mxCell>
        <mxCell id="TLwpCwCnEkrLmzgMQMTA-382" value="" style="rounded=0;whiteSpace=wrap;html=1;fillColor=none;strokeColor=#FF0000;" vertex="1" parent="TLwpCwCnEkrLmzgMQMTA-228">
          <mxGeometry x="265.75" y="-8" width="144.25" height="120" as="geometry" />
        </mxCell>
        <mxCell id="TLwpCwCnEkrLmzgMQMTA-208" value="" style="rounded=0;whiteSpace=wrap;html=1;fontSize=16;fillColor=none;" vertex="1" parent="TLwpCwCnEkrLmzgMQMTA-207">
          <mxGeometry width="1086" height="291" as="geometry" />
        </mxCell>
        <mxCell id="TLwpCwCnEkrLmzgMQMTA-209" value="" style="group" vertex="1" connectable="0" parent="TLwpCwCnEkrLmzgMQMTA-207">
          <mxGeometry x="557.5" y="165.5" width="518" height="115" as="geometry" />
        </mxCell>
        <mxCell id="TLwpCwCnEkrLmzgMQMTA-210" value="" style="group" vertex="1" connectable="0" parent="TLwpCwCnEkrLmzgMQMTA-209">
          <mxGeometry width="518" height="115" as="geometry" />
        </mxCell>
        <mxCell id="TLwpCwCnEkrLmzgMQMTA-211" value="" style="group" vertex="1" connectable="0" parent="TLwpCwCnEkrLmzgMQMTA-210">
          <mxGeometry x="-3" width="521" height="115" as="geometry" />
        </mxCell>
        <mxCell id="TLwpCwCnEkrLmzgMQMTA-212" value="" style="whiteSpace=wrap;html=1;" vertex="1" parent="TLwpCwCnEkrLmzgMQMTA-211">
          <mxGeometry x="3" width="516.0000000000001" height="107" as="geometry" />
        </mxCell>
        <mxCell id="TLwpCwCnEkrLmzgMQMTA-213" value="&lt;font style=&quot;font-size: 23px;&quot;&gt;sensor_into&lt;/font&gt;" style="text;html=1;align=center;verticalAlign=middle;resizable=0;points=[];autosize=1;strokeColor=none;fillColor=none;" vertex="1" parent="TLwpCwCnEkrLmzgMQMTA-211">
          <mxGeometry x="384" y="8" width="137" height="40" as="geometry" />
        </mxCell>
        <mxCell id="TLwpCwCnEkrLmzgMQMTA-214" value="&lt;font style=&quot;font-size: 23px;&quot;&gt;sensor_out&lt;/font&gt;" style="text;html=1;align=center;verticalAlign=middle;resizable=0;points=[];autosize=1;strokeColor=none;fillColor=none;" vertex="1" parent="TLwpCwCnEkrLmzgMQMTA-211">
          <mxGeometry x="258" y="8" width="132" height="40" as="geometry" />
        </mxCell>
        <mxCell id="TLwpCwCnEkrLmzgMQMTA-215" value="&lt;font style=&quot;font-size: 23px;&quot;&gt;vector_into&lt;/font&gt;" style="text;html=1;align=center;verticalAlign=middle;resizable=0;points=[];autosize=1;strokeColor=none;fillColor=none;" vertex="1" parent="TLwpCwCnEkrLmzgMQMTA-211">
          <mxGeometry x="130" y="8" width="131" height="40" as="geometry" />
        </mxCell>
        <mxCell id="TLwpCwCnEkrLmzgMQMTA-216" value="&lt;font style=&quot;font-size: 23px;&quot;&gt;vector_out&lt;/font&gt;" style="text;html=1;align=center;verticalAlign=middle;resizable=0;points=[];autosize=1;strokeColor=none;fillColor=none;" vertex="1" parent="TLwpCwCnEkrLmzgMQMTA-211">
          <mxGeometry y="8" width="125" height="40" as="geometry" />
        </mxCell>
        <mxCell id="TLwpCwCnEkrLmzgMQMTA-217" value="&lt;font style=&quot;font-size: 23px;&quot;&gt;0&lt;/font&gt;" style="text;html=1;align=center;verticalAlign=middle;resizable=0;points=[];autosize=1;strokeColor=none;fillColor=none;" vertex="1" parent="TLwpCwCnEkrLmzgMQMTA-211">
          <mxGeometry x="437" y="63" width="31" height="40" as="geometry" />
        </mxCell>
        <mxCell id="TLwpCwCnEkrLmzgMQMTA-218" value="&lt;font style=&quot;font-size: 23px;&quot;&gt;0&lt;/font&gt;" style="text;html=1;align=center;verticalAlign=middle;resizable=0;points=[];autosize=1;strokeColor=none;fillColor=none;" vertex="1" parent="TLwpCwCnEkrLmzgMQMTA-211">
          <mxGeometry x="308.5" y="63" width="31" height="40" as="geometry" />
        </mxCell>
        <mxCell id="TLwpCwCnEkrLmzgMQMTA-219" value="&lt;font style=&quot;font-size: 23px;&quot;&gt;1&lt;/font&gt;" style="text;html=1;align=center;verticalAlign=middle;resizable=0;points=[];autosize=1;strokeColor=none;fillColor=none;" vertex="1" parent="TLwpCwCnEkrLmzgMQMTA-211">
          <mxGeometry x="180" y="63" width="31" height="40" as="geometry" />
        </mxCell>
        <mxCell id="TLwpCwCnEkrLmzgMQMTA-220" value="&lt;font style=&quot;font-size: 23px;&quot;&gt;0&lt;/font&gt;" style="text;html=1;align=center;verticalAlign=middle;resizable=0;points=[];autosize=1;strokeColor=none;fillColor=none;" vertex="1" parent="TLwpCwCnEkrLmzgMQMTA-211">
          <mxGeometry x="47" y="63" width="31" height="40" as="geometry" />
        </mxCell>
        <mxCell id="TLwpCwCnEkrLmzgMQMTA-221" value="" style="endArrow=none;html=1;rounded=0;exitX=0;exitY=0.5;exitDx=0;exitDy=0;entryX=1;entryY=0.5;entryDx=0;entryDy=0;" edge="1" parent="TLwpCwCnEkrLmzgMQMTA-211" source="TLwpCwCnEkrLmzgMQMTA-212" target="TLwpCwCnEkrLmzgMQMTA-212">
          <mxGeometry width="50" height="50" relative="1" as="geometry">
            <mxPoint x="450.27882960413086" y="43" as="sourcePoint" />
            <mxPoint x="494.685025817556" y="-7" as="targetPoint" />
          </mxGeometry>
        </mxCell>
        <mxCell id="TLwpCwCnEkrLmzgMQMTA-222" value="" style="endArrow=none;html=1;rounded=0;exitX=0.75;exitY=1;exitDx=0;exitDy=0;entryX=0.75;entryY=0;entryDx=0;entryDy=0;" edge="1" parent="TLwpCwCnEkrLmzgMQMTA-211" source="TLwpCwCnEkrLmzgMQMTA-212" target="TLwpCwCnEkrLmzgMQMTA-212">
          <mxGeometry width="50" height="50" relative="1" as="geometry">
            <mxPoint x="450.27882960413086" y="76.68333333333334" as="sourcePoint" />
            <mxPoint x="494.685025817556" y="-12.483333333333334" as="targetPoint" />
          </mxGeometry>
        </mxCell>
        <mxCell id="TLwpCwCnEkrLmzgMQMTA-223" value="" style="endArrow=none;html=1;rounded=0;exitX=0.5;exitY=1;exitDx=0;exitDy=0;entryX=0.5;entryY=0;entryDx=0;entryDy=0;" edge="1" parent="TLwpCwCnEkrLmzgMQMTA-211" source="TLwpCwCnEkrLmzgMQMTA-212" target="TLwpCwCnEkrLmzgMQMTA-212">
          <mxGeometry width="50" height="50" relative="1" as="geometry">
            <mxPoint x="396.1032702237522" y="124.83333333333334" as="sourcePoint" />
            <mxPoint x="396.1032702237522" y="17.833333333333336" as="targetPoint" />
          </mxGeometry>
        </mxCell>
        <mxCell id="TLwpCwCnEkrLmzgMQMTA-224" value="" style="endArrow=none;html=1;rounded=0;exitX=0.25;exitY=1;exitDx=0;exitDy=0;entryX=0.25;entryY=0;entryDx=0;entryDy=0;" edge="1" parent="TLwpCwCnEkrLmzgMQMTA-211" source="TLwpCwCnEkrLmzgMQMTA-212" target="TLwpCwCnEkrLmzgMQMTA-212">
          <mxGeometry width="50" height="50" relative="1" as="geometry">
            <mxPoint x="267.3253012048193" y="124.83333333333334" as="sourcePoint" />
            <mxPoint x="267.3253012048193" y="17.833333333333336" as="targetPoint" />
          </mxGeometry>
        </mxCell>
        <mxCell id="TLwpCwCnEkrLmzgMQMTA-383" value="" style="rounded=0;whiteSpace=wrap;html=1;fillColor=none;strokeColor=#FF0000;" vertex="1" parent="TLwpCwCnEkrLmzgMQMTA-211">
          <mxGeometry x="-4.5" y="-12" width="272.5" height="127" as="geometry" />
        </mxCell>
        <mxCell id="TLwpCwCnEkrLmzgMQMTA-225" value="" style="rounded=1;whiteSpace=wrap;html=1;fontSize=16;fillColor=none;strokeColor=#FF0000;" vertex="1" parent="TLwpCwCnEkrLmzgMQMTA-207">
          <mxGeometry x="288" y="49" width="228.5" height="60" as="geometry" />
        </mxCell>
        <mxCell id="TLwpCwCnEkrLmzgMQMTA-274" value="into 상황" style="text;html=1;align=center;verticalAlign=middle;resizable=0;points=[];autosize=1;strokeColor=none;fillColor=none;" vertex="1" parent="TLwpCwCnEkrLmzgMQMTA-207">
          <mxGeometry x="19" y="23" width="65" height="26" as="geometry" />
        </mxCell>
        <mxCell id="TLwpCwCnEkrLmzgMQMTA-282" value="&lt;font style=&quot;font-size: 20px;&quot;&gt;count : 0&lt;/font&gt;" style="text;html=1;align=center;verticalAlign=middle;resizable=0;points=[];autosize=1;strokeColor=none;fillColor=none;" vertex="1" parent="TLwpCwCnEkrLmzgMQMTA-207">
          <mxGeometry x="958" y="27" width="95" height="36" as="geometry" />
        </mxCell>
        <mxCell id="TLwpCwCnEkrLmzgMQMTA-297" value="&lt;font style=&quot;font-size: 23px;&quot;&gt;into&lt;/font&gt;" style="text;html=1;align=center;verticalAlign=middle;resizable=0;points=[];autosize=1;strokeColor=none;fillColor=none;" vertex="1" parent="TLwpCwCnEkrLmzgMQMTA-207">
          <mxGeometry x="359" y="7" width="55" height="40" as="geometry" />
        </mxCell>
        <mxCell id="TLwpCwCnEkrLmzgMQMTA-298" value="&lt;font style=&quot;font-size: 23px;&quot;&gt;out&lt;/font&gt;" style="text;html=1;align=center;verticalAlign=middle;resizable=0;points=[];autosize=1;strokeColor=none;fillColor=none;" vertex="1" parent="TLwpCwCnEkrLmzgMQMTA-207">
          <mxGeometry x="657" y="9" width="50" height="40" as="geometry" />
        </mxCell>
        <mxCell id="TLwpCwCnEkrLmzgMQMTA-302" value="" style="rounded=1;whiteSpace=wrap;html=1;fontSize=16;fillColor=none;strokeColor=#FF0000;" vertex="1" parent="TLwpCwCnEkrLmzgMQMTA-207">
          <mxGeometry x="549" y="49" width="228.5" height="60" as="geometry" />
        </mxCell>
        <mxCell id="TLwpCwCnEkrLmzgMQMTA-355" value="" style="endArrow=classic;html=1;rounded=0;" edge="1" parent="TLwpCwCnEkrLmzgMQMTA-207">
          <mxGeometry width="50" height="50" relative="1" as="geometry">
            <mxPoint x="792" y="78.5" as="sourcePoint" />
            <mxPoint x="904.5" y="78.5" as="targetPoint" />
          </mxGeometry>
        </mxCell>
        <mxCell id="TLwpCwCnEkrLmzgMQMTA-384" value="" style="rounded=0;whiteSpace=wrap;html=1;fillColor=none;strokeColor=#FF0000;" vertex="1" parent="TLwpCwCnEkrLmzgMQMTA-207">
          <mxGeometry x="948" y="28" width="117" height="33" as="geometry" />
        </mxCell>
        <mxCell id="TLwpCwCnEkrLmzgMQMTA-238" value="" style="group" vertex="1" connectable="0" parent="1">
          <mxGeometry x="-250" y="4034" width="1086" height="291" as="geometry" />
        </mxCell>
        <mxCell id="TLwpCwCnEkrLmzgMQMTA-239" value="" style="rounded=0;whiteSpace=wrap;html=1;fontSize=16;fillColor=none;" vertex="1" parent="TLwpCwCnEkrLmzgMQMTA-238">
          <mxGeometry width="1086" height="291" as="geometry" />
        </mxCell>
        <mxCell id="TLwpCwCnEkrLmzgMQMTA-240" value="" style="group" vertex="1" connectable="0" parent="TLwpCwCnEkrLmzgMQMTA-238">
          <mxGeometry x="557.5" y="165.5" width="518" height="107" as="geometry" />
        </mxCell>
        <mxCell id="TLwpCwCnEkrLmzgMQMTA-241" value="" style="group" vertex="1" connectable="0" parent="TLwpCwCnEkrLmzgMQMTA-240">
          <mxGeometry width="518" height="107" as="geometry" />
        </mxCell>
        <mxCell id="TLwpCwCnEkrLmzgMQMTA-242" value="" style="group" vertex="1" connectable="0" parent="TLwpCwCnEkrLmzgMQMTA-241">
          <mxGeometry x="-3" width="521" height="107" as="geometry" />
        </mxCell>
        <mxCell id="TLwpCwCnEkrLmzgMQMTA-243" value="" style="whiteSpace=wrap;html=1;" vertex="1" parent="TLwpCwCnEkrLmzgMQMTA-242">
          <mxGeometry x="3" width="516.0000000000001" height="107" as="geometry" />
        </mxCell>
        <mxCell id="TLwpCwCnEkrLmzgMQMTA-244" value="&lt;font style=&quot;font-size: 23px;&quot;&gt;sensor_into&lt;/font&gt;" style="text;html=1;align=center;verticalAlign=middle;resizable=0;points=[];autosize=1;strokeColor=none;fillColor=none;" vertex="1" parent="TLwpCwCnEkrLmzgMQMTA-242">
          <mxGeometry x="384" y="8" width="137" height="40" as="geometry" />
        </mxCell>
        <mxCell id="TLwpCwCnEkrLmzgMQMTA-245" value="&lt;font style=&quot;font-size: 23px;&quot;&gt;sensor_out&lt;/font&gt;" style="text;html=1;align=center;verticalAlign=middle;resizable=0;points=[];autosize=1;strokeColor=none;fillColor=none;" vertex="1" parent="TLwpCwCnEkrLmzgMQMTA-242">
          <mxGeometry x="258" y="8" width="132" height="40" as="geometry" />
        </mxCell>
        <mxCell id="TLwpCwCnEkrLmzgMQMTA-246" value="&lt;font style=&quot;font-size: 23px;&quot;&gt;vector_into&lt;/font&gt;" style="text;html=1;align=center;verticalAlign=middle;resizable=0;points=[];autosize=1;strokeColor=none;fillColor=none;" vertex="1" parent="TLwpCwCnEkrLmzgMQMTA-242">
          <mxGeometry x="130" y="8" width="131" height="40" as="geometry" />
        </mxCell>
        <mxCell id="TLwpCwCnEkrLmzgMQMTA-247" value="&lt;font style=&quot;font-size: 23px;&quot;&gt;vector_out&lt;/font&gt;" style="text;html=1;align=center;verticalAlign=middle;resizable=0;points=[];autosize=1;strokeColor=none;fillColor=none;" vertex="1" parent="TLwpCwCnEkrLmzgMQMTA-242">
          <mxGeometry y="8" width="125" height="40" as="geometry" />
        </mxCell>
        <mxCell id="TLwpCwCnEkrLmzgMQMTA-248" value="&lt;font style=&quot;font-size: 23px;&quot;&gt;0&lt;/font&gt;" style="text;html=1;align=center;verticalAlign=middle;resizable=0;points=[];autosize=1;strokeColor=none;fillColor=none;" vertex="1" parent="TLwpCwCnEkrLmzgMQMTA-242">
          <mxGeometry x="437" y="63" width="31" height="40" as="geometry" />
        </mxCell>
        <mxCell id="TLwpCwCnEkrLmzgMQMTA-249" value="&lt;font style=&quot;font-size: 23px;&quot;&gt;0&lt;/font&gt;" style="text;html=1;align=center;verticalAlign=middle;resizable=0;points=[];autosize=1;strokeColor=none;fillColor=none;" vertex="1" parent="TLwpCwCnEkrLmzgMQMTA-242">
          <mxGeometry x="308.5" y="63" width="31" height="40" as="geometry" />
        </mxCell>
        <mxCell id="TLwpCwCnEkrLmzgMQMTA-250" value="&lt;font style=&quot;font-size: 23px;&quot;&gt;0&lt;/font&gt;" style="text;html=1;align=center;verticalAlign=middle;resizable=0;points=[];autosize=1;strokeColor=none;fillColor=none;" vertex="1" parent="TLwpCwCnEkrLmzgMQMTA-242">
          <mxGeometry x="180" y="63" width="31" height="40" as="geometry" />
        </mxCell>
        <mxCell id="TLwpCwCnEkrLmzgMQMTA-251" value="&lt;font style=&quot;font-size: 23px;&quot;&gt;0&lt;/font&gt;" style="text;html=1;align=center;verticalAlign=middle;resizable=0;points=[];autosize=1;strokeColor=none;fillColor=none;" vertex="1" parent="TLwpCwCnEkrLmzgMQMTA-242">
          <mxGeometry x="47" y="63" width="31" height="40" as="geometry" />
        </mxCell>
        <mxCell id="TLwpCwCnEkrLmzgMQMTA-252" value="" style="endArrow=none;html=1;rounded=0;exitX=0;exitY=0.5;exitDx=0;exitDy=0;entryX=1;entryY=0.5;entryDx=0;entryDy=0;" edge="1" parent="TLwpCwCnEkrLmzgMQMTA-242" source="TLwpCwCnEkrLmzgMQMTA-243" target="TLwpCwCnEkrLmzgMQMTA-243">
          <mxGeometry width="50" height="50" relative="1" as="geometry">
            <mxPoint x="450.27882960413086" y="43" as="sourcePoint" />
            <mxPoint x="494.685025817556" y="-7" as="targetPoint" />
          </mxGeometry>
        </mxCell>
        <mxCell id="TLwpCwCnEkrLmzgMQMTA-253" value="" style="endArrow=none;html=1;rounded=0;exitX=0.75;exitY=1;exitDx=0;exitDy=0;entryX=0.75;entryY=0;entryDx=0;entryDy=0;" edge="1" parent="TLwpCwCnEkrLmzgMQMTA-242" source="TLwpCwCnEkrLmzgMQMTA-243" target="TLwpCwCnEkrLmzgMQMTA-243">
          <mxGeometry width="50" height="50" relative="1" as="geometry">
            <mxPoint x="450.27882960413086" y="76.68333333333334" as="sourcePoint" />
            <mxPoint x="494.685025817556" y="-12.483333333333334" as="targetPoint" />
          </mxGeometry>
        </mxCell>
        <mxCell id="TLwpCwCnEkrLmzgMQMTA-254" value="" style="endArrow=none;html=1;rounded=0;exitX=0.5;exitY=1;exitDx=0;exitDy=0;entryX=0.5;entryY=0;entryDx=0;entryDy=0;" edge="1" parent="TLwpCwCnEkrLmzgMQMTA-242" source="TLwpCwCnEkrLmzgMQMTA-243" target="TLwpCwCnEkrLmzgMQMTA-243">
          <mxGeometry width="50" height="50" relative="1" as="geometry">
            <mxPoint x="396.1032702237522" y="124.83333333333334" as="sourcePoint" />
            <mxPoint x="396.1032702237522" y="17.833333333333336" as="targetPoint" />
          </mxGeometry>
        </mxCell>
        <mxCell id="TLwpCwCnEkrLmzgMQMTA-255" value="" style="endArrow=none;html=1;rounded=0;exitX=0.25;exitY=1;exitDx=0;exitDy=0;entryX=0.25;entryY=0;entryDx=0;entryDy=0;" edge="1" parent="TLwpCwCnEkrLmzgMQMTA-242" source="TLwpCwCnEkrLmzgMQMTA-243" target="TLwpCwCnEkrLmzgMQMTA-243">
          <mxGeometry width="50" height="50" relative="1" as="geometry">
            <mxPoint x="267.3253012048193" y="124.83333333333334" as="sourcePoint" />
            <mxPoint x="267.3253012048193" y="17.833333333333336" as="targetPoint" />
          </mxGeometry>
        </mxCell>
        <mxCell id="TLwpCwCnEkrLmzgMQMTA-256" value="" style="rounded=1;whiteSpace=wrap;html=1;fontSize=16;fillColor=none;strokeColor=#FF0000;" vertex="1" parent="TLwpCwCnEkrLmzgMQMTA-238">
          <mxGeometry x="276" y="56" width="228.5" height="60" as="geometry" />
        </mxCell>
        <mxCell id="TLwpCwCnEkrLmzgMQMTA-257" value="" style="group" vertex="1" connectable="0" parent="TLwpCwCnEkrLmzgMQMTA-238">
          <mxGeometry x="16.5" y="166" width="541" height="107" as="geometry" />
        </mxCell>
        <mxCell id="TLwpCwCnEkrLmzgMQMTA-258" value="" style="group" vertex="1" connectable="0" parent="TLwpCwCnEkrLmzgMQMTA-257">
          <mxGeometry width="541" height="107" as="geometry" />
        </mxCell>
        <mxCell id="TLwpCwCnEkrLmzgMQMTA-259" value="" style="group" vertex="1" connectable="0" parent="TLwpCwCnEkrLmzgMQMTA-258">
          <mxGeometry width="541" height="107" as="geometry" />
        </mxCell>
        <mxCell id="TLwpCwCnEkrLmzgMQMTA-260" value="" style="whiteSpace=wrap;html=1;" vertex="1" parent="TLwpCwCnEkrLmzgMQMTA-259">
          <mxGeometry width="541" height="107" as="geometry" />
        </mxCell>
        <mxCell id="TLwpCwCnEkrLmzgMQMTA-261" value="&lt;font style=&quot;font-size: 23px;&quot;&gt;set&lt;/font&gt;" style="text;html=1;align=center;verticalAlign=middle;resizable=0;points=[];autosize=1;strokeColor=none;fillColor=none;" vertex="1" parent="TLwpCwCnEkrLmzgMQMTA-259">
          <mxGeometry x="447" y="9" width="49" height="40" as="geometry" />
        </mxCell>
        <mxCell id="TLwpCwCnEkrLmzgMQMTA-262" value="&lt;font style=&quot;font-size: 23px;&quot;&gt;finish&lt;/font&gt;" style="text;html=1;align=center;verticalAlign=middle;resizable=0;points=[];autosize=1;strokeColor=none;fillColor=none;" vertex="1" parent="TLwpCwCnEkrLmzgMQMTA-259">
          <mxGeometry x="302" y="9" width="72" height="40" as="geometry" />
        </mxCell>
        <mxCell id="TLwpCwCnEkrLmzgMQMTA-263" value="&lt;font style=&quot;font-size: 23px;&quot;&gt;0&lt;/font&gt;" style="text;html=1;align=center;verticalAlign=middle;resizable=0;points=[];autosize=1;strokeColor=none;fillColor=none;" vertex="1" parent="TLwpCwCnEkrLmzgMQMTA-259">
          <mxGeometry x="456" y="63" width="31" height="40" as="geometry" />
        </mxCell>
        <mxCell id="TLwpCwCnEkrLmzgMQMTA-264" value="&lt;font style=&quot;font-size: 23px;&quot;&gt;0&lt;/font&gt;" style="text;html=1;align=center;verticalAlign=middle;resizable=0;points=[];autosize=1;strokeColor=none;fillColor=none;" vertex="1" parent="TLwpCwCnEkrLmzgMQMTA-259">
          <mxGeometry x="322.5" y="63" width="31" height="40" as="geometry" />
        </mxCell>
        <mxCell id="TLwpCwCnEkrLmzgMQMTA-265" value="" style="endArrow=none;html=1;rounded=0;exitX=0.75;exitY=1;exitDx=0;exitDy=0;entryX=0.75;entryY=0;entryDx=0;entryDy=0;" edge="1" parent="TLwpCwCnEkrLmzgMQMTA-259" source="TLwpCwCnEkrLmzgMQMTA-260" target="TLwpCwCnEkrLmzgMQMTA-260">
          <mxGeometry width="50" height="50" relative="1" as="geometry">
            <mxPoint x="472.09466437177286" y="76.68333333333334" as="sourcePoint" />
            <mxPoint x="518.6523235800345" y="-12.483333333333334" as="targetPoint" />
          </mxGeometry>
        </mxCell>
        <mxCell id="TLwpCwCnEkrLmzgMQMTA-266" value="" style="endArrow=none;html=1;rounded=0;exitX=0.5;exitY=1;exitDx=0;exitDy=0;entryX=0.5;entryY=0;entryDx=0;entryDy=0;" edge="1" parent="TLwpCwCnEkrLmzgMQMTA-259" source="TLwpCwCnEkrLmzgMQMTA-260" target="TLwpCwCnEkrLmzgMQMTA-260">
          <mxGeometry width="50" height="50" relative="1" as="geometry">
            <mxPoint x="415.2943201376936" y="124.83333333333334" as="sourcePoint" />
            <mxPoint x="415.2943201376936" y="17.833333333333336" as="targetPoint" />
          </mxGeometry>
        </mxCell>
        <mxCell id="TLwpCwCnEkrLmzgMQMTA-267" value="" style="endArrow=none;html=1;rounded=0;exitX=0.25;exitY=1;exitDx=0;exitDy=0;entryX=0.25;entryY=0;entryDx=0;entryDy=0;" edge="1" parent="TLwpCwCnEkrLmzgMQMTA-259" source="TLwpCwCnEkrLmzgMQMTA-260" target="TLwpCwCnEkrLmzgMQMTA-260">
          <mxGeometry width="50" height="50" relative="1" as="geometry">
            <mxPoint x="280.27710843373495" y="124.83333333333334" as="sourcePoint" />
            <mxPoint x="280.27710843373495" y="17.833333333333336" as="targetPoint" />
          </mxGeometry>
        </mxCell>
        <mxCell id="TLwpCwCnEkrLmzgMQMTA-268" value="" style="endArrow=none;html=1;rounded=0;exitX=0;exitY=0.5;exitDx=0;exitDy=0;entryX=1;entryY=0.5;entryDx=0;entryDy=0;" edge="1" parent="TLwpCwCnEkrLmzgMQMTA-259" source="TLwpCwCnEkrLmzgMQMTA-260" target="TLwpCwCnEkrLmzgMQMTA-260">
          <mxGeometry width="50" height="50" relative="1" as="geometry">
            <mxPoint x="472.09466437177286" y="43" as="sourcePoint" />
            <mxPoint x="518.6523235800345" y="-7" as="targetPoint" />
          </mxGeometry>
        </mxCell>
        <mxCell id="TLwpCwCnEkrLmzgMQMTA-275" value="into 상황" style="text;html=1;align=center;verticalAlign=middle;resizable=0;points=[];autosize=1;strokeColor=none;fillColor=none;" vertex="1" parent="TLwpCwCnEkrLmzgMQMTA-238">
          <mxGeometry x="20" y="26" width="65" height="26" as="geometry" />
        </mxCell>
        <mxCell id="TLwpCwCnEkrLmzgMQMTA-283" value="&lt;font style=&quot;font-size: 20px;&quot;&gt;count : 1&lt;/font&gt;" style="text;html=1;align=center;verticalAlign=middle;resizable=0;points=[];autosize=1;strokeColor=none;fillColor=none;" vertex="1" parent="TLwpCwCnEkrLmzgMQMTA-238">
          <mxGeometry x="955" y="24" width="95" height="36" as="geometry" />
        </mxCell>
        <mxCell id="TLwpCwCnEkrLmzgMQMTA-299" value="&lt;font style=&quot;font-size: 23px;&quot;&gt;into&lt;/font&gt;" style="text;html=1;align=center;verticalAlign=middle;resizable=0;points=[];autosize=1;strokeColor=none;fillColor=none;" vertex="1" parent="TLwpCwCnEkrLmzgMQMTA-238">
          <mxGeometry x="349" y="10" width="55" height="40" as="geometry" />
        </mxCell>
        <mxCell id="TLwpCwCnEkrLmzgMQMTA-300" value="&lt;font style=&quot;font-size: 23px;&quot;&gt;out&lt;/font&gt;" style="text;html=1;align=center;verticalAlign=middle;resizable=0;points=[];autosize=1;strokeColor=none;fillColor=none;" vertex="1" parent="TLwpCwCnEkrLmzgMQMTA-238">
          <mxGeometry x="647" y="12" width="50" height="40" as="geometry" />
        </mxCell>
        <mxCell id="TLwpCwCnEkrLmzgMQMTA-301" value="" style="rounded=1;whiteSpace=wrap;html=1;fontSize=16;fillColor=none;strokeColor=#FF0000;" vertex="1" parent="TLwpCwCnEkrLmzgMQMTA-238">
          <mxGeometry x="539" y="56" width="228.5" height="60" as="geometry" />
        </mxCell>
        <mxCell id="TLwpCwCnEkrLmzgMQMTA-356" value="" style="endArrow=classic;html=1;rounded=0;" edge="1" parent="TLwpCwCnEkrLmzgMQMTA-238">
          <mxGeometry width="50" height="50" relative="1" as="geometry">
            <mxPoint x="788" y="89" as="sourcePoint" />
            <mxPoint x="900.5" y="89" as="targetPoint" />
          </mxGeometry>
        </mxCell>
        <mxCell id="TLwpCwCnEkrLmzgMQMTA-269" value="into 상황" style="text;html=1;align=center;verticalAlign=middle;resizable=0;points=[];autosize=1;strokeColor=none;fillColor=none;" vertex="1" parent="1">
          <mxGeometry x="-235" y="1391" width="65" height="26" as="geometry" />
        </mxCell>
        <mxCell id="TLwpCwCnEkrLmzgMQMTA-270" value="into 상황" style="text;html=1;align=center;verticalAlign=middle;resizable=0;points=[];autosize=1;strokeColor=none;fillColor=none;" vertex="1" parent="1">
          <mxGeometry x="-224.75" y="1810" width="65" height="26" as="geometry" />
        </mxCell>
        <mxCell id="TLwpCwCnEkrLmzgMQMTA-271" value="into 상황" style="text;html=1;align=center;verticalAlign=middle;resizable=0;points=[];autosize=1;strokeColor=none;fillColor=none;" vertex="1" parent="1">
          <mxGeometry x="-227" y="2219" width="65" height="26" as="geometry" />
        </mxCell>
        <mxCell id="TLwpCwCnEkrLmzgMQMTA-272" value="into 상황" style="text;html=1;align=center;verticalAlign=middle;resizable=0;points=[];autosize=1;strokeColor=none;fillColor=none;" vertex="1" parent="1">
          <mxGeometry x="-227" y="2547" width="65" height="26" as="geometry" />
        </mxCell>
        <mxCell id="TLwpCwCnEkrLmzgMQMTA-277" value="&lt;font style=&quot;font-size: 20px;&quot;&gt;count : 0&lt;/font&gt;" style="text;html=1;align=center;verticalAlign=middle;resizable=0;points=[];autosize=1;strokeColor=none;fillColor=none;" vertex="1" parent="1">
          <mxGeometry x="693" y="1393" width="95" height="36" as="geometry" />
        </mxCell>
        <mxCell id="TLwpCwCnEkrLmzgMQMTA-278" value="&lt;font style=&quot;font-size: 20px;&quot;&gt;count : 0&lt;/font&gt;" style="text;html=1;align=center;verticalAlign=middle;resizable=0;points=[];autosize=1;strokeColor=none;fillColor=none;" vertex="1" parent="1">
          <mxGeometry x="705" y="1810" width="95" height="36" as="geometry" />
        </mxCell>
        <mxCell id="TLwpCwCnEkrLmzgMQMTA-279" value="&lt;font style=&quot;font-size: 20px;&quot;&gt;count : 0&lt;/font&gt;" style="text;html=1;align=center;verticalAlign=middle;resizable=0;points=[];autosize=1;strokeColor=none;fillColor=none;" vertex="1" parent="1">
          <mxGeometry x="703" y="2204" width="95" height="36" as="geometry" />
        </mxCell>
        <mxCell id="TLwpCwCnEkrLmzgMQMTA-280" value="&lt;font style=&quot;font-size: 20px;&quot;&gt;count : 0&lt;/font&gt;" style="text;html=1;align=center;verticalAlign=middle;resizable=0;points=[];autosize=1;strokeColor=none;fillColor=none;" vertex="1" parent="1">
          <mxGeometry x="703" y="2542" width="95" height="36" as="geometry" />
        </mxCell>
        <mxCell id="TLwpCwCnEkrLmzgMQMTA-287" value="&lt;font style=&quot;font-size: 23px;&quot;&gt;into&lt;/font&gt;" style="text;html=1;align=center;verticalAlign=middle;resizable=0;points=[];autosize=1;strokeColor=none;fillColor=none;" vertex="1" parent="1">
          <mxGeometry x="104" y="1369" width="55" height="40" as="geometry" />
        </mxCell>
        <mxCell id="TLwpCwCnEkrLmzgMQMTA-288" value="&lt;font style=&quot;font-size: 23px;&quot;&gt;out&lt;/font&gt;" style="text;html=1;align=center;verticalAlign=middle;resizable=0;points=[];autosize=1;strokeColor=none;fillColor=none;" vertex="1" parent="1">
          <mxGeometry x="402" y="1371" width="50" height="40" as="geometry" />
        </mxCell>
        <mxCell id="TLwpCwCnEkrLmzgMQMTA-289" value="&lt;font style=&quot;font-size: 23px;&quot;&gt;into&lt;/font&gt;" style="text;html=1;align=center;verticalAlign=middle;resizable=0;points=[];autosize=1;strokeColor=none;fillColor=none;" vertex="1" parent="1">
          <mxGeometry x="111" y="1794" width="55" height="40" as="geometry" />
        </mxCell>
        <mxCell id="TLwpCwCnEkrLmzgMQMTA-290" value="&lt;font style=&quot;font-size: 23px;&quot;&gt;out&lt;/font&gt;" style="text;html=1;align=center;verticalAlign=middle;resizable=0;points=[];autosize=1;strokeColor=none;fillColor=none;" vertex="1" parent="1">
          <mxGeometry x="409" y="1796" width="50" height="40" as="geometry" />
        </mxCell>
        <mxCell id="TLwpCwCnEkrLmzgMQMTA-291" value="&lt;font style=&quot;font-size: 23px;&quot;&gt;into&lt;/font&gt;" style="text;html=1;align=center;verticalAlign=middle;resizable=0;points=[];autosize=1;strokeColor=none;fillColor=none;" vertex="1" parent="1">
          <mxGeometry x="105" y="2191" width="55" height="40" as="geometry" />
        </mxCell>
        <mxCell id="TLwpCwCnEkrLmzgMQMTA-292" value="&lt;font style=&quot;font-size: 23px;&quot;&gt;out&lt;/font&gt;" style="text;html=1;align=center;verticalAlign=middle;resizable=0;points=[];autosize=1;strokeColor=none;fillColor=none;" vertex="1" parent="1">
          <mxGeometry x="403" y="2193" width="50" height="40" as="geometry" />
        </mxCell>
        <mxCell id="TLwpCwCnEkrLmzgMQMTA-293" value="&lt;font style=&quot;font-size: 23px;&quot;&gt;into&lt;/font&gt;" style="text;html=1;align=center;verticalAlign=middle;resizable=0;points=[];autosize=1;strokeColor=none;fillColor=none;" vertex="1" parent="1">
          <mxGeometry x="104" y="2526" width="55" height="40" as="geometry" />
        </mxCell>
        <mxCell id="TLwpCwCnEkrLmzgMQMTA-294" value="&lt;font style=&quot;font-size: 23px;&quot;&gt;out&lt;/font&gt;" style="text;html=1;align=center;verticalAlign=middle;resizable=0;points=[];autosize=1;strokeColor=none;fillColor=none;" vertex="1" parent="1">
          <mxGeometry x="402" y="2528" width="50" height="40" as="geometry" />
        </mxCell>
        <mxCell id="TLwpCwCnEkrLmzgMQMTA-304" value="" style="rounded=1;whiteSpace=wrap;html=1;fontSize=16;fillColor=none;strokeColor=#FF0000;" vertex="1" parent="1">
          <mxGeometry x="306" y="2566" width="228.5" height="60" as="geometry" />
        </mxCell>
        <mxCell id="TLwpCwCnEkrLmzgMQMTA-305" value="" style="rounded=1;whiteSpace=wrap;html=1;fontSize=16;fillColor=none;strokeColor=#FF0000;" vertex="1" parent="1">
          <mxGeometry x="317.75" y="2231" width="228.5" height="60" as="geometry" />
        </mxCell>
        <mxCell id="TLwpCwCnEkrLmzgMQMTA-306" value="" style="rounded=1;whiteSpace=wrap;html=1;fontSize=16;fillColor=none;strokeColor=#FF0000;" vertex="1" parent="1">
          <mxGeometry x="319.75" y="1834" width="228.5" height="60" as="geometry" />
        </mxCell>
        <mxCell id="TLwpCwCnEkrLmzgMQMTA-307" value="" style="rounded=1;whiteSpace=wrap;html=1;fontSize=16;fillColor=none;strokeColor=#FF0000;" vertex="1" parent="1">
          <mxGeometry x="312.75" y="1417" width="228.5" height="60" as="geometry" />
        </mxCell>
        <mxCell id="TLwpCwCnEkrLmzgMQMTA-310" value="" style="endArrow=classic;html=1;rounded=0;" edge="1" parent="1">
          <mxGeometry width="50" height="50" relative="1" as="geometry">
            <mxPoint x="63" y="1446.5" as="sourcePoint" />
            <mxPoint x="178" y="1446.5" as="targetPoint" />
          </mxGeometry>
        </mxCell>
        <mxCell id="TLwpCwCnEkrLmzgMQMTA-311" value="" style="endArrow=classic;html=1;rounded=0;" edge="1" parent="1">
          <mxGeometry width="50" height="50" relative="1" as="geometry">
            <mxPoint x="68.75" y="1863.5" as="sourcePoint" />
            <mxPoint x="183.75" y="1863.5" as="targetPoint" />
          </mxGeometry>
        </mxCell>
        <mxCell id="TLwpCwCnEkrLmzgMQMTA-312" value="" style="endArrow=classic;html=1;rounded=0;" edge="1" parent="1">
          <mxGeometry width="50" height="50" relative="1" as="geometry">
            <mxPoint x="79" y="2260.5" as="sourcePoint" />
            <mxPoint x="194" y="2260.5" as="targetPoint" />
          </mxGeometry>
        </mxCell>
        <mxCell id="TLwpCwCnEkrLmzgMQMTA-313" value="" style="endArrow=classic;html=1;rounded=0;" edge="1" parent="1">
          <mxGeometry width="50" height="50" relative="1" as="geometry">
            <mxPoint x="356" y="2260.5" as="sourcePoint" />
            <mxPoint x="471" y="2260.5" as="targetPoint" />
          </mxGeometry>
        </mxCell>
        <mxCell id="TLwpCwCnEkrLmzgMQMTA-314" value="" style="endArrow=classic;html=1;rounded=0;" edge="1" parent="1">
          <mxGeometry width="50" height="50" relative="1" as="geometry">
            <mxPoint x="68" y="2595.5" as="sourcePoint" />
            <mxPoint x="183" y="2595.5" as="targetPoint" />
          </mxGeometry>
        </mxCell>
        <mxCell id="TLwpCwCnEkrLmzgMQMTA-315" value="" style="endArrow=classic;html=1;rounded=0;" edge="1" parent="1">
          <mxGeometry width="50" height="50" relative="1" as="geometry">
            <mxPoint x="360" y="2598" as="sourcePoint" />
            <mxPoint x="475" y="2598" as="targetPoint" />
          </mxGeometry>
        </mxCell>
        <mxCell id="TLwpCwCnEkrLmzgMQMTA-316" value="" style="group" vertex="1" connectable="0" parent="1">
          <mxGeometry x="-248" y="2880" width="1086" height="291" as="geometry" />
        </mxCell>
        <mxCell id="TLwpCwCnEkrLmzgMQMTA-317" value="" style="rounded=0;whiteSpace=wrap;html=1;fontSize=16;fillColor=none;" vertex="1" parent="TLwpCwCnEkrLmzgMQMTA-316">
          <mxGeometry y="-4" width="1086" height="291" as="geometry" />
        </mxCell>
        <mxCell id="TLwpCwCnEkrLmzgMQMTA-318" value="" style="group" vertex="1" connectable="0" parent="TLwpCwCnEkrLmzgMQMTA-316">
          <mxGeometry x="557.5" y="165.5" width="522" height="114" as="geometry" />
        </mxCell>
        <mxCell id="TLwpCwCnEkrLmzgMQMTA-319" value="" style="group" vertex="1" connectable="0" parent="TLwpCwCnEkrLmzgMQMTA-318">
          <mxGeometry width="522" height="114" as="geometry" />
        </mxCell>
        <mxCell id="TLwpCwCnEkrLmzgMQMTA-320" value="" style="group" vertex="1" connectable="0" parent="TLwpCwCnEkrLmzgMQMTA-319">
          <mxGeometry x="-3" width="525" height="114" as="geometry" />
        </mxCell>
        <mxCell id="TLwpCwCnEkrLmzgMQMTA-321" value="" style="whiteSpace=wrap;html=1;" vertex="1" parent="TLwpCwCnEkrLmzgMQMTA-320">
          <mxGeometry x="3" width="516.0000000000001" height="107" as="geometry" />
        </mxCell>
        <mxCell id="TLwpCwCnEkrLmzgMQMTA-322" value="&lt;font style=&quot;font-size: 23px;&quot;&gt;sensor_into&lt;/font&gt;" style="text;html=1;align=center;verticalAlign=middle;resizable=0;points=[];autosize=1;strokeColor=none;fillColor=none;" vertex="1" parent="TLwpCwCnEkrLmzgMQMTA-320">
          <mxGeometry x="384" y="8" width="137" height="40" as="geometry" />
        </mxCell>
        <mxCell id="TLwpCwCnEkrLmzgMQMTA-323" value="&lt;font style=&quot;font-size: 23px;&quot;&gt;sensor_out&lt;/font&gt;" style="text;html=1;align=center;verticalAlign=middle;resizable=0;points=[];autosize=1;strokeColor=none;fillColor=none;" vertex="1" parent="TLwpCwCnEkrLmzgMQMTA-320">
          <mxGeometry x="258" y="8" width="132" height="40" as="geometry" />
        </mxCell>
        <mxCell id="TLwpCwCnEkrLmzgMQMTA-324" value="&lt;font style=&quot;font-size: 23px;&quot;&gt;vector_into&lt;/font&gt;" style="text;html=1;align=center;verticalAlign=middle;resizable=0;points=[];autosize=1;strokeColor=none;fillColor=none;" vertex="1" parent="TLwpCwCnEkrLmzgMQMTA-320">
          <mxGeometry x="130" y="8" width="131" height="40" as="geometry" />
        </mxCell>
        <mxCell id="TLwpCwCnEkrLmzgMQMTA-325" value="&lt;font style=&quot;font-size: 23px;&quot;&gt;vector_out&lt;/font&gt;" style="text;html=1;align=center;verticalAlign=middle;resizable=0;points=[];autosize=1;strokeColor=none;fillColor=none;" vertex="1" parent="TLwpCwCnEkrLmzgMQMTA-320">
          <mxGeometry y="8" width="125" height="40" as="geometry" />
        </mxCell>
        <mxCell id="TLwpCwCnEkrLmzgMQMTA-326" value="&lt;font style=&quot;font-size: 23px;&quot;&gt;0&lt;/font&gt;" style="text;html=1;align=center;verticalAlign=middle;resizable=0;points=[];autosize=1;strokeColor=none;fillColor=none;" vertex="1" parent="TLwpCwCnEkrLmzgMQMTA-320">
          <mxGeometry x="437" y="63" width="31" height="40" as="geometry" />
        </mxCell>
        <mxCell id="TLwpCwCnEkrLmzgMQMTA-327" value="&lt;font style=&quot;font-size: 23px;&quot;&gt;1&lt;/font&gt;" style="text;html=1;align=center;verticalAlign=middle;resizable=0;points=[];autosize=1;strokeColor=none;fillColor=none;" vertex="1" parent="TLwpCwCnEkrLmzgMQMTA-320">
          <mxGeometry x="308.5" y="63" width="31" height="40" as="geometry" />
        </mxCell>
        <mxCell id="TLwpCwCnEkrLmzgMQMTA-328" value="&lt;font style=&quot;font-size: 23px;&quot;&gt;1&lt;/font&gt;" style="text;html=1;align=center;verticalAlign=middle;resizable=0;points=[];autosize=1;strokeColor=none;fillColor=none;" vertex="1" parent="TLwpCwCnEkrLmzgMQMTA-320">
          <mxGeometry x="180" y="63" width="31" height="40" as="geometry" />
        </mxCell>
        <mxCell id="TLwpCwCnEkrLmzgMQMTA-329" value="&lt;font style=&quot;font-size: 23px;&quot;&gt;0&lt;/font&gt;" style="text;html=1;align=center;verticalAlign=middle;resizable=0;points=[];autosize=1;strokeColor=none;fillColor=none;" vertex="1" parent="TLwpCwCnEkrLmzgMQMTA-320">
          <mxGeometry x="47" y="63" width="31" height="40" as="geometry" />
        </mxCell>
        <mxCell id="TLwpCwCnEkrLmzgMQMTA-330" value="" style="endArrow=none;html=1;rounded=0;exitX=0;exitY=0.5;exitDx=0;exitDy=0;entryX=1;entryY=0.5;entryDx=0;entryDy=0;" edge="1" parent="TLwpCwCnEkrLmzgMQMTA-320" source="TLwpCwCnEkrLmzgMQMTA-321" target="TLwpCwCnEkrLmzgMQMTA-321">
          <mxGeometry width="50" height="50" relative="1" as="geometry">
            <mxPoint x="450.27882960413086" y="43" as="sourcePoint" />
            <mxPoint x="494.685025817556" y="-7" as="targetPoint" />
          </mxGeometry>
        </mxCell>
        <mxCell id="TLwpCwCnEkrLmzgMQMTA-331" value="" style="endArrow=none;html=1;rounded=0;exitX=0.75;exitY=1;exitDx=0;exitDy=0;entryX=0.75;entryY=0;entryDx=0;entryDy=0;" edge="1" parent="TLwpCwCnEkrLmzgMQMTA-320" source="TLwpCwCnEkrLmzgMQMTA-321" target="TLwpCwCnEkrLmzgMQMTA-321">
          <mxGeometry width="50" height="50" relative="1" as="geometry">
            <mxPoint x="450.27882960413086" y="76.68333333333334" as="sourcePoint" />
            <mxPoint x="494.685025817556" y="-12.483333333333334" as="targetPoint" />
          </mxGeometry>
        </mxCell>
        <mxCell id="TLwpCwCnEkrLmzgMQMTA-332" value="" style="endArrow=none;html=1;rounded=0;exitX=0.5;exitY=1;exitDx=0;exitDy=0;entryX=0.5;entryY=0;entryDx=0;entryDy=0;" edge="1" parent="TLwpCwCnEkrLmzgMQMTA-320" source="TLwpCwCnEkrLmzgMQMTA-321" target="TLwpCwCnEkrLmzgMQMTA-321">
          <mxGeometry width="50" height="50" relative="1" as="geometry">
            <mxPoint x="396.1032702237522" y="124.83333333333334" as="sourcePoint" />
            <mxPoint x="396.1032702237522" y="17.833333333333336" as="targetPoint" />
          </mxGeometry>
        </mxCell>
        <mxCell id="TLwpCwCnEkrLmzgMQMTA-333" value="" style="endArrow=none;html=1;rounded=0;exitX=0.25;exitY=1;exitDx=0;exitDy=0;entryX=0.25;entryY=0;entryDx=0;entryDy=0;" edge="1" parent="TLwpCwCnEkrLmzgMQMTA-320" source="TLwpCwCnEkrLmzgMQMTA-321" target="TLwpCwCnEkrLmzgMQMTA-321">
          <mxGeometry width="50" height="50" relative="1" as="geometry">
            <mxPoint x="267.3253012048193" y="124.83333333333334" as="sourcePoint" />
            <mxPoint x="267.3253012048193" y="17.833333333333336" as="targetPoint" />
          </mxGeometry>
        </mxCell>
        <mxCell id="TLwpCwCnEkrLmzgMQMTA-369" value="" style="rounded=0;whiteSpace=wrap;html=1;fillColor=none;strokeColor=#0000CC;" vertex="1" parent="TLwpCwCnEkrLmzgMQMTA-320">
          <mxGeometry x="254.5" y="-9.5" width="270.5" height="123.5" as="geometry" />
        </mxCell>
        <mxCell id="TLwpCwCnEkrLmzgMQMTA-334" value="" style="rounded=1;whiteSpace=wrap;html=1;fontSize=16;fillColor=none;strokeColor=#FF0000;" vertex="1" parent="TLwpCwCnEkrLmzgMQMTA-316">
          <mxGeometry x="262" y="42" width="228.5" height="60" as="geometry" />
        </mxCell>
        <mxCell id="TLwpCwCnEkrLmzgMQMTA-335" value="" style="group" vertex="1" connectable="0" parent="TLwpCwCnEkrLmzgMQMTA-316">
          <mxGeometry x="16.5" y="166" width="541" height="107" as="geometry" />
        </mxCell>
        <mxCell id="TLwpCwCnEkrLmzgMQMTA-336" value="" style="group" vertex="1" connectable="0" parent="TLwpCwCnEkrLmzgMQMTA-335">
          <mxGeometry width="541" height="107" as="geometry" />
        </mxCell>
        <mxCell id="TLwpCwCnEkrLmzgMQMTA-337" value="" style="group" vertex="1" connectable="0" parent="TLwpCwCnEkrLmzgMQMTA-336">
          <mxGeometry width="541" height="107" as="geometry" />
        </mxCell>
        <mxCell id="TLwpCwCnEkrLmzgMQMTA-338" value="" style="whiteSpace=wrap;html=1;" vertex="1" parent="TLwpCwCnEkrLmzgMQMTA-337">
          <mxGeometry width="541" height="107" as="geometry" />
        </mxCell>
        <mxCell id="TLwpCwCnEkrLmzgMQMTA-339" value="&lt;font style=&quot;font-size: 23px;&quot;&gt;set&lt;/font&gt;" style="text;html=1;align=center;verticalAlign=middle;resizable=0;points=[];autosize=1;strokeColor=none;fillColor=none;" vertex="1" parent="TLwpCwCnEkrLmzgMQMTA-337">
          <mxGeometry x="447" y="9" width="49" height="40" as="geometry" />
        </mxCell>
        <mxCell id="TLwpCwCnEkrLmzgMQMTA-340" value="&lt;font style=&quot;font-size: 23px;&quot;&gt;finish&lt;/font&gt;" style="text;html=1;align=center;verticalAlign=middle;resizable=0;points=[];autosize=1;strokeColor=none;fillColor=none;" vertex="1" parent="TLwpCwCnEkrLmzgMQMTA-337">
          <mxGeometry x="302" y="9" width="72" height="40" as="geometry" />
        </mxCell>
        <mxCell id="TLwpCwCnEkrLmzgMQMTA-341" value="&lt;font style=&quot;font-size: 23px;&quot;&gt;1&lt;/font&gt;" style="text;html=1;align=center;verticalAlign=middle;resizable=0;points=[];autosize=1;strokeColor=none;fillColor=none;" vertex="1" parent="TLwpCwCnEkrLmzgMQMTA-337">
          <mxGeometry x="456" y="63" width="31" height="40" as="geometry" />
        </mxCell>
        <mxCell id="TLwpCwCnEkrLmzgMQMTA-342" value="&lt;font style=&quot;font-size: 23px;&quot;&gt;0&lt;/font&gt;" style="text;html=1;align=center;verticalAlign=middle;resizable=0;points=[];autosize=1;strokeColor=none;fillColor=none;" vertex="1" parent="TLwpCwCnEkrLmzgMQMTA-337">
          <mxGeometry x="322.5" y="63" width="31" height="40" as="geometry" />
        </mxCell>
        <mxCell id="TLwpCwCnEkrLmzgMQMTA-343" value="" style="endArrow=none;html=1;rounded=0;exitX=0.75;exitY=1;exitDx=0;exitDy=0;entryX=0.75;entryY=0;entryDx=0;entryDy=0;" edge="1" parent="TLwpCwCnEkrLmzgMQMTA-337" source="TLwpCwCnEkrLmzgMQMTA-338" target="TLwpCwCnEkrLmzgMQMTA-338">
          <mxGeometry width="50" height="50" relative="1" as="geometry">
            <mxPoint x="472.09466437177286" y="76.68333333333334" as="sourcePoint" />
            <mxPoint x="518.6523235800345" y="-12.483333333333334" as="targetPoint" />
          </mxGeometry>
        </mxCell>
        <mxCell id="TLwpCwCnEkrLmzgMQMTA-344" value="" style="endArrow=none;html=1;rounded=0;exitX=0.5;exitY=1;exitDx=0;exitDy=0;entryX=0.5;entryY=0;entryDx=0;entryDy=0;" edge="1" parent="TLwpCwCnEkrLmzgMQMTA-337" source="TLwpCwCnEkrLmzgMQMTA-338" target="TLwpCwCnEkrLmzgMQMTA-338">
          <mxGeometry width="50" height="50" relative="1" as="geometry">
            <mxPoint x="415.2943201376936" y="124.83333333333334" as="sourcePoint" />
            <mxPoint x="415.2943201376936" y="17.833333333333336" as="targetPoint" />
          </mxGeometry>
        </mxCell>
        <mxCell id="TLwpCwCnEkrLmzgMQMTA-345" value="" style="endArrow=none;html=1;rounded=0;exitX=0.25;exitY=1;exitDx=0;exitDy=0;entryX=0.25;entryY=0;entryDx=0;entryDy=0;" edge="1" parent="TLwpCwCnEkrLmzgMQMTA-337" source="TLwpCwCnEkrLmzgMQMTA-338" target="TLwpCwCnEkrLmzgMQMTA-338">
          <mxGeometry width="50" height="50" relative="1" as="geometry">
            <mxPoint x="280.27710843373495" y="124.83333333333334" as="sourcePoint" />
            <mxPoint x="280.27710843373495" y="17.833333333333336" as="targetPoint" />
          </mxGeometry>
        </mxCell>
        <mxCell id="TLwpCwCnEkrLmzgMQMTA-346" value="" style="endArrow=none;html=1;rounded=0;exitX=0;exitY=0.5;exitDx=0;exitDy=0;entryX=1;entryY=0.5;entryDx=0;entryDy=0;" edge="1" parent="TLwpCwCnEkrLmzgMQMTA-337" source="TLwpCwCnEkrLmzgMQMTA-338" target="TLwpCwCnEkrLmzgMQMTA-338">
          <mxGeometry width="50" height="50" relative="1" as="geometry">
            <mxPoint x="472.09466437177286" y="43" as="sourcePoint" />
            <mxPoint x="518.6523235800345" y="-7" as="targetPoint" />
          </mxGeometry>
        </mxCell>
        <mxCell id="TLwpCwCnEkrLmzgMQMTA-347" value="&lt;font style=&quot;font-size: 20px;&quot;&gt;count : 0&lt;/font&gt;" style="text;html=1;align=center;verticalAlign=middle;resizable=0;points=[];autosize=1;strokeColor=none;fillColor=none;" vertex="1" parent="TLwpCwCnEkrLmzgMQMTA-316">
          <mxGeometry x="949" y="20" width="95" height="36" as="geometry" />
        </mxCell>
        <mxCell id="TLwpCwCnEkrLmzgMQMTA-348" value="" style="rounded=1;whiteSpace=wrap;html=1;fontSize=16;fillColor=none;strokeColor=#FF0000;" vertex="1" parent="TLwpCwCnEkrLmzgMQMTA-316">
          <mxGeometry x="565" y="42" width="228.5" height="60" as="geometry" />
        </mxCell>
        <mxCell id="TLwpCwCnEkrLmzgMQMTA-349" value="&lt;font style=&quot;font-size: 23px;&quot;&gt;into&lt;/font&gt;" style="text;html=1;align=center;verticalAlign=middle;resizable=0;points=[];autosize=1;strokeColor=none;fillColor=none;" vertex="1" parent="TLwpCwCnEkrLmzgMQMTA-316">
          <mxGeometry x="351" width="55" height="40" as="geometry" />
        </mxCell>
        <mxCell id="TLwpCwCnEkrLmzgMQMTA-350" value="&lt;font style=&quot;font-size: 23px;&quot;&gt;out&lt;/font&gt;" style="text;html=1;align=center;verticalAlign=middle;resizable=0;points=[];autosize=1;strokeColor=none;fillColor=none;" vertex="1" parent="TLwpCwCnEkrLmzgMQMTA-316">
          <mxGeometry x="649" y="2" width="50" height="40" as="geometry" />
        </mxCell>
        <mxCell id="TLwpCwCnEkrLmzgMQMTA-309" value="" style="endArrow=classic;html=1;rounded=0;" edge="1" parent="TLwpCwCnEkrLmzgMQMTA-316">
          <mxGeometry width="50" height="50" relative="1" as="geometry">
            <mxPoint x="610" y="71.5" as="sourcePoint" />
            <mxPoint x="725" y="71.5" as="targetPoint" />
          </mxGeometry>
        </mxCell>
        <mxCell id="TLwpCwCnEkrLmzgMQMTA-370" value="" style="rounded=0;whiteSpace=wrap;html=1;fillColor=none;strokeColor=#0000CC;" vertex="1" parent="TLwpCwCnEkrLmzgMQMTA-316">
          <mxGeometry x="548" y="212" width="273" height="72.25" as="geometry" />
        </mxCell>
        <mxCell id="TLwpCwCnEkrLmzgMQMTA-357" value="&lt;font style=&quot;font-size: 20px;&quot;&gt;into 상황일 때, sensor_into : 1 이고 sensor_out: 0이면 vector_into : 1&lt;br&gt;&lt;/font&gt;" style="text;html=1;align=center;verticalAlign=middle;resizable=0;points=[];autosize=1;strokeColor=none;fillColor=none;" vertex="1" parent="1">
          <mxGeometry x="222" y="1745" width="627" height="36" as="geometry" />
        </mxCell>
        <mxCell id="TLwpCwCnEkrLmzgMQMTA-358" value="" style="rounded=0;whiteSpace=wrap;html=1;fillColor=none;strokeColor=#FF0000;" vertex="1" parent="1">
          <mxGeometry x="568" y="1948" width="269" height="127" as="geometry" />
        </mxCell>
        <mxCell id="TLwpCwCnEkrLmzgMQMTA-360" value="" style="rounded=0;whiteSpace=wrap;html=1;fillColor=none;strokeColor=#FF0000;" vertex="1" parent="1">
          <mxGeometry x="311" y="2013" width="269" height="60" as="geometry" />
        </mxCell>
        <mxCell id="TLwpCwCnEkrLmzgMQMTA-362" value="" style="rounded=0;whiteSpace=wrap;html=1;fillColor=none;strokeColor=#FF0000;" vertex="1" parent="1">
          <mxGeometry x="567" y="2329" width="268" height="124" as="geometry" />
        </mxCell>
        <mxCell id="TLwpCwCnEkrLmzgMQMTA-364" value="&lt;font style=&quot;font-size: 20px;&quot;&gt;sensor_into : 1 이고 sensor_out : 1이면 set : 1&lt;/font&gt;" style="text;html=1;align=center;verticalAlign=middle;resizable=0;points=[];autosize=1;strokeColor=none;fillColor=none;" vertex="1" parent="1">
          <mxGeometry x="422" y="2121" width="427" height="36" as="geometry" />
        </mxCell>
        <mxCell id="TLwpCwCnEkrLmzgMQMTA-368" value="&lt;font style=&quot;font-size: 20px;&quot;&gt;vector_into 또는 vector_out이 1이면 vector_out은 1로 되지 않는다.&lt;/font&gt;" style="text;html=1;align=center;verticalAlign=middle;resizable=0;points=[];autosize=1;strokeColor=none;fillColor=none;" vertex="1" parent="1">
          <mxGeometry x="167" y="2838" width="609" height="36" as="geometry" />
        </mxCell>
        <mxCell id="TLwpCwCnEkrLmzgMQMTA-372" value="&lt;font style=&quot;font-size: 20px;&quot;&gt;out 상황일 때, sensor_into : 0이고 sensor_out :&amp;nbsp; 1 이면 vector_out: 1&lt;/font&gt;" style="text;html=1;align=center;verticalAlign=middle;resizable=0;points=[];autosize=1;strokeColor=none;fillColor=none;" vertex="1" parent="1">
          <mxGeometry x="225" y="2085" width="624" height="36" as="geometry" />
        </mxCell>
        <mxCell id="TLwpCwCnEkrLmzgMQMTA-373" value="&lt;font style=&quot;font-size: 20px;&quot;&gt;set : 1 이고 sensor_out : 0 이고 sensor_into가 0이면 finish: 1이 되면서&lt;br&gt;set은 0이 된다.&lt;/font&gt;" style="text;html=1;align=center;verticalAlign=middle;resizable=0;points=[];autosize=1;strokeColor=none;fillColor=none;" vertex="1" parent="1">
          <mxGeometry x="196" y="3547" width="642" height="60" as="geometry" />
        </mxCell>
        <mxCell id="TLwpCwCnEkrLmzgMQMTA-385" value="&lt;font style=&quot;font-size: 20px;&quot;&gt;finish : 1이고 vector_into 또는 vector_out에 1이면 count가 +, - 가 되면서 finish와 vector는 0이된다.&lt;/font&gt;" style="text;html=1;align=center;verticalAlign=middle;resizable=0;points=[];autosize=1;strokeColor=none;fillColor=none;" vertex="1" parent="1">
          <mxGeometry x="12" y="3947" width="892" height="36" as="geometry" />
        </mxCell>
        <mxCell id="TLwpCwCnEkrLmzgMQMTA-386" value="" style="endArrow=block;html=1;rounded=0;endFill=1;startArrow=block;startFill=1;" edge="1" parent="1">
          <mxGeometry width="50" height="50" relative="1" as="geometry">
            <mxPoint x="29" y="4545" as="sourcePoint" />
            <mxPoint x="451" y="4545" as="targetPoint" />
          </mxGeometry>
        </mxCell>
        <mxCell id="TLwpCwCnEkrLmzgMQMTA-388" value="초음파 센서" style="rounded=0;whiteSpace=wrap;html=1;" vertex="1" parent="1">
          <mxGeometry x="-123" y="4516" width="120" height="60" as="geometry" />
        </mxCell>
        <mxCell id="TLwpCwCnEkrLmzgMQMTA-389" value="벽" style="rounded=0;whiteSpace=wrap;html=1;" vertex="1" parent="1">
          <mxGeometry x="475.5" y="4507" width="120" height="590" as="geometry" />
        </mxCell>
        <mxCell id="TLwpCwCnEkrLmzgMQMTA-390" value="&lt;font style=&quot;font-size: 15px;&quot;&gt;distance&lt;/font&gt;" style="text;html=1;align=center;verticalAlign=middle;resizable=0;points=[];autosize=1;strokeColor=none;fillColor=none;" vertex="1" parent="1">
          <mxGeometry x="216" y="4505" width="74" height="30" as="geometry" />
        </mxCell>
        <mxCell id="TLwpCwCnEkrLmzgMQMTA-391" value="" style="endArrow=none;html=1;rounded=0;" edge="1" parent="1">
          <mxGeometry width="50" height="50" relative="1" as="geometry">
            <mxPoint x="152.5" y="4807" as="sourcePoint" />
            <mxPoint x="152.5" y="4701" as="targetPoint" />
          </mxGeometry>
        </mxCell>
        <mxCell id="TLwpCwCnEkrLmzgMQMTA-392" value="&lt;font style=&quot;font-size: 15px;&quot;&gt;new_distance_into&lt;/font&gt;" style="text;html=1;align=center;verticalAlign=middle;resizable=0;points=[];autosize=1;strokeColor=none;fillColor=none;" vertex="1" parent="1">
          <mxGeometry x="232.5" y="4725" width="142" height="30" as="geometry" />
        </mxCell>
        <mxCell id="TLwpCwCnEkrLmzgMQMTA-393" value="&lt;font style=&quot;font-size: 15px;&quot;&gt;old_distance_into&lt;/font&gt;" style="text;html=1;align=center;verticalAlign=middle;resizable=0;points=[];autosize=1;strokeColor=none;fillColor=none;" vertex="1" parent="1">
          <mxGeometry x="68" y="4724" width="135" height="30" as="geometry" />
        </mxCell>
        <mxCell id="TLwpCwCnEkrLmzgMQMTA-394" value="" style="endArrow=none;html=1;rounded=0;" edge="1" parent="1">
          <mxGeometry width="50" height="50" relative="1" as="geometry">
            <mxPoint x="155" y="4599" as="sourcePoint" />
            <mxPoint x="155" y="4493" as="targetPoint" />
          </mxGeometry>
        </mxCell>
        <mxCell id="TLwpCwCnEkrLmzgMQMTA-395" value="초음파 센서" style="rounded=0;whiteSpace=wrap;html=1;" vertex="1" parent="1">
          <mxGeometry x="-123" y="4740" width="120" height="60" as="geometry" />
        </mxCell>
        <mxCell id="TLwpCwCnEkrLmzgMQMTA-396" value="" style="endArrow=block;html=1;rounded=0;endFill=1;startArrow=block;startFill=1;" edge="1" parent="1">
          <mxGeometry width="50" height="50" relative="1" as="geometry">
            <mxPoint x="24.25" y="4775" as="sourcePoint" />
            <mxPoint x="446.25" y="4775" as="targetPoint" />
          </mxGeometry>
        </mxCell>
        <mxCell id="TLwpCwCnEkrLmzgMQMTA-398" value="&lt;font style=&quot;font-size: 15px;&quot;&gt;-&lt;/font&gt;" style="text;html=1;align=center;verticalAlign=middle;resizable=0;points=[];autosize=1;strokeColor=none;fillColor=none;" vertex="1" parent="1">
          <mxGeometry x="212" y="4726" width="23" height="30" as="geometry" />
        </mxCell>
        <mxCell id="TLwpCwCnEkrLmzgMQMTA-399" value="" style="endArrow=none;html=1;rounded=0;" edge="1" parent="1">
          <mxGeometry width="50" height="50" relative="1" as="geometry">
            <mxPoint x="330.5" y="4816" as="sourcePoint" />
            <mxPoint x="330.5" y="4710" as="targetPoint" />
          </mxGeometry>
        </mxCell>
        <mxCell id="TLwpCwCnEkrLmzgMQMTA-400" value="" style="endArrow=none;html=1;rounded=0;" edge="1" parent="1">
          <mxGeometry width="50" height="50" relative="1" as="geometry">
            <mxPoint x="330.5" y="4599" as="sourcePoint" />
            <mxPoint x="330.5" y="4493" as="targetPoint" />
          </mxGeometry>
        </mxCell>
        <mxCell id="TLwpCwCnEkrLmzgMQMTA-401" value="" style="endArrow=none;html=1;rounded=0;" edge="1" parent="1">
          <mxGeometry width="50" height="50" relative="1" as="geometry">
            <mxPoint x="152.5" y="5033" as="sourcePoint" />
            <mxPoint x="152.5" y="4927" as="targetPoint" />
          </mxGeometry>
        </mxCell>
        <mxCell id="TLwpCwCnEkrLmzgMQMTA-402" value="&lt;font style=&quot;font-size: 15px;&quot;&gt;new_distance_into&lt;/font&gt;" style="text;html=1;align=center;verticalAlign=middle;resizable=0;points=[];autosize=1;strokeColor=none;fillColor=none;" vertex="1" parent="1">
          <mxGeometry x="249" y="4934" width="142" height="30" as="geometry" />
        </mxCell>
        <mxCell id="TLwpCwCnEkrLmzgMQMTA-403" value="&lt;font style=&quot;font-size: 15px;&quot;&gt;old_distance_into&lt;/font&gt;" style="text;html=1;align=center;verticalAlign=middle;resizable=0;points=[];autosize=1;strokeColor=none;fillColor=none;" vertex="1" parent="1">
          <mxGeometry x="83" y="4936" width="135" height="30" as="geometry" />
        </mxCell>
        <mxCell id="TLwpCwCnEkrLmzgMQMTA-404" value="초음파 센서" style="rounded=0;whiteSpace=wrap;html=1;" vertex="1" parent="1">
          <mxGeometry x="-123" y="4950" width="120" height="60" as="geometry" />
        </mxCell>
        <mxCell id="TLwpCwCnEkrLmzgMQMTA-405" value="" style="endArrow=block;html=1;rounded=0;endFill=1;startArrow=block;startFill=1;" edge="1" parent="1">
          <mxGeometry width="50" height="50" relative="1" as="geometry">
            <mxPoint x="24.25" y="4985" as="sourcePoint" />
            <mxPoint x="446.25" y="4985" as="targetPoint" />
          </mxGeometry>
        </mxCell>
        <mxCell id="TLwpCwCnEkrLmzgMQMTA-406" value="&lt;font style=&quot;font-size: 15px;&quot;&gt;-&lt;/font&gt;" style="text;html=1;align=center;verticalAlign=middle;resizable=0;points=[];autosize=1;strokeColor=none;fillColor=none;" vertex="1" parent="1">
          <mxGeometry x="212" y="4936" width="23" height="30" as="geometry" />
        </mxCell>
        <mxCell id="TLwpCwCnEkrLmzgMQMTA-407" value="" style="endArrow=none;html=1;rounded=0;" edge="1" parent="1">
          <mxGeometry width="50" height="50" relative="1" as="geometry">
            <mxPoint x="330.5" y="5033" as="sourcePoint" />
            <mxPoint x="330.5" y="4927" as="targetPoint" />
          </mxGeometry>
        </mxCell>
        <mxCell id="TLwpCwCnEkrLmzgMQMTA-408" value="" style="endArrow=classic;html=1;rounded=0;strokeColor=#FF0000;" edge="1" parent="1">
          <mxGeometry width="50" height="50" relative="1" as="geometry">
            <mxPoint x="166" y="4465" as="sourcePoint" />
            <mxPoint x="166" y="4537" as="targetPoint" />
          </mxGeometry>
        </mxCell>
        <mxCell id="TLwpCwCnEkrLmzgMQMTA-409" value="" style="endArrow=classic;html=1;rounded=0;strokeColor=#FF0000;" edge="1" parent="1">
          <mxGeometry width="50" height="50" relative="1" as="geometry">
            <mxPoint x="185" y="4464" as="sourcePoint" />
            <mxPoint x="185" y="4536" as="targetPoint" />
          </mxGeometry>
        </mxCell>
        <mxCell id="TLwpCwCnEkrLmzgMQMTA-410" value="" style="endArrow=classic;startArrow=classic;html=1;rounded=0;" edge="1" parent="1">
          <mxGeometry width="50" height="50" relative="1" as="geometry">
            <mxPoint x="161" y="4458" as="sourcePoint" />
            <mxPoint x="194" y="4458" as="targetPoint" />
          </mxGeometry>
        </mxCell>
        <mxCell id="TLwpCwCnEkrLmzgMQMTA-411" value="" style="endArrow=classic;html=1;rounded=0;strokeColor=#0000CC;" edge="1" parent="1">
          <mxGeometry width="50" height="50" relative="1" as="geometry">
            <mxPoint x="180" y="4702" as="sourcePoint" />
            <mxPoint x="180.5" y="4772" as="targetPoint" />
          </mxGeometry>
        </mxCell>
        <mxCell id="TLwpCwCnEkrLmzgMQMTA-412" value="" style="endArrow=classic;html=1;rounded=0;strokeColor=#FF0000;" edge="1" parent="1">
          <mxGeometry width="50" height="50" relative="1" as="geometry">
            <mxPoint x="299.5" y="4696" as="sourcePoint" />
            <mxPoint x="299.5" y="4772" as="targetPoint" />
          </mxGeometry>
        </mxCell>
        <mxCell id="TLwpCwCnEkrLmzgMQMTA-413" value="5 &amp;lt; distance &amp;amp;&amp;amp; distance &amp;lt; 45" style="text;html=1;align=center;verticalAlign=middle;resizable=0;points=[];autosize=1;strokeColor=none;fillColor=none;" vertex="1" parent="1">
          <mxGeometry x="313" y="4435" width="177" height="26" as="geometry" />
        </mxCell>
        <mxCell id="TLwpCwCnEkrLmzgMQMTA-414" value="7 &amp;lt; old_distance_into - new_distance_into&amp;nbsp;" style="text;html=1;align=center;verticalAlign=middle;resizable=0;points=[];autosize=1;strokeColor=none;fillColor=none;" vertex="1" parent="1">
          <mxGeometry x="114.5" y="4659" width="245" height="26" as="geometry" />
        </mxCell>
        <mxCell id="TLwpCwCnEkrLmzgMQMTA-415" value="" style="endArrow=classic;html=1;rounded=0;strokeColor=#0000CC;" edge="1" parent="1">
          <mxGeometry width="50" height="50" relative="1" as="geometry">
            <mxPoint x="183" y="4914" as="sourcePoint" />
            <mxPoint x="183.5" y="4984" as="targetPoint" />
          </mxGeometry>
        </mxCell>
        <mxCell id="TLwpCwCnEkrLmzgMQMTA-416" value="" style="endArrow=classic;html=1;rounded=0;strokeColor=#FF0000;" edge="1" parent="1">
          <mxGeometry width="50" height="50" relative="1" as="geometry">
            <mxPoint x="199" y="4909" as="sourcePoint" />
            <mxPoint x="199" y="4985" as="targetPoint" />
          </mxGeometry>
        </mxCell>
        <mxCell id="TLwpCwCnEkrLmzgMQMTA-417" value="7 &amp;lt; old_distance_into - new_distance_into&amp;nbsp;" style="text;html=1;align=center;verticalAlign=middle;resizable=0;points=[];autosize=1;strokeColor=none;fillColor=none;" vertex="1" parent="1">
          <mxGeometry x="122" y="4876" width="245" height="26" as="geometry" />
        </mxCell>
      </root>
    </mxGraphModel>
  </diagram>
</mxfile>
